<mxfile host="app.diagrams.net" modified="2023-09-20T18:11:01.977Z" agent="Mozilla/5.0 (Windows NT 10.0; Win64; x64) AppleWebKit/537.36 (KHTML, like Gecko) Chrome/116.0.0.0 Safari/537.36" etag="Dg2BM320rVnMbZj6Jdmq" version="21.7.5" type="device">
  <diagram name="Page-1" id="n7h4E6FcS9BYaYLJJEdb">
    <mxGraphModel dx="2269" dy="1434" grid="0" gridSize="10" guides="1" tooltips="1" connect="1" arrows="1" fold="1" page="1" pageScale="1" pageWidth="1654" pageHeight="2336" background="#FFF2CC" math="0" shadow="1">
      <root>
        <mxCell id="0" />
        <mxCell id="1" parent="0" />
        <mxCell id="IxSBL8WH6zTKbicjn3LH-120" value="" style="rounded=0;whiteSpace=wrap;html=1;fillColor=#dae8fc;strokeColor=#6c8ebf;" parent="1" vertex="1">
          <mxGeometry x="330" y="240" width="820" height="1110" as="geometry" />
        </mxCell>
        <mxCell id="iykx99o-PIE_VzaGS4na-7" value="" style="rounded=0;whiteSpace=wrap;html=1;fillColor=#f8cecc;strokeColor=#b85450;" vertex="1" parent="1">
          <mxGeometry x="409" y="1109" width="671" height="124" as="geometry" />
        </mxCell>
        <mxCell id="IxSBL8WH6zTKbicjn3LH-71" value="" style="whiteSpace=wrap;html=1;aspect=fixed;fillColor=#f8cecc;strokeColor=#b85450;" parent="1" vertex="1">
          <mxGeometry x="422.94000000000005" y="300" width="640" height="640" as="geometry" />
        </mxCell>
        <mxCell id="IxSBL8WH6zTKbicjn3LH-2" value="" style="endArrow=classic;html=1;rounded=0;" parent="1" source="IxSBL8WH6zTKbicjn3LH-1" edge="1">
          <mxGeometry width="50" height="50" relative="1" as="geometry">
            <mxPoint x="330" y="120" as="sourcePoint" />
            <mxPoint x="650" y="120" as="targetPoint" />
          </mxGeometry>
        </mxCell>
        <mxCell id="IxSBL8WH6zTKbicjn3LH-3" value="" style="shape=image;imageAspect=0;aspect=fixed;verticalLabelPosition=bottom;verticalAlign=top;image=data:image/jpeg,/9j/4AAQSkZJRgABAQAAAQABAAD/2wCEAAoHCBUWFRgVFRUYGBgaGBgYGRgcGBwZGhkZGRgZGhkcGRgcIS4lHB4rIRgYJzgmKy8xNTU1GiU7QDs0Py40NTEBDAwMEA8QHhISHzQrISs0NDQ0NDQ0NDQ0NDQ0MTQ0NDQ0NDQ0NDQ0NDQ0NDQ0NDQ0NDQ/NDQ0NDQ0MTQ+NDQ0Mf/AABEIAJ8BPgMBIgACEQEDEQH/xAAbAAACAgMBAAAAAAAAAAAAAAACAwABBAYHBf/EAEkQAAIAAwUEBQgGBwcEAwAAAAECAAMRBBIhMUEFUWFxBhMigZEUkqGxwdHS8DJCUlVicgc1c6Kzw+EjJDRTk8LxFSVjgjNFo//EABkBAQEBAQEBAAAAAAAAAAAAAAEAAgMFBP/EAC4RAAIBAwIEBQQCAwEAAAAAAAABEQIDIRIxQVFhcRMUM5GhBCIy8IHhwdHxFf/aAAwDAQACEQMRAD8A5lMBNAM64Qx5D0+r4mBkdlqsa1wHCMpnjuczESgGEC9aimfsi1XMgkAmoFNN8RMDiakwCUQ2tANSDjSM8MKYZRhO2/KIlQo7VOFAacIZgC7R9IUzpjy0hbg60prjBIcTU1JxrEdsDWAg6wMuWWY3aZY13wIQgAXseQjKs7ACmuvHjDuRjTpTClaUrp6IGMm0v2T6OcYwiIuIIghhNMKCISru/wBUQr/zBOBywEUxiIRaSSxG7ADhp7++FdXGRNGF77ODflJoD3E07xugb6/aHiIyhYkJDFnMuShq4kNWlRgCKEcR3RGYHAHiSNAPbp3wyUuu/wBA0EUSwWATaW/y0/f+KIklmJdh3btwA5RmS1FItiaQ6SkUjUNfniIjrQ4ZHEcvn1QMGmIu949o+d0LJcgIZNbBFGVL3NjgfClO7jCovMXda1XnqO8ekCBiiViiYFXqKwUIAuAQaw5ZFVV2mBGYVIKs16hIDYZXgK+nUQhVDNdP0QLzEfZGg4k0HfD3mFiWOugyA0A4AUEYeWKwgfJx/nr5j+6C8nChmWYHZFLKoRlxFKt2hjdFWp+GBgkcqQwzBqP68InS43JVKdhMulBSCBgZihWoPoMLycBqtd6mo9OsWI0ngGoCBhkk/SU5FSx4FfonxN3/ANoQzUFYIYCmp7Tf7R3D0nhEyRcWi1PDMnhAwxsBTU4n2D2+G6FkU7VNfRuGgjHnWQnEQ6MhSaDCKCkw3xw7+Qi2Sup8TDLQgUXlAG+gpCmmjfABXWQUiXfOOQxPPQViJLFMQCTiYOW4TDIH1xCMmWVcxXfSpOXMxjdZD3tA0NToIUJYpiAeNIWBdnlBzU5DjSp5iGzLOoxFcMcyfWYCVNC9nIacIk61ClFNTkIuBCi8LU1Na00wwiBBuEGoggSXca1J5kmCiCHs4XshVNMyamp1pjlp3RSSQmCDQwT/AMCeB98ELQPsJ4H3xSxgSYuG+Uj7EvzT74nlA+wngffDkBQO75rgc4qrb18xPhh3X/gTwPvidd+BPA++BqeAyIZK507lA8aCChvW/hXwPvinFQGHIjcfcffEsA8i4YZppT0wuJCBIqsXFRCE+8a+g6/PGFwaHQ5H0HQwBg6EKmDEkBhXHBqCuuFIWVbe3nf0jIMQCCBkKQKJ/wC9XriTh2O76XfzEFWAU0OIwIIPEHOnEYHmBEU5g5j0jQ94iWMA85DrEgaxTNkBmcB741JFzhVD+cXNCGp2yOFKV43YxQrb287+kZLGuWQFBy3niTU98URGVSLfAUi44hjri1R3i7DooRYhSgpGINTkPTuECTvgnOm716+7ugYVzJlwxJppC4kQFO5Y0oQM8dfn3RGh7TB/lp+/8cA0wHAqig4Xhequ44tkDSvCsZllCMdHOIoTQ5wSHGuVMue+LQUwOBGB5jOKKFiAufs+fXCRGaBRzTI84KZZ3GdKakE1p4QQyiggENanwEdnGzdmSLJZZk6xI7TZMsllRSS3VoWLXmGZaOKTmocNxqI7L0lP9w2d+xT+FLjduhV3KaXszVKlgi0bG+7R5ifHF9dsb7tHmJ8cauDBgx6nkLXX3O+ik2dJ+xwajZwB33E+OIH2N92jzE+ONbBggYvIWuvuWik2MPsb7uHmJ8cF/wBm+7l8xPijXAYMGLyFrr7j4dJsA/6P93L5i/FBBdj/AHcvmL8UeADBAw+QtdfcvDpPdCbH+7l8xfighL2R93r5i/FHhgwYMX/n2uvuXh0npdItk7PbZ1pnyLIkt0ACtdAYG8mIIJ0aOSS20ORwPsPdHXbb+p7bzHrlxx4R5VylUV1UrZM+etKmrATChoYqDOIrqMDy093hCzGUZLio2no10FtNtkmdLeWiX2QXy4LFQKlbqkUqacwY1Z0KkqwIYEqwOYINCDxBBEUkCYJsRXuPsMCWiBwM8soGRANTFgYGn9fn3RDhUGKDihocdYSKIoMe73wl8aYA031y3YEQxmwxPzugVFa0phmSQAO8mkDjiKFXPwr+974NBTQDTCuXeTB9X+JP9RPiiiKY4U3ggjxBpGcFkYMRhvgqYY92+Fh6DPGsMvVGO/CNgyiNRBIaY9w57+6BG4fP/EWzeGkD5EsZKEFAwUJFxIqLiIuBaJWKJiIGpOtCtAcMxkrf7TyWHWY0Jqak+rhFWNK1dsiKD8gOJ5lqAd8Mqn2H89fgjCYtBu4oa5ax5ys2hoNKisZjorYC8CcqsCK6D6IjCRtDmI1IQWRmSakx2XpKf7hs79iv8KXHHGyjsXSj/AbO/Yr/AApcdvp/Wp/eBujc1YGCWFAxs2wrOsiQ1udb5VrslcwHyvPT6IGlfWRHs3bnh0zx2Xc7twZK9HpQVZUycEtTC+qk9lQfoo24n5rr5Vp2NaJbXWkvXeFLA8mWoMZli2WLRLe1WieEvvdViLwL5m9T6K6DL1R6Nn2btFVpInh00KzlZaaUv5d0fGrtVDadSb4zhT0YTBh2DYl1eutYMuUMlPZeYdFC5jnh7RLfsMkddZazZLYgL2nQ6qy54f8AO8tn7Lob9utS1H1FfrJh4DRfVBWfZTXr9htSmv1C/VzBwZcm76ReLVOrV8PT2/sZ4yedZNj2iY11ZL82Uqo5k0EepN2JKKMkmb1k+WLzgfRYahN5XDx8HT9mW9hSfPVF1LTQFpyXPvjDtNi8nWXaZE4OLxW9S6LwrW6DmpAIhd6qqpLUp4JbfyymeJ46mDBj2NtWdXlra5a3Q7XXQ4UfGrLvBocvfTxAY+2zdVymffubTlHs2v8AU9t5j+VHHxHX7V+p7d+Yfyo4+seJe9arufLc/INWoYooa0UFifogZmuQHGJHr9FbRIS1SZloJEuW/WGilySgLIKD8YU9x3xyeMmFk6vaLFaLIuzLPZ5LzElPftDIMO0pRyd9TNmtT8IjSOm+xxJ2unZ7E+dImgU7JvzVWYu49oMSPxjfCukv6QLU9omNZbQ6SKqEUKowCgFiGUkEtePhGXt/pZZrTKsDuz+U2ebJab2DQqCpm0bI1KK1BxjCTRo2Xb207LY9oyrOlhksbQZXWuVWqh36pAi0oKXbxGANd8BtS2WOw7Rl2SXYZJ8oaW01yASvWuUUS1IIVQReKigxPONP6XdI7PaNpyLVKLGVL8nvEqVb+znM7UU4nskRfSvpJZ5+05FrlsxlS/J7xKsrf2c1nainE4ERaQkf0s2OsrayyrNZlmg9VNFmui44Nb60OCr2SccBU6Ckb5snZsy0M8m3bOscqUZfYCMrTFNQADdxGBJvClCBvjT5vTmzrtcWxQzyWs4ksbhDr2qlgrUrQgdxNNxydl9J9k2W2zLTLa0zGtF8zJjr2ZSs18qi3QzVYKMa0CjHeNMTweh+0mlzmsMuxSLS7WiYFeaBVVWiEkhTRAEvHmeEe706WzWi22bZsiXLRhOTr5iIq0LAgoKDEhSzY1AJUb4w+g/SXZ1l8pmTWmLPnTZl11llisom8l3AhTUkkEHELXKPD2xatn2dpVo2fNtL2hJ6zG68G6QLzElroJJa7XHEMYnuRu209sWOyW2Xs1dnyGkkypbuyqWrOoAcVN6gdSSTU1MYmz+jkiz7eEgIrSJkhpyy2AdVJDCgDVwBVqcKboTP6T7FtE+XtCetoS0IFJlBSysyYoSQKNQgUN5chUR5ey+m6TNr+XTwyShLaWigFmVLpuggZkksToK7hBBGz7H2pYztB9mJYJAlXpq3yoZmdFLOWDL9HssBjhQco5l0msSyLXaJKfQSa6oNyVqorrQECvCPZ2P0hkS9sPbWLCSZtocEIS12YjhDczzYR43SW2pPtlonSySkyYzqSCpukDMHIxpYI84YDn6oGITWJGkZZYi4qLBhIKJAwwORlmfV8+yJsijJmf5M3/Tb3Qt5LnAo6L9ZmQgBdcTrDSTvPjFK5U3s94rmpwI8Iw1UKga7UFMssNwAoq9w9JMKg3HGtKY71P0G9h4iFkwrYKtyVhFpwYNvz5/Pth8Yloa810ZDPnr7omKGtlHYelX+A2d+xX+FLjj1KCOwdKz/AHDZv7Ff4UuO/wBP61P7wGjc1IGNg6JW27O6h+1Kn/2brpVhRGG4g0FePCNdBj2uidkMy1S9FRhNZtFVO1UnmAO+PXvqnw3PI+h7Hq7Ds5rbLE2NVcru6yS3ZYbq4eAjWVpG0bCtQa0Wy1/USXOfzybg5kAx5fRWyrMtCJMW8t1iy1IrdRiMsc6Rwt1adTfJN94BM85YMR6FutstluixiSxoQ19yQARWgbA7u+PQ2E0lxR7KlyWoM2ezuKDfdGBY6KM47O8qaNbpfx/sZweDxjatsWctPs9jU0VFRT+Zu07c6YxrVvmozs0pbiE9la1oKUz4598bRtW1BLdItP1HWW97S6VuN4DHvjleculpcG13hEzzukVuvziq4S5VZaKMgFwJ5kjwpHmAxl7dshlT5inIsXU71YllI8adxjBBj6bCpVunTtBqnY9u0H/s1u5j+VHIRHXZ36mt35h/KjkQjxL/AKtXc+a5+RcUDFwMczBbwUuS71uI70zuqWpzoMICukdP/QqxHlpXMJJI5/21MIJgWcwmy2Q0dWUnIMpUnkDAR2vZ9stFrsFqO1rOstUQsjMhltUIxLBWJIKkLRhSpNI0Doj0PW0yJlqtM/yezS8GegLMwALXa4AC8BWhqTQCBVFBqUQbvCNz6Q9DZSWXy6xWg2mzg0e8t11xC1yGRIqCoIrWMXbvRVLPYLLbVmMzTygZCFCrflu/ZIxzWmO+KUwNTMMVA63agMMqmmHfu9vCNp2r0Tlytn2W29cwa0PLRwygogdHZmF0XjS5lzjc9rdGdlpYLJ1s8S1PbS0rIq89nQvVhdLAUaoVsqAaQNikch/6c32l85ffBXLi0qCxzoQaDu3+/fG5dG+jKTbK9utk5bPZlN2olIzuwIU3eycLxu5Ekg5UrGN0q6KS5Vnl26xzuvs0whWJS4ytUgEqABQlSpwFDTfBxyJqUGcMPGBXfErGjOwUWIGLjRBRYiokRBrEJiq6RIEQcVWJAu1BUxEUky7XW6K03oxAZa6YkEcecALZL/y3/wBQfBAGuRzNGb/avcMeZ4Q1ZWlIwlORfIW1tH1UYHQlgaHfQIIqRJoAd/yRD6Dd74OUtapvOH5v65eG6NRGQmcCmjrnS0/3DZv7Ff4UuOSMI610v/wGzf2K/wAKXHb6f1qf3gao3NQBjZy3k+z1u4Pa2a8dRJQ0ujgSfBjGqgxtO2avY7FPXFZYaS34WVgVruqFPiI9X6jOlPaf8OPk7sZtk+TWZLGP/ke7OnncTiid1K9w3x5ex0nl62e9fVSeyReC5GleYyj2ekez2tTeWWYGajqt9FxeU6qAVZBictPVjGr1ZG+sjDmrD2iM2IduManvPPqiWxuM1p/kc/y29mnUdZS/fvG9drjSlK8KxibJl7QlqvUK91yGFFVlaoFCxNQBQDMiNdmT2c1dmY72JY+JhiWlwLqu4G4MQPAGkKsVKlrGXMRj+EUHsdKRLFpcS7tOzeC/RD3Reu8K+msZmz28osrSD/8AJIDTZR1ZPrr6fVujWpSFjdUFjuAJPgI2rYlkayBrVPFwXGSXLbB3ZhQdnMDnBdSptqmfuURzbF4QqdM6+xBzi9nZUJ1MpqBa8jh3HfHhgx7WzluWCezZTXly0/EVarEcAK+aY8MGOn02NSWyf/fkaT3pv6mt35h/KjkQjrsz9TW78w/lRyIR5F/1au5wufkSKi4qOZzLG+OnfoXYgW4jMJKIPEddSOYMYiTGGTEVzoSK86RmJRHUdj299tbPmWWa/wDe5VJqNW4s0DFSyrRaVJU4YVVs4HoxZvKtk2jZissu1JMJ6tzdJpNWZiM81ZTuIFY5lJYjtAkU3GlSchhyr3QrrGvXrxvVreqb1d9c6wRyNHVbTYzszY0+z2hk6+0u4SWrXvphEw3hVUsTlUgZmHT9jPtHYtiSysjNKKXlY3aFEeW61pgQWBxzGO6ORzJjMbzMzH7TEsfE4xJc11rcdlrndYrXnQ4xQEnU/wBIVlErYtjkh1cy56S2ZTeW+kq0K4B4MGHdGZtTYM3aGydnrZTLYy0l3rzXQLsrq2FaHEMCCI49VqUxu6CppXgMobZp7KrJfZFbOjECvEVAPurFBbnXuge0HmbLNmspkNapDv8A2c3FGVprPWmBoQxAO9caR43Ti0bUWxXLbLssuU8xVCSwb5ZauCKMVC1TGObpJRSCs4qwyIWhHIh8IO0zi1AXZzqzMWJ8SacuHGCMiIEFFXTuiCNmA4JccPD3QsQQMQphCLgn+1vz4HX3/wDEBEhYZ3xQiIfCIREHUQZp+0PNaK6wkitCBjShxOleEHSCAgiRT6FSRTE441POGohr35xElkxWR5RoGxl4V474CkWKZ+j+sVESQ20Cq39+Dfm394x5gx1Ppj/gNm/sV/hS45XLcCoP0WFDw3HuNDHVOmopYdmg6SgP/wApcbsYvUo3TuaWDHtbB211F+XMTrZEzCZLPoZToww8BlQEeGDBAx7ddCrUVHc3Ky7HvN1mzrWCc+rZ+rnKPskZOOdBzjItO1NoyhS12ZZya9ZKVhT8yYDmY0cR61g29aZJHVz3A+yTfXldaoj56rFXR91n3QQeuqWC0/QJskw5BmvyWPBjivoHAwR8gs+Bra5gzobskHgRi3pB4QIt9ktfZnotnnHKeg/s2P8A5E05+kQR2lZbL2bMgnzRnaJgqoP/AI09vpMcvu/H7u398gM+zbR2jNFLNIElNLkpUWn5pmB5iEztlqjdZb7SC3+WrGZNYbifqj5qI8K2bbtE41mTnPANdXzFoPRGEsdaPp6ui7LPuzSR7G2NrGeVVVCSkF2XLGSjed7H544AMJBggY+uiiminTTsKwbE36lt35h/KjkYjrZ/Utu/MP5UckEeFf8AVq7nz1/kQwQwFd+XtPsilWp9fKKZq+zlHIwCYgFcBicgIhhkvsqX1NVTn9Zu4GnM8ImKBnGnZGQ13tqeWnIQkmLAgpkvA4xA2dNnbD2PZbJY5ttlzb9oko5uu5q1yW0zshgAKuMo1NxstrcBWcliIGIqXBu1N69ea6WrljiI2XZv6S54eRZplilNduSSlGEzG6nZU1ukgDs0jA/StseTZ7apkIFDyhOdFXsqQ5UtQYIrUFdK13xldRPZ2N0f2NtHrZNlS0SZktLyzGZiCCaBrrOwIrSoIU+zlUwY0wJyJGIJ4HUR2XodtqTtFbRY5Vl8hBl3mmWYoAQSFuswQUPaJA1AbKOQWqQJc50JBuO6EjAEoxWo4Gle+JMmK8lPCKTA/OcZdYxGILGn/JEaAKWuOOA1iAA5VikbHHKICOMREEEIEQ1UqIgCksMQcm13HQ93qJgWUgkHAjAjcYEiHP2lvarRW4jJW/2nku+LY1uLhgUtlmPV8+yFxYiaAAQ2UBXGFiChIcz0NBCyaxUQRAWIKBgohKfKOq9ND/cNm/sV/hS45S0dhtjWC1WOxy5m0JElpUlAyl0JvGWgIILChBWNW61RcpqeyNUuGc9BgwY2w9HNmj/7eRvGKfHFjo9s373keKfHHqedtc/hnXUjVAYMGNqXo9s3IbXkE80+OINg7N+95Hinxxeds8/hjqpNYBgwY2eX0f2cSFG1pBJNAKpifPgpmwNnIxVtqyAwwIJSoPHtxeds8/hlqpNYBgwY2P8A6Ns372kecnxwQ2Ps372kecnxw+es8/hlqpNcBgwY2AbJ2b97SPOT44sbK2b97Wfzk+OLz1nn8MddJdf+y2/8w/lRyWOubZtVik7LtUiVbZM95lGVVdLxNUFAoY1wWscllqMzkMT7B3++PKuVqquqpbNnCtzVgjYCmpxPLQe3whZgmapqYAxlGQ5UsswUYV1OQAxJPAAE90S0TAx7OCgXVBzCjKvEkkniTBE3U/E4x4JXDziK8gN8IMZ3J4HBxT2Qh2JFDEpBykrWsIG9Sf0rW4KF6uzM4AUOZb3t2NHpXlTlGDYek1pl2prYXV5zqUYutUum6boUEXVF0UA47zGsMuozGIhyWhd8SSGWbZtb9J1uKtLRZEkMPpy0YPxoWYgHjSsaCBU88/bHpy2D4kVGlYlpkgrVQKjcMxqItJSYtwcfOMYzLQ03Q3rRvjNssoUqwFTvGQ0iSIwrOhdgNNeUZz2RN3pPvi5hCdoAcaboF7Su+HAGAwoabsIJZhEPVdTmYVOWlKcoiGBxT2RUiZdNSKjJhvU5jnu4gQmkFAKY2dLusRWuRB+0pFVPeICGIbyXfrJUrxTNh3Grci0KiTFhLtFiaMFpr2QPZFkUNO8cRpGP1cOlKWwGJHt0g2LcICLh3kj/AGG81vdCmUrgQRzwhkC4kSLhIkBdhgUnSKiIJEBF3UYr7R7e7jAlQNK666xYMMcjOmfo3iCIHcX1eoB3jhDHlq2N5VJzBrgdchlr3xTY0oMKeEC/ppjC0El+Tr9tP3vhieTL9uX+/wDDARIIIPyZfty/3/giGzL9tP3/AIYXBrIY5KTyBPqEUEUbOv20/e+GKMgfbT974YtrO4+o3mt7oSWxocDugIPqR9tf3vhiTGAAUGupO8/0y8YkuUWyinlFWFctOcMFIN0xcpATU/RAq3LcOJNB3wwGAOK0XKtSd5yHcB6zExQDsXYnU7vUOAiPJYCtMO6G2daMa50w9sZhbDHKFIzJhIKCKfA1zroPXFANkKEaGunhEStTXP2REU7nAUIqaVMNFIp6EYxaSH/D4n1UiIFXukihIOOGhi5k4mgoRXOsCgIrXOuPsi5mI9XOIgoqXOIqKEgZUgO1uXxPugpWXHXnEJGmXiBQgZ467oIwEwE0pnXCGNJcaL4n3RAJRziKE0OcWhqcqU3+uCTAUinrUUzgEJhXCFJJYioGHdpBMG1AA1Nch4RnqQAAMqYQoDzlYqwORBrF2haYrk2I4bx3HDwOsMtK1YUz15RcpRSjAkZ4Zg5a6EeoRl9BT4MQzLoQTkAMyTlBObqUGbVFeGTnv+iOAMDKtnaFUQclQHxC4c4N0/doOYpVT4Vw4cYy8vIrYwOrG6MiQeyVPNeG8e3u4wdyLu0Bbd69I01BJjEaoh8pAc4w7NXOMgGNIB6mmFKwgw2XMoIWTEBUEp0+awMSJiiViRIORKvMBWmpO4Y1NNaUJpEQEVDj1f4/BffFG5+P92KRgCWtT8+PIZwx3qcKgDAcvfme+JQAdnIqGFc7v1q8aj0QqMrIPBd6FWoVAbUYHiND7PCGQBOBrlQ15RMUOsji6PTz1g7SwK0OenDjCNn2RmFQCcsAQN9K1MZEzZsytbpy1ZT7YtSQaWYhQkEXsabqe2LlkUFIqdVTQ4fPCHy7OCLxrjjgYVkmJc4ihoRFuWKkXvAUr6YlplBGqMj6/n1QIeJkEjYYZRT4nA0PjD5dlWlTXHGgOGMInywjUGRxHt+eMIFMuRJqAakUphGcrxgX6QaSqanxgTFhWjFuyaHI68vbCZikUJNRBJhUd/j8+iLmNpvwiAGsVLUmpBp6Yvycbz4wUtvq7sIhCkYNVjXQcIy2eMF8aDf7IN5VdT4wyAN2tSDQE4YV74i4HE19ECH90FKS+1DkMT7IBCZt8DLLBc6cKVoNNYe9kG88icIxy1YmRaHE1NSdYImBs0q+3Ad2Jh72Rd58TDkD/9k=;" parent="1" vertex="1">
          <mxGeometry x="662" y="60.59" width="233" height="116.5" as="geometry" />
        </mxCell>
        <mxCell id="IxSBL8WH6zTKbicjn3LH-4" value="" style="endArrow=classic;html=1;rounded=0;entryX=0.386;entryY=-0.055;entryDx=0;entryDy=0;entryPerimeter=0;" parent="1" target="IxSBL8WH6zTKbicjn3LH-6" edge="1">
          <mxGeometry width="50" height="50" relative="1" as="geometry">
            <mxPoint x="779" y="160" as="sourcePoint" />
            <mxPoint x="440.25" y="260.01" as="targetPoint" />
          </mxGeometry>
        </mxCell>
        <mxCell id="IxSBL8WH6zTKbicjn3LH-6" value="" style="shape=image;imageAspect=0;aspect=fixed;verticalLabelPosition=bottom;verticalAlign=top;image=data:image/png,iVBORw0KGgoAAAANSUhEUgAAAOEAAADhCAMAAAAJbSJIAAAAyVBMVEX///8gwu8No8Y5TVQOrNEMlrdj1fQfxfM7REg7QkUJmbs6SlAgO0Q6RUjt7u/o6uomQEgit+EpnsAxfZQmqc4sk7ErmLgqa30mc4gyYG4je5Qui6hl2/s6SE02QEQwRk40x/BX0fPKztA4UlvAxcezubtKzfI0WWQvhJ5PYGbV2NmnrrGMlZl5hIhndHkwxvAzcISbo6Zbwd1Cc4JfzOpLkKRZaG1Qn7WssrVavdhzf4NJiZtGWF5Wr8g2VF5Eeoo7OjlEbHgwX22MRMweAAAL3UlEQVR4nO2da1ubShSFG0CHhKCJJs3NSWqjReOlai/ao6bq//9Rh2uA2cNlYIAZnq6P54k9vBL2XmsPznz69E//9E9RbW4uL282TV9Fddr87q9UddX//bXpK6lGX10+R6v+5VnTV8NfZ5cBn6vWMZ69DFRCA/W86avip3PI5zE+NX1lfPS0ovK5jIOrpq+uvK7URD6XcXXf9BWW0sH9gOAzlksj/l9W/fuDpq+zqA6uByuS78efhx+AcXAtJePBdR/w/X042d8/efgL7+P1YdPXy6rDG5IPe3yOTn7+XWKS8UYqRhrfc8DnMT5Dxv+kMaybW8CHn396fN86nW8BIwaMt1IwUviWET5HAeMvEzIKb8pDe73jM37tx/gijPu/VJNkvBSaEfKZNL4o46P9kfiPCGzKz14IPkNfP/p8XzpAX059xrVOMr4IacrPX/pqAt8phS/GuF3Gf1TE4PEE7Ody+3qSeP8IxpNXizQBggUPYK+NpeXzJd2/HIwrYYLHPRmPjOUsJ5+j7wHjDDKKEDxo8eH91ft6nn7P5gsZ90/+vItnymnx4f0PG5/IjIeU+PDjD7X9ZctnpISrxoIHtNfGLj6csvI58k3AgyDBIy0eMd8/glGE4LH5L9Nel2SkmPIaGTPiUTntgkdz4YoaH3jxRRj3fxmAsY4Vj5zxiA8jCB7Vr3gQqw+2dPWRN5+jLwEjJXhUyHgG44OaEo94MYLgUVW4Oof2evuYHR9KMKaY8goYQTzKHx8qYVQ5B4+rcvGhuHbBAxjWwYBj8KDEo/eAj8Fel2GkmXI7XHEx5XY84hIfODBWsuJBX13x20MtfK6C4EFb8SjFSItHpeJDcVUSPKjxgac9K8RIWw0oxnhYVXzgwMgjXFUaH0oz0kw5W/Cg8XGND5Uw5g8elNUHlXt8KM/4qOogeORi3JB8hllNfCiuiCkHqzrZ39WvgC9r9aEJBYYVrnj0s7LVQdyfVR0fisu/j9CU9zMcwPUqxld9fCiuhOCxukknjPHVEx+K6ws1eKzyfkmN+uJDcYWmPERM/5pGH0OvwIjM58hltG/jOiRMtXBRQqw+nojO5+j76clrtKTmJ1RVff0ZoaYBsoSQYsVaRk5Cy/NEpqWIzYjQaOZZm6XFRGgoi63LaHRnI4EZ0XDS9fjWjycGG6GiXKx9xokmKCIa3nn3DxtOWWQmVJS54TPeDQVkRJ1j3b0+bHq5oAChokwN73fUPRaNEXUuTJ/v2fPN33ARQpvR/x7gi45AjAgt/O9XMFex+1pBQqU38RnNhSiMCH323vgzlj9+hr6rKKEy2vMZTXUsQllF6Gire3zvD9HcU5hQUbQ9v+eY66OmGe0GaPkN0J9L73JBCUJbY0v3LUCj7THS4LevZG4tR6hoIlgAuwEGDd4PPtG5SknCiAXQJ820DjQMCrv6CPl4ENqManMWwG7wfgPE/uCPnIvxIFSUY68N1W4BUGcR8D3T+XgR2hbArN8CIDT2vz3BwgItuPIiVJQJ9hlrsgCRBv83mY8n4c7mmGoNCdlu8JZJa/BVEjoWwPuu6lVbANjgkwe3PAmV0ALoVVoAhLRdggcNvmpCZbTw3WF1FiC9wVdOqESnAFW0jqwG3yHrXAWEijIPLMCUN2N2g0edUQ2Eu0mHbQF4to4wwQcN/pT8BDpavx3F/pcVEVZhAXI0eDdjmJ/rIYxYgDEPxhwN3ilBWLXqIwwtQPkheWKCj3zEeUTxpDfp1kcYTgH0bSkLkJLgw4+MsWnOxr16Ce326FsAQy/eHvM0eOcWY2vR6+3VTchhCpCnwaOjN7ye23x7DRAq5SxAdoN3PzXWZy5fQ4SRhQBGCxBpgAkNPiDsTmzAnqI0RRi1APkZwwRvJjT4GGFP0bQGCdkXAiINPmiA8FcQEk41R40Ssk0BEkb0sY8Mx0PBCPNPAaIJPrEBLnB3gQQjDKcAqQsBuRr8kWoaWDxCJcdCgDOi76Y3ePdXgLczU0hCZbSw0qYAORq8s0yPjWlvqotJqKQtBOwavJnY4N1lbDzZ64lMmLQQEK7B48ekBm87bGx+jB0HKjThbtIRsQDQwJwCvg5Susb2wnOgghOGFsB0LUBkDT5lRG977O6HxycBoaLc4fBdgHwjeofQdaAOiwSEtgUI2mPOEb1H2PNYZCAMpwDpBiZOGLBIQWhr/OH/3XLaiH7XOGUkVLSF5SAG7xhQEiAaHgcv0UlJaDPaJsf8mZRwnSFa91huQsUlTOBDY8P22O0gPKXxHa11bE1M2QntVqE/UBqgEzOwOu/NdckJNZvQHJJ43pTezhA96Qk1t9IAQnRhuhnCdjCSE2p0QjR6M9wMIT2hlkgYemypCbVUQt9jy0yopRP6HltiQi2dMLhqeQm1dMKZ9IRa2wm1thNqLSfUtJYTjtpOqGktJ9TaTkgCto4QALaNEAK2jJAC2C5CGmCrCKmAbSKkA7aIMAGwNYRJfK0hTAZsCWEKYDsI0wBbQZgK2AbCdMAWEGYAyk+YBSg9YSag7ITZgJIT5gCUmzAPoNSEuQAlJszHJzFhXkBpCXMDykqYH1BSQgZAOQlZAKUkZAKUkZANUEJCRkD5CFkBpSNkBpSMkJ1PMsJRIkZLCIvwSUVYDFAiwoKA8hAWBeRLqFdHWBiQI+H4w6juHhYH5EaoTHTnzxlj4kdYApAX4RxjuP8mN8IygFwIhwtVd/48nPhXEBvhbK8SQA6E+uRDp2xjgIZ3TDuWq4Y5qQKQAyE2KPtuo85xN/j7zYyDZsJjZgxjzp2Py7dUB9vCOFtH4d2FD1IBP91GTtLB6wstDljIinIl7AwX5DkGzu5gZnjVq9t0wk3stFhsjUc87yAHwg54AEez2Nld/axzu65jiIY56/EE5EBI/GywucYOMOMwJFv38UO7DH3KEZAzIepcdHH0alf9PMevbn7HzzU21Dk3wIKEEyqh82e1MT61/zvnEYFfX+Jnk+H1gg9fIUJtYeHuGBAipHjbD4ZFlOU866dV/Hw5+3FsitB2oCaGtxAN4wVGXQ0Yz0C+Jh/HSTOVZqrTtkZFw+N4gSlypuwBcQ6pgY/rJ7wwdMou/rvt3cIH8L9CZ61uLuMlB6sXtRKalqU7W02DB9DfHSXky3GuY4LOiOPG9e24TkKDcmiYszdWnG+gljpo/Yo40lKf1Zee3nS4od3uCKvwASx9ADlZcrqlSk5+wk7nM+TrcCgwUIe3hAPA83oI4QO4II5z7t8WPrA6LlhyCjsAFkKS72hNPID5DsfNJ7LkmNZezYR2hCD4VqUKDNT9gIsDKEgIIgSHAgN0QJy0bphT7oS9Xrh7S/QDwf5uId8NhwIDRZYcbLA7gFRCbb4O9/GMPICFIwS7YOhgdQBphHsWdvY7JflAgWGJEOw6HxAO4IMtdCQTKjMdwxaPtBnxAA6equRzVK7kJBLaGUIHGYJSYK6r5vtEKTmYoeTQCfW1im1KMAQFBaZYhGAXOedgKDl0QpNyaK0dIeorMFCg5OQNHdRdlLQ3cLKiu71uvMColRYYKHLOoedzOfR9oobwASQjBOuMgocKzTmohJD4WK8gQrDrEMw5sktODsIKIwS72EtOJqG7f3ecr/iMgofI0JFVcjIIKTMK3hGCXVdMLiedEA2Bg+EfIdh1wFJy0gidzT2JAlNNhGAXmHOYiaPVZELKELS5AgO1uSQex6TRahIhHIIOXjjOKHjonHQA9JJDJ4QFZtV8gYG6J0vO7Cgnoe1gyFUWEQoMFJxz3OXZY8jZY1/QAgO1yRytAkK7wJAOps4Iwa6sxVWCkDKjqDtCsIssOfHRapyQEpEqn1HwEPmugxlxAFFCNLwjH0AxCwwUKDn6FBJSVlnELTBQiaEjIKx1CFqNzuglxyMkXtRSKx+CViPwPofV8wl3xxzuvqCrBmYUPEQJHfadw9q0iSFoNYKjVfcLy+U9ClFElhyghmcUPESWnHiBEd/B5NETETrCB1DQCFFARMmRv8BAkaNVVbAZBQ8R73NwfY9CFEVGqyVf1BJX/itk8kQIdh3cr/r9VTOrLLXpsPb68j9kmcfHWbANEQAAAABJRU5ErkJggg==;" parent="1" vertex="1">
          <mxGeometry x="758" y="340" width="55" height="55" as="geometry" />
        </mxCell>
        <mxCell id="IxSBL8WH6zTKbicjn3LH-7" value="&lt;b&gt;&lt;font style=&quot;font-size: 18px;&quot;&gt;NGINX&lt;/font&gt;&lt;/b&gt;" style="text;html=1;strokeColor=none;fillColor=none;align=center;verticalAlign=middle;whiteSpace=wrap;rounded=0;" parent="1" vertex="1">
          <mxGeometry x="753" y="400" width="57" height="30" as="geometry" />
        </mxCell>
        <mxCell id="IxSBL8WH6zTKbicjn3LH-12" value="" style="shape=image;imageAspect=0;aspect=fixed;verticalLabelPosition=bottom;verticalAlign=top;image=data:image/png,iVBORw0KGgoAAAANSUhEUgAAAOEAAADhCAMAAAAJbSJIAAAAyVBMVEX///8gwu8No8Y5TVQOrNEMlrdj1fQfxfM7REg7QkUJmbs6SlAgO0Q6RUjt7u/o6uomQEgit+EpnsAxfZQmqc4sk7ErmLgqa30mc4gyYG4je5Qui6hl2/s6SE02QEQwRk40x/BX0fPKztA4UlvAxcezubtKzfI0WWQvhJ5PYGbV2NmnrrGMlZl5hIhndHkwxvAzcISbo6Zbwd1Cc4JfzOpLkKRZaG1Qn7WssrVavdhzf4NJiZtGWF5Wr8g2VF5Eeoo7OjlEbHgwX22MRMweAAAL3UlEQVR4nO2da1ubShSFG0CHhKCJJs3NSWqjReOlai/ao6bq//9Rh2uA2cNlYIAZnq6P54k9vBL2XmsPznz69E//9E9RbW4uL282TV9Fddr87q9UddX//bXpK6lGX10+R6v+5VnTV8NfZ5cBn6vWMZ69DFRCA/W86avip3PI5zE+NX1lfPS0ovK5jIOrpq+uvK7URD6XcXXf9BWW0sH9gOAzlksj/l9W/fuDpq+zqA6uByuS78efhx+AcXAtJePBdR/w/X042d8/efgL7+P1YdPXy6rDG5IPe3yOTn7+XWKS8UYqRhrfc8DnMT5Dxv+kMaybW8CHn396fN86nW8BIwaMt1IwUviWET5HAeMvEzIKb8pDe73jM37tx/gijPu/VJNkvBSaEfKZNL4o46P9kfiPCGzKz14IPkNfP/p8XzpAX059xrVOMr4IacrPX/pqAt8phS/GuF3Gf1TE4PEE7Ody+3qSeP8IxpNXizQBggUPYK+NpeXzJd2/HIwrYYLHPRmPjOUsJ5+j7wHjDDKKEDxo8eH91ft6nn7P5gsZ90/+vItnymnx4f0PG5/IjIeU+PDjD7X9ZctnpISrxoIHtNfGLj6csvI58k3AgyDBIy0eMd8/glGE4LH5L9Nel2SkmPIaGTPiUTntgkdz4YoaH3jxRRj3fxmAsY4Vj5zxiA8jCB7Vr3gQqw+2dPWRN5+jLwEjJXhUyHgG44OaEo94MYLgUVW4Oof2evuYHR9KMKaY8goYQTzKHx8qYVQ5B4+rcvGhuHbBAxjWwYBj8KDEo/eAj8Fel2GkmXI7XHEx5XY84hIfODBWsuJBX13x20MtfK6C4EFb8SjFSItHpeJDcVUSPKjxgac9K8RIWw0oxnhYVXzgwMgjXFUaH0oz0kw5W/Cg8XGND5Uw5g8elNUHlXt8KM/4qOogeORi3JB8hllNfCiuiCkHqzrZ39WvgC9r9aEJBYYVrnj0s7LVQdyfVR0fisu/j9CU9zMcwPUqxld9fCiuhOCxukknjPHVEx+K6ws1eKzyfkmN+uJDcYWmPERM/5pGH0OvwIjM58hltG/jOiRMtXBRQqw+nojO5+j76clrtKTmJ1RVff0ZoaYBsoSQYsVaRk5Cy/NEpqWIzYjQaOZZm6XFRGgoi63LaHRnI4EZ0XDS9fjWjycGG6GiXKx9xokmKCIa3nn3DxtOWWQmVJS54TPeDQVkRJ1j3b0+bHq5oAChokwN73fUPRaNEXUuTJ/v2fPN33ARQpvR/x7gi45AjAgt/O9XMFex+1pBQqU38RnNhSiMCH323vgzlj9+hr6rKKEy2vMZTXUsQllF6Gire3zvD9HcU5hQUbQ9v+eY66OmGe0GaPkN0J9L73JBCUJbY0v3LUCj7THS4LevZG4tR6hoIlgAuwEGDd4PPtG5SknCiAXQJ820DjQMCrv6CPl4ENqManMWwG7wfgPE/uCPnIvxIFSUY68N1W4BUGcR8D3T+XgR2hbArN8CIDT2vz3BwgItuPIiVJQJ9hlrsgCRBv83mY8n4c7mmGoNCdlu8JZJa/BVEjoWwPuu6lVbANjgkwe3PAmV0ALoVVoAhLRdggcNvmpCZbTw3WF1FiC9wVdOqESnAFW0jqwG3yHrXAWEijIPLMCUN2N2g0edUQ2Eu0mHbQF4to4wwQcN/pT8BDpavx3F/pcVEVZhAXI0eDdjmJ/rIYxYgDEPxhwN3ilBWLXqIwwtQPkheWKCj3zEeUTxpDfp1kcYTgH0bSkLkJLgw4+MsWnOxr16Ce326FsAQy/eHvM0eOcWY2vR6+3VTchhCpCnwaOjN7ye23x7DRAq5SxAdoN3PzXWZy5fQ4SRhQBGCxBpgAkNPiDsTmzAnqI0RRi1APkZwwRvJjT4GGFP0bQGCdkXAiINPmiA8FcQEk41R40Ssk0BEkb0sY8Mx0PBCPNPAaIJPrEBLnB3gQQjDKcAqQsBuRr8kWoaWDxCJcdCgDOi76Y3ePdXgLczU0hCZbSw0qYAORq8s0yPjWlvqotJqKQtBOwavJnY4N1lbDzZ64lMmLQQEK7B48ekBm87bGx+jB0HKjThbtIRsQDQwJwCvg5Susb2wnOgghOGFsB0LUBkDT5lRG977O6HxycBoaLc4fBdgHwjeofQdaAOiwSEtgUI2mPOEb1H2PNYZCAMpwDpBiZOGLBIQWhr/OH/3XLaiH7XOGUkVLSF5SAG7xhQEiAaHgcv0UlJaDPaJsf8mZRwnSFa91huQsUlTOBDY8P22O0gPKXxHa11bE1M2QntVqE/UBqgEzOwOu/NdckJNZvQHJJ43pTezhA96Qk1t9IAQnRhuhnCdjCSE2p0QjR6M9wMIT2hlkgYemypCbVUQt9jy0yopRP6HltiQi2dMLhqeQm1dMKZ9IRa2wm1thNqLSfUtJYTjtpOqGktJ9TaTkgCto4QALaNEAK2jJAC2C5CGmCrCKmAbSKkA7aIMAGwNYRJfK0hTAZsCWEKYDsI0wBbQZgK2AbCdMAWEGYAyk+YBSg9YSag7ITZgJIT5gCUmzAPoNSEuQAlJszHJzFhXkBpCXMDykqYH1BSQgZAOQlZAKUkZAKUkZANUEJCRkD5CFkBpSNkBpSMkJ1PMsJRIkZLCIvwSUVYDFAiwoKA8hAWBeRLqFdHWBiQI+H4w6juHhYH5EaoTHTnzxlj4kdYApAX4RxjuP8mN8IygFwIhwtVd/48nPhXEBvhbK8SQA6E+uRDp2xjgIZ3TDuWq4Y5qQKQAyE2KPtuo85xN/j7zYyDZsJjZgxjzp2Py7dUB9vCOFtH4d2FD1IBP91GTtLB6wstDljIinIl7AwX5DkGzu5gZnjVq9t0wk3stFhsjUc87yAHwg54AEez2Nld/axzu65jiIY56/EE5EBI/GywucYOMOMwJFv38UO7DH3KEZAzIepcdHH0alf9PMevbn7HzzU21Dk3wIKEEyqh82e1MT61/zvnEYFfX+Jnk+H1gg9fIUJtYeHuGBAipHjbD4ZFlOU866dV/Hw5+3FsitB2oCaGtxAN4wVGXQ0Yz0C+Jh/HSTOVZqrTtkZFw+N4gSlypuwBcQ6pgY/rJ7wwdMou/rvt3cIH8L9CZ61uLuMlB6sXtRKalqU7W02DB9DfHSXky3GuY4LOiOPG9e24TkKDcmiYszdWnG+gljpo/Yo40lKf1Zee3nS4od3uCKvwASx9ADlZcrqlSk5+wk7nM+TrcCgwUIe3hAPA83oI4QO4II5z7t8WPrA6LlhyCjsAFkKS72hNPID5DsfNJ7LkmNZezYR2hCD4VqUKDNT9gIsDKEgIIgSHAgN0QJy0bphT7oS9Xrh7S/QDwf5uId8NhwIDRZYcbLA7gFRCbb4O9/GMPICFIwS7YOhgdQBphHsWdvY7JflAgWGJEOw6HxAO4IMtdCQTKjMdwxaPtBnxAA6equRzVK7kJBLaGUIHGYJSYK6r5vtEKTmYoeTQCfW1im1KMAQFBaZYhGAXOedgKDl0QpNyaK0dIeorMFCg5OQNHdRdlLQ3cLKiu71uvMColRYYKHLOoedzOfR9oobwASQjBOuMgocKzTmohJD4WK8gQrDrEMw5sktODsIKIwS72EtOJqG7f3ecr/iMgofI0JFVcjIIKTMK3hGCXVdMLiedEA2Bg+EfIdh1wFJy0gidzT2JAlNNhGAXmHOYiaPVZELKELS5AgO1uSQex6TRahIhHIIOXjjOKHjonHQA9JJDJ4QFZtV8gYG6J0vO7Cgnoe1gyFUWEQoMFJxz3OXZY8jZY1/QAgO1yRytAkK7wJAOps4Iwa6sxVWCkDKjqDtCsIssOfHRapyQEpEqn1HwEPmugxlxAFFCNLwjH0AxCwwUKDn6FBJSVlnELTBQiaEjIKx1CFqNzuglxyMkXtRSKx+CViPwPofV8wl3xxzuvqCrBmYUPEQJHfadw9q0iSFoNYKjVfcLy+U9ClFElhyghmcUPESWnHiBEd/B5NETETrCB1DQCFFARMmRv8BAkaNVVbAZBQ8R73NwfY9CFEVGqyVf1BJX/itk8kQIdh3cr/r9VTOrLLXpsPb68j9kmcfHWbANEQAAAABJRU5ErkJggg==;" parent="1" vertex="1">
          <mxGeometry x="703" y="500" width="55" height="55" as="geometry" />
        </mxCell>
        <mxCell id="IxSBL8WH6zTKbicjn3LH-13" value="" style="shape=image;imageAspect=0;aspect=fixed;verticalLabelPosition=bottom;verticalAlign=top;image=data:image/png,iVBORw0KGgoAAAANSUhEUgAAAOEAAADhCAMAAAAJbSJIAAAAyVBMVEX///8gwu8No8Y5TVQOrNEMlrdj1fQfxfM7REg7QkUJmbs6SlAgO0Q6RUjt7u/o6uomQEgit+EpnsAxfZQmqc4sk7ErmLgqa30mc4gyYG4je5Qui6hl2/s6SE02QEQwRk40x/BX0fPKztA4UlvAxcezubtKzfI0WWQvhJ5PYGbV2NmnrrGMlZl5hIhndHkwxvAzcISbo6Zbwd1Cc4JfzOpLkKRZaG1Qn7WssrVavdhzf4NJiZtGWF5Wr8g2VF5Eeoo7OjlEbHgwX22MRMweAAAL3UlEQVR4nO2da1ubShSFG0CHhKCJJs3NSWqjReOlai/ao6bq//9Rh2uA2cNlYIAZnq6P54k9vBL2XmsPznz69E//9E9RbW4uL282TV9Fddr87q9UddX//bXpK6lGX10+R6v+5VnTV8NfZ5cBn6vWMZ69DFRCA/W86avip3PI5zE+NX1lfPS0ovK5jIOrpq+uvK7URD6XcXXf9BWW0sH9gOAzlksj/l9W/fuDpq+zqA6uByuS78efhx+AcXAtJePBdR/w/X042d8/efgL7+P1YdPXy6rDG5IPe3yOTn7+XWKS8UYqRhrfc8DnMT5Dxv+kMaybW8CHn396fN86nW8BIwaMt1IwUviWET5HAeMvEzIKb8pDe73jM37tx/gijPu/VJNkvBSaEfKZNL4o46P9kfiPCGzKz14IPkNfP/p8XzpAX059xrVOMr4IacrPX/pqAt8phS/GuF3Gf1TE4PEE7Ody+3qSeP8IxpNXizQBggUPYK+NpeXzJd2/HIwrYYLHPRmPjOUsJ5+j7wHjDDKKEDxo8eH91ft6nn7P5gsZ90/+vItnymnx4f0PG5/IjIeU+PDjD7X9ZctnpISrxoIHtNfGLj6csvI58k3AgyDBIy0eMd8/glGE4LH5L9Nel2SkmPIaGTPiUTntgkdz4YoaH3jxRRj3fxmAsY4Vj5zxiA8jCB7Vr3gQqw+2dPWRN5+jLwEjJXhUyHgG44OaEo94MYLgUVW4Oof2evuYHR9KMKaY8goYQTzKHx8qYVQ5B4+rcvGhuHbBAxjWwYBj8KDEo/eAj8Fel2GkmXI7XHEx5XY84hIfODBWsuJBX13x20MtfK6C4EFb8SjFSItHpeJDcVUSPKjxgac9K8RIWw0oxnhYVXzgwMgjXFUaH0oz0kw5W/Cg8XGND5Uw5g8elNUHlXt8KM/4qOogeORi3JB8hllNfCiuiCkHqzrZ39WvgC9r9aEJBYYVrnj0s7LVQdyfVR0fisu/j9CU9zMcwPUqxld9fCiuhOCxukknjPHVEx+K6ws1eKzyfkmN+uJDcYWmPERM/5pGH0OvwIjM58hltG/jOiRMtXBRQqw+nojO5+j76clrtKTmJ1RVff0ZoaYBsoSQYsVaRk5Cy/NEpqWIzYjQaOZZm6XFRGgoi63LaHRnI4EZ0XDS9fjWjycGG6GiXKx9xokmKCIa3nn3DxtOWWQmVJS54TPeDQVkRJ1j3b0+bHq5oAChokwN73fUPRaNEXUuTJ/v2fPN33ARQpvR/x7gi45AjAgt/O9XMFex+1pBQqU38RnNhSiMCH323vgzlj9+hr6rKKEy2vMZTXUsQllF6Gire3zvD9HcU5hQUbQ9v+eY66OmGe0GaPkN0J9L73JBCUJbY0v3LUCj7THS4LevZG4tR6hoIlgAuwEGDd4PPtG5SknCiAXQJ820DjQMCrv6CPl4ENqManMWwG7wfgPE/uCPnIvxIFSUY68N1W4BUGcR8D3T+XgR2hbArN8CIDT2vz3BwgItuPIiVJQJ9hlrsgCRBv83mY8n4c7mmGoNCdlu8JZJa/BVEjoWwPuu6lVbANjgkwe3PAmV0ALoVVoAhLRdggcNvmpCZbTw3WF1FiC9wVdOqESnAFW0jqwG3yHrXAWEijIPLMCUN2N2g0edUQ2Eu0mHbQF4to4wwQcN/pT8BDpavx3F/pcVEVZhAXI0eDdjmJ/rIYxYgDEPxhwN3ilBWLXqIwwtQPkheWKCj3zEeUTxpDfp1kcYTgH0bSkLkJLgw4+MsWnOxr16Ce326FsAQy/eHvM0eOcWY2vR6+3VTchhCpCnwaOjN7ye23x7DRAq5SxAdoN3PzXWZy5fQ4SRhQBGCxBpgAkNPiDsTmzAnqI0RRi1APkZwwRvJjT4GGFP0bQGCdkXAiINPmiA8FcQEk41R40Ssk0BEkb0sY8Mx0PBCPNPAaIJPrEBLnB3gQQjDKcAqQsBuRr8kWoaWDxCJcdCgDOi76Y3ePdXgLczU0hCZbSw0qYAORq8s0yPjWlvqotJqKQtBOwavJnY4N1lbDzZ64lMmLQQEK7B48ekBm87bGx+jB0HKjThbtIRsQDQwJwCvg5Susb2wnOgghOGFsB0LUBkDT5lRG977O6HxycBoaLc4fBdgHwjeofQdaAOiwSEtgUI2mPOEb1H2PNYZCAMpwDpBiZOGLBIQWhr/OH/3XLaiH7XOGUkVLSF5SAG7xhQEiAaHgcv0UlJaDPaJsf8mZRwnSFa91huQsUlTOBDY8P22O0gPKXxHa11bE1M2QntVqE/UBqgEzOwOu/NdckJNZvQHJJ43pTezhA96Qk1t9IAQnRhuhnCdjCSE2p0QjR6M9wMIT2hlkgYemypCbVUQt9jy0yopRP6HltiQi2dMLhqeQm1dMKZ9IRa2wm1thNqLSfUtJYTjtpOqGktJ9TaTkgCto4QALaNEAK2jJAC2C5CGmCrCKmAbSKkA7aIMAGwNYRJfK0hTAZsCWEKYDsI0wBbQZgK2AbCdMAWEGYAyk+YBSg9YSag7ITZgJIT5gCUmzAPoNSEuQAlJszHJzFhXkBpCXMDykqYH1BSQgZAOQlZAKUkZAKUkZANUEJCRkD5CFkBpSNkBpSMkJ1PMsJRIkZLCIvwSUVYDFAiwoKA8hAWBeRLqFdHWBiQI+H4w6juHhYH5EaoTHTnzxlj4kdYApAX4RxjuP8mN8IygFwIhwtVd/48nPhXEBvhbK8SQA6E+uRDp2xjgIZ3TDuWq4Y5qQKQAyE2KPtuo85xN/j7zYyDZsJjZgxjzp2Py7dUB9vCOFtH4d2FD1IBP91GTtLB6wstDljIinIl7AwX5DkGzu5gZnjVq9t0wk3stFhsjUc87yAHwg54AEez2Nld/axzu65jiIY56/EE5EBI/GywucYOMOMwJFv38UO7DH3KEZAzIepcdHH0alf9PMevbn7HzzU21Dk3wIKEEyqh82e1MT61/zvnEYFfX+Jnk+H1gg9fIUJtYeHuGBAipHjbD4ZFlOU866dV/Hw5+3FsitB2oCaGtxAN4wVGXQ0Yz0C+Jh/HSTOVZqrTtkZFw+N4gSlypuwBcQ6pgY/rJ7wwdMou/rvt3cIH8L9CZ61uLuMlB6sXtRKalqU7W02DB9DfHSXky3GuY4LOiOPG9e24TkKDcmiYszdWnG+gljpo/Yo40lKf1Zee3nS4od3uCKvwASx9ADlZcrqlSk5+wk7nM+TrcCgwUIe3hAPA83oI4QO4II5z7t8WPrA6LlhyCjsAFkKS72hNPID5DsfNJ7LkmNZezYR2hCD4VqUKDNT9gIsDKEgIIgSHAgN0QJy0bphT7oS9Xrh7S/QDwf5uId8NhwIDRZYcbLA7gFRCbb4O9/GMPICFIwS7YOhgdQBphHsWdvY7JflAgWGJEOw6HxAO4IMtdCQTKjMdwxaPtBnxAA6equRzVK7kJBLaGUIHGYJSYK6r5vtEKTmYoeTQCfW1im1KMAQFBaZYhGAXOedgKDl0QpNyaK0dIeorMFCg5OQNHdRdlLQ3cLKiu71uvMColRYYKHLOoedzOfR9oobwASQjBOuMgocKzTmohJD4WK8gQrDrEMw5sktODsIKIwS72EtOJqG7f3ecr/iMgofI0JFVcjIIKTMK3hGCXVdMLiedEA2Bg+EfIdh1wFJy0gidzT2JAlNNhGAXmHOYiaPVZELKELS5AgO1uSQex6TRahIhHIIOXjjOKHjonHQA9JJDJ4QFZtV8gYG6J0vO7Cgnoe1gyFUWEQoMFJxz3OXZY8jZY1/QAgO1yRytAkK7wJAOps4Iwa6sxVWCkDKjqDtCsIssOfHRapyQEpEqn1HwEPmugxlxAFFCNLwjH0AxCwwUKDn6FBJSVlnELTBQiaEjIKx1CFqNzuglxyMkXtRSKx+CViPwPofV8wl3xxzuvqCrBmYUPEQJHfadw9q0iSFoNYKjVfcLy+U9ClFElhyghmcUPESWnHiBEd/B5NETETrCB1DQCFFARMmRv8BAkaNVVbAZBQ8R73NwfY9CFEVGqyVf1BJX/itk8kQIdh3cr/r9VTOrLLXpsPb68j9kmcfHWbANEQAAAABJRU5ErkJggg==;" parent="1" vertex="1">
          <mxGeometry x="808" y="500" width="55" height="55" as="geometry" />
        </mxCell>
        <mxCell id="IxSBL8WH6zTKbicjn3LH-14" value="&lt;b&gt;&lt;font style=&quot;font-size: 18px;&quot;&gt;Java application&lt;/font&gt;&lt;/b&gt;" style="text;html=1;strokeColor=none;fillColor=none;align=center;verticalAlign=middle;whiteSpace=wrap;rounded=0;" parent="1" vertex="1">
          <mxGeometry x="720" y="570" width="140" height="40" as="geometry" />
        </mxCell>
        <mxCell id="IxSBL8WH6zTKbicjn3LH-17" value="" style="shape=image;imageAspect=0;aspect=fixed;verticalLabelPosition=bottom;verticalAlign=top;image=data:image/png,iVBORw0KGgoAAAANSUhEUgAAAWgAAAFoBAMAAACIy3zmAAAAJ1BMVEXu7u7///9GpDhBlzJSrENPNyqTeF5hslE8IhSDZ03U08i5uaSin4YOJcVIAAAaAklEQVR42uydy2ocSRaGVXLDbFNuQ0GVFnZEgGFWcoSgQNainRmQrzNSJdTzaNSr2ZW1mLVaLzZxLhEZeSkvWjJxknFKLbcMbT7//HFucVJ9dkFPdUbPIr49+wX9C/oX9C/oX9D/n9Cr/ywR+r9LhP6+ROi/jguE7j4tD3rT3v48aH5W/Ptv9u22dauf8yenb9/+j/6t1c+Lg+4O+qpaGPT286HZLQ36z/bQuIdlQVf+cGj03bKgf2sPh72+qZYEvQlCH+7VblHQwdEB2rrjgqBR6EOj9MdqOdDfQeigtN0tB3prgPlQKwX+WAg0Ct2C0vprtRBoFjpED61CflkENAkN0Fpp/c/qZ0C/eT0dqg4wBxzEQG1Xi2gCotCotHIflwDNju5IaaWvVwuA5tARnn1ADlL/UYmHjqGDkgtgR6kFQ38na3QY8kDpJLVc6E0SGpOLVSHB7FbCoT/07gjQSlkIIHeVbOh7j6cQD2IH5gjUenchGnprfK90B0qjq59FQ//bd206iJ2C8KGobJILXdXet72nHRCjq4+Codem69oUPTrIiAqyIna4UqG/B6E9J3H0tA6WxsC3Egu9MW3rPREjNFgaHuv+VUmdmv7pg9Jt20cPzY/St2KbgPsWlMYw3XHIoweOolDoS+NDxItKt7nSVt8IhQ5BuvOdb/PkEpW2ViZ0ZVpU2h/6NB6VDlnxTiT02gSlgTspHYWGqEdZURz0X0Hk8AGfpPU9wOKjaJggD3oDx3CotI6WhqCnuRcQBf0BMwt4Opam90plSutbgdBPgAzRo/Mx5GmdPN37QxR0TXYG6ljloTEoI8Lnx0oa9Pb6s++GMa+vPaiD2YmDPjegMSndpuSS4jR0MG9+2fXqP+vFGyRuo6dRaZs8Ddx/VLKgKxUqPFC5Q2oKIDaGD+5gbt8M+m3K3LWpKbOAseNJDHmwoThNX9xKVBOwejS+xojXtdy8ADSUd2jpWH/Igr73BjoA+Oy4IQd76MzSUH+Igt5ek9J8FtukdAwelBWtKOh/mKB03XLUixVTaGhjmOb64ygIevUEzN4PlYbkwo1LrPSuBEHDkMZQzENP+9TYktJNNPZOEPTlNShdty0Xpz41trFF5BASgp4U6JDDwdPexOKjG2ZE2wfrOznQe3BHAKfGJZq6ixmRv4LoN2KgN8qT0jG9dDxCIKW5qsZgvRMDvUZgbyi5tHGMED2tdIohodKTAg2W9mjrjtI4FXqg9LVlS/P4VN9JgX5CZBC75ZDXJaUDaNO3L4rWmiRA7330B+rsOVCjp4PWNnna0tqKhKnpxhqKHjXqjMVpG6OH0qmoRnr3IKMJuLSGM2LdcW+bKR2Dh+ZMcycD+pwNjUrjDKHDk0ietjazdPiNKxHQq0elKLeYmpoArvMOVCcpm1naqlsZ0HtV8znk6MFKH7j2J1s0pLR1IqArZWJGNIbiNHdcFptEtgXX1Apq6vLQW6tqOIXg7DSvwfABh9DyAVSxK3ffJECvbR2iXQ3Y4SvPa1BpTbMlO6ipQ81UHjo04qpWIdxxaxvnTNgj4mypGdbUOwnQL8Ed2CKiQUjnDsOHooRihzW1WwmwRx2VhuzS5v6wFOdUVlODqY/loTdwDhW2WxBDOuoTMXxwjdTX1OSQb+Wh1zYoXWMzbmLJxNUHRY6spibum+LQq3MQGoqlnrpjpceW5pnNbXnoJxA6mJqZ2+hqUHpqaZxDlp+ahiQehDZ8Eg3lF4p5M5ZGwxxLNwEVWloprE4NMXfcvGBmubaWv0Sl6U2SktBbG06hoRIPlP4M1TSHj7GlydPWXZWGDkkc/KHAH5gUocajqEdKo5vT3Qt+efUe1muhf1eQEMM/IDQkxbaNufygoqXVNY9P6btdaehH5SFMY0mNBuEbDJgyKeprQek+TjfOudL22Ct0R40lNRqk5eTigz1sDB4kcSidHDzH4tAmKc0hL+aXg+7zIXw0COwC911Z6Mqyp0lpCHtdpD40mlpDdDMRW6S+Kgu9AWj0B6UXWmPibQSMdVYZ6+KjnYVvXrtb+EroS5CxhgdkptPY8S5TSycvSmzBGBrF3pWFXqM98CxCnI4dOd0JJBs7bckYGn9xtiz0+6ClIVd7Vrpt48hXk8TaJjvT9w6u9gtCPyI0ZhfDSn/2XH202kVgbcnO2toY8wpCPyn0NDYvpDTvjAE4ipuU1pnS30pOTUNXC9Boa0wteF3E2wiZ0tZhzEPB4flSsglY7QHakD08F9QU78JhHCptM6fcFO1cLNuD0gu2toZ3VTo/8LTNlf5aEnqD0NhwxXmv502ETGkgt9HUCH4tADrYgxM55PKWx9StdrY/fk5nSruS0JfckpCrydOGx72+S8pSxZF52q0KQq8JGmOeocqUbpuxPtVJWfoVojQrfRQAjXWe8TzPiwNf7bLDx8GDv78rCH1O7qBAXdfU2xreRug9HcNe7+mC0HDdQpZW1AewQegao9WDMJeiH/zGFwHQWDQpmtd4SuRsD92D9nnGuauC0E8qUmMiR0/T6BSoG6pFtcuUZvCvAqDR0oZWVaLS3jdckNrkkVQ7lYTeR2iYnCoT+0Ty9KGxWdRgcFZ6JwE6BQ/sA/hirsFeherokdK7glPTJvc03AcYPow4gWy4K8wK6XQYCzYB8Z2QFPMCc01rY6Q0V3hZoOZ+oCB0emeIultPFwKeF8AheujUHeZhT7tVMegqQXtuXiIzXgYkpUc9F/zrQzHoTYLGyRg6Go5j3WHt0dhYKfXhIx7JowBoRCZXIzbWpk2M0nl9x1KXg97a/CRiSqS4hxVTq53LWTU1MTRGeC4GfZkpbXiMQHNq3O3VfZDTA6WxzCsPHasP6m3pTYyub2yzHgbF1gWVXg9DHje3eAVKGZFjnCilc2iqPuJsHVd7dRrg9ZW0Ta1LKegPY3vwMhNVTBQ9GFSO0hk0hTxDYwTqyKHKs1NPU6L5Vgz6faY0D6nTzUtee2g7OJHwiICmJkDRzhjNxrq905kp+thBTWKpqenIHoounEnpED8aGtFobXOl6a/xqVgTkEMbxdmFI0iIH43LwwfL7Gi296UY9HqitGLmGoqPPZWhQ0/zrzKgY0Meb+ZY6UHnYmnmi56WAd0nctx3Q6UtmZrHvbnW5Tyd1R7p4jZ52rfNIMylfI5/lU8ilKaJXowesJTcNen0DeI0GuabIKUxRtOqPYQ8PVI6dS9v8vMc/t5/vM2hDTe38bYIlc5y9zAjSoHmMQJ6uoZLjMZp3R+9rMiTpHRqXnDHhpTm9mqi9LMM6BipeTpmWt97Wo+KPF1Q6c0weqTmBWfrMOpNc7z8mittBBW6vhhCD5sX3/VK274Z51hdEFqN7EGjUxyuexwh6OxKbvC8DvpVszythtmFRqc8G+uvL5y1We2BVik3rLnYj5Wm6yJ6FaNrbHZTNKryVkKg6SRmSjcp1GHFEXMMfi046n1S45NI10WYYro0YdLZLQYbpiD0o5ocRVpaB5McGjfYX9JZ+LuuykG/myhNS+tk7PwSTg/Cn9sVhP5dzZ5EHPfWXsc1INqcsP0Fl7stCL0e53FuE+m2KJul05pKf0X3VQx0X1LTOkJfkCbqaO6bgtDDiqlvbunqFuvptPTB13Nk7quC0aOy05PIrW1oYLIqT/M+EH+EFrHgMuGc0jzQQ6VjdxUtzTYPlWlB6GFKNDFQg861p25c00pv+sS/w3Pxtc2BQYZK84jJxtXpmBcfSi/IDpSG0Sm9HgBxOt0F2HgK0S+h9Cj5hv65mpRMcWk9xGlijoHapZUxtyu6trmenkS6xYBArbNlD15U1wLWNs+2dlZpWsDizYN+9Sp1L1dFoTezSvP+VV/lOXjpLGu2iq4in62amZjH+73xINrkivxuqyT0yzjm0esjePfSxMjsxs9DWehRG+BpK5l2kuH0WetmnlXZ11XP7SS74HUiiE2ZcO65KAt9aScZkdYngtIniJ27LQw9Ch+K97+x/DjFDK8ElH2buTkR80zsXGaeL6WhX9S0eVHs6VPPXWno6RQhNi+noY8XxX+swHTKVJsfe/qiNPS0TawVvwd6inn3aujX1dPh0adK6pPQxV/Bvrh4OTWwOQn95aw49LvxSeTwcdrTz+Whxyexjhf7J5V+KA89yYnckZ/0NP0gt7LQF82kzqMXuU5B30iAfppU1FSb1j86h6Wh39tp+FDmtNJHCdAzzS2N805An0mAHl/M1fHtsxPFdCUC+mlaM8F7fiegr2RAj0wd94LqH6SW8tDb2UuMU9APMqBHkZovMWr/g9QiAPpxfBIpkf8gtQj4v0FNtsbwx0k1J1ut4k0AfFtNL7nCeZyHfpACPayp+Z2X+YO4uxAD/X5ubWwW+koO9HayzBR6gVl7PK/EQA9uueI7DbPQK0HQ76bLKkbP9rSCoCf+CMaeU/rTmSDoiT/CP81sDpcE/W60/x249WxZKgl6aydbp3q2LJUEPfAHVR/72QpPFHR+j1Hjx8ts0yIKejMwNVQfL7NNiyjovP6gnyb1Mlv//4+9s/dtW0kCOLeIL7FT7Bb2e5FcOQ9Ica7uDjjgrkt7TVIwWAdXxEUE005zSJkmV6xBxS6SIoL07EIqEsTSK6JL4meLLmIEDuxIf9TNzH6QK1FOAth3JBAC74Hk7pC/Hc4OZ2Zp5UKgLyCe1od/GP/7kQnov1/MjYIL/Cdh+U2v3rv0y7vcULpY0NmFDAqZ3uUtABQMOrsmgC7v1ruchbjCQbPH3ky89Z+c5aHiQf/k/SHord8nl2mLB52ZimjS49D/KiZ05q0IM3HZh/6TKCh05c8ZP718lJscFg46LUWipo9ySwfFg0693u2l5ZFfWCostAtAwDz+OLzphR3Fhf7J/YDe0j+Gj71F2uJC21wAItMnw0/eOkuBoa2qb99+MvrkrYZfJPSFxdP60Kr69tIoo+kL+sDj4pMA84+OGFX/sjQavfcC6QJD27Dp9tJw9LsXKhUa+ifzs6Gj0VFW0YWGtlZ962iUPM7GpIWGDqoUgSyPjpJPGUUXHJq9QwNZBk2/z0YdBYemYG95NEyOsuFdwaExrr75ZDQcJrjIwkoCzWEujkZJMnyf/ohY4aHxZT46Ak33Hv+Nl0XTEKL+BeZhkgyOWFAe6OpfAXqYJG1eImjxGzgP0HQ7KBN0dTQ8SgZJcDnQFxxP28MKmnQyuIQrX0IS4A5R00m/XNDsCOZhr2TQwW9oHp2SabqHHo+VTNNzYB290kGDpgdlg66CdZRO0xU0D1Ey6FnUdNmgOZh0t2zQQdIbDMoHnZQQupd0SwfNLhP6kuJpIXpJr305VxaXCD3odksHPVdGTc+VUtPdQQk13et2edmgK4Nu+TRd6ZXQpkup6Wq3jOZRSpvWJl068ygftOi2Z8sHHbQvzaYvLQnAf7m5dJnLJR7+gP4B/QP6B/T49m2t/0/oKmSREHR3e7DhDvN8fBe3gd66QWGgD1v+1hh2hGtd8Ns2OgWBjmpjW6sxsN8UiT2/KWp0CgFdiVotDUS61NhfuGndzzRqalYITfPZ/QbybKD1HkXE1vrITWvQwycRbXSTUYTdovWieA80gqijA6t9om6kv2iziKwY2VVocBErCHSVuMzhdaL+ldvWCjbqkPQQoVcvv2r6TYfIFdlD8RopWx3Xioe6M/HviP9BEvCN0DV3yM9I1e4whWao6kcFgm64Q1bVtpvRdMNAz5iGIkAHnqa1QqPVSfMIcDhRpyDQNQ+a2NB2J6BxP+oXUtOBONNmMG7TNLrCQNeyNg2tC6jR40lNswJB8zHzYOROnk9MRA1dUJtmFEXt5Nh0zbwd86HppcX891e2FR1QVpiJKVj2G5tMayagN52jcWiK7iZtGvd38/x0Bf7HxFzSNlg8Sczr3t6YidlkOPBuLPgX+niwtsH8EVYSuBDPQqN08vZ8mxYLNBMnNI1ms54D3Wsew61O4lg94Hin6zKOV/qetioncA5OWmGUerkNw3sIp+udDDT1VLsM+yyazp70FJumKCnqT9g0nI76Y48UVPUyjvuCr8VhGKoONM/EKgzjTZZVXhNbQ6mO7fMHKQXQJCW3hYOuNmMSr79loiL1U6p60vkuj1GUFB27xl0zYLCaXe5Ds30J95B9caroulsQF8qQdp+nK1SVpgJNxXhfPY9fh0i2JT4o3ffYQsPo1IqEs5J6Z6TxnGLnTEQy5FVn0zreCHiEkbYPXcWLhbLzKpakDdWpyJCoZT2FPlXxTrf3MNajgk0S7NYCyeBZa0unSvVFcKLHEtap85ovHfgWkFppzUGnmob4L1rnY1VT/pCe7xAsLiIFPQdAeLp40n7FyK4peR87o15JqYysItxuwkhp1Mr4jAUl78CVeVND41h86fTvz2zI7PwNOmRw1HSAjYPubLcH+cFGTmL7Ae8fK/AEdCsVq3XGX6Na7precF5ppwId5DM6dULUcf1L0GvSUKidnYZhB688TwYSo964tNL4AJ/x6dBnJjo10DpP165jHFq8wnnzkbIcUtpHuDmd3NK92Q0VPtNdYQ8ISJb0Vu8IDtPNDFDwigo3OaWuKL6/LrT0Uy19RUuLlIudB+3S8d3OZI5YhWvd19aCmtRvUrzrpoE+DeWq6SuNfcA+GRBZDw6QuDgOj6DxSs/0jyc7aW6kp2r60EELq+mGKSJMQAMfguD+G5yTel7Agw41NNxL2nf/AXS447DqehZVzVMhedMKHbe5Gb3U04gzLZ3RtA+952s6GQ5Hnykdd293H9rMjxt6F6F/DulmcOMFYLJ/3Iv2se2gt8xbU+qnAr4jDO/qK18NyVC0tMWaJ+lvhdbu8nMjLS/kQy866AD5qbTDroBKLTQqtT4BveacWyhf6CvPG2gGhrxpsbT0VJve872HhuSHuL97DnQlhSZ+utZBqh5w0PgAxqFPLXTTaXpeGegDazp4qTC0tpKnabTpB2mjqd1wqtz0p0PzPOg1pLPQa87XyhT6wDpq6WzaQa+F1vXoS8n+VOgzH9pCzuDBg/Ohzdu/6qAleleRmYnH45o+CI3dQtenDpomIko/dVgH1qNPg46OJzStD3b4VGgR5kCHWWiYYHI1B1pZ8zAub17vBRyk/+2w0DutTrXpNK/yNE1Fpsb3QfMsNAcYnGtTNL0WmpcLDE7e5cbf33VYV8ag/aJZmld5mhbXMoF2HrSchA6UB60sdJ5No3Nnxk/LYwvtNI0+bzq0LuDlaJoC7c53adqHvqHO0/TVjMUrYaGdTZMfnQqNlY9dngNd/X5oHma8R0bTOdA4JB0SVTBcsdBbUzXt2fQMFU79xgloG8hyjRfoaWNnd1UPhZEdbKfVCUU9YK+Jp4V9eytyFTzGiBzimFcqPqYgmCv7PsfDhdSlVibiaTTdVeE3Cldg7fg5YgY6kPnQyl36hu08Bo2mDJ0PdOh3XcptE7lL/QrV0PSazauaYusZofmNKTSbCp2raYyyPehOHrRJTinJCiG5sr811zQDctBiCrQpFUyBronpms6DPg3dMw0YWKUS0zWtUwpIO49tCWHNSTN65ahp0OgjnudCV9Pk65s1/Ua7ZgOtA7pJm7bZ+ImCjOVeX9j8MpVm5F2281YCsHVPv1pybBqH86v4PpvGgPKpLce80aGEfj/naBqMuD5ss7RmMq/Mu9GM/+kUaIyLdkWeprGsHq1Oh66oHGhMwjYtNOQhL/KgpYW+Fh+78gS2LSg7E8nSQDoDnVYUGIRFFHjkQB+mFUgHXfkKNHotO+eZyWKykb8HvShDv7SXSpMjkiwLna4MWUULf0TC1KJ2xXdC01y6o1UNHbbFOdCVpnJYpljhpBlec9tb3XKqxeWt6NiH7psbXW8460ihq1+DRrOs6yLZFUXWgUXUMA/6FKSoyOFMnHLwuj6cJ+nMcoVdzhJzALaTYlHjqqmagv9uTJR6F/S7ldyO0iarbRHO6poqOt/7wlRAbE1R2XRFB9l9Ko5iaUOGteEgoEqryEoz8Nl1p9oZyrM/YpIuxFyEC7ZpPRYLqMYk+H6DuvkFSI6h2TY+U8E/oPpImM7W3+obH2BlZJ2KRPKOlp7FypfUJdg5RL03wBGuUZEMy34ru7a0m5V+4VSrP0RobbTb7e5nZO67ujDv0api9KgbBD1IbKONsUI4O6SynFQ7nO3ZXZxPtBvr54LlmDC+V3sYS2MR13QxL1argr/UJdH4n5yJq6aIF6K3fm4MLXbS2/bGn1u2EqOrG1EjrV4v1nS5w7Xtjv9CAZOmhLjJ2VpaNnxjdmPd+5p5z9miqWuXd+nx0wZX0IB2i43y9ox0XO+YG1cbY597uMeia7te2yPGx6Gbsd7glnYXoc2uYva+aJlx3RbVr5r2GKHTK+gam91MhRXyJS294qx2ptXQWyuC/1qNIUuLueys1YrsBm1f2OS3prNdvbWFoE/5Z7u9AQ/m9B99BG2bml1/GYYr6+4ThsXaSG8dypJo9yOVo05Aw1bdcccE7nMgHdpVDsxFRp/Tbdhl3jcKvaO0dTRgud8w2SDcW8rRyyzs61988czqELaKD1KtvERjCHUKnOnMC/q1GFuMN9u0uoEF4PAOL8N3ebxJiQvur4U2Uio4NHsV3+fmkGqpZYCuSoqNhK0nlAEaQo9N9x2S+Lkc5lHVCwGBrWXLMkzEeQ96QZk8q9jQV8P/Ds3RB4eAo1egOFq0tZVxaIQ0UkZcARtaGvRpGqnImxEROBRWqoMGkAJglYtMa+vCoeBoUBesdSF0IvlERJQA9R1Ng1VKoJ53GyO0Dd26cGhsOAPP43ee3sW1OhXe2xr0jgYvNIgAd3k6YgQZh4ajBcXgnZawIXRe3krICqaOGIze6CB2tKB0Jmip2SnUJW6D3dGg4mkB9MjhIeRoLKsnh4KjGUYdPeroUUePOnqQcQGvH/e6mzrvqwAAAABJRU5ErkJggg==;" parent="1" vertex="1">
          <mxGeometry x="447.94" y="475.47" width="117.55" height="117.55" as="geometry" />
        </mxCell>
        <mxCell id="IxSBL8WH6zTKbicjn3LH-20" value="" style="shape=image;imageAspect=0;aspect=fixed;verticalLabelPosition=bottom;verticalAlign=top;image=data:image/png,iVBORw0KGgoAAAANSUhEUgAAAT4AAACfCAMAAABX0UX9AAAAzFBMVEX/////ZgD+/v2st7H+aAT/ZAD+ZACptK7/dCr/8eb+XQD/kVH+YQD/2sT/w6329/a1v7n/+vf/6dj/iET/kF3/6+L/fi3/9e//eijV29fK0c3/5tr/7d//WADT2NXBycT+om3w8vD/ciTl6Ob/hDz+nGb+uJP+1Lv+vZn/tYv+qnr+nmz+4M7+bwD/yKz/z7T+bRX+mFz+gUb+pHX+eDX/lmT/p37/sIT+i0r/xKT+pnP+dBL+xp/+i1H/28v+rov+iT3+up7+tZj+exwq1hU3AAAMeElEQVR4nO2bC1faTBPHk5DEsqyFSLmKclXkjloV6qu9ff/v9MxsssluSIKIYt92/uf0FDIkhJ+zO5fdGAaJRCKRSCQSiUQikUgkEolEIpFIJBKJRCKRSCQSiUT6Z+TVQm3YrMhmfcCt/R9o+FSXGtzHAJ7cVaWtejf9mPv7szVn3AnF6p5qO7VZZOPs9KPu8Q/WDTcVnS1U2zem2tj9R93jn6v8J0dD9KAayxpa/sVLu8o/q2x8DuHLFuHbS4RvLxG+vUT49hLh20txfCPVSPi2ifDtJcK3lwjfXiJ8e4nw7SXCt5cI314ifHuJ8O0lwreXCN9eInx7ifDtJcK3lwjfXorju1SN/yq+Yr8B6he3f/J98HnjQuH64uIa/n0bzU/zL9ofc3pxnbIPxLtcjVO++7iwSjtLqNhst9vnaSCK5+1ms6FbrX47lzsC5XLN7rZ7fh98p2euK/d2cMYeJ8cvOGnMWCfZUrG5m3wFb8BdfpNx0QaCOCqlWJvC2lYPddsIztdRrrnlDx/Dx28Vm6XbnMHmDqwUHTPbtv2zbHzlsOr2DTIdx7lItlTgKsn4ajO4eha+c8HiqJ9s9UGVFEYNAe/I9z54Ucp2wBg+d7mwPKmxZgJ+Iy9V+lUFvk+o3tJ2OLxxl8PM+zDeF18z0djfwNcQ8HLt80ajWYIXwC9zBozhM11WHQhVqzNmxsRm1TTdVtSrAj5+b4G8Wut4fjsDmqb9nHUfoA5/DT7XdrbjyyVDaMaNPk85VcI4Rn5Z4zeOD3xMyo3TU2wbYl/VkY34rvCF+GqrNgJ65mzLPPIa7zN+Ps5mc/WbY5cI8CWO3mIJ0AHCEF9XwOwali/DQmdM8Vxfm/heKa5ubfPxWVKGMYfxy9YZ92G8Ep91MlVn1Z/sk24HfKVmCoPuERxX8Qlv7Eb3bfn0M6a/N8PHPitXjeGD+7hitlnODj2vwqfrmZlf9SP4+7ux8KDa+gq+LrLqq7dtGTB+9cis61D4vBkgyI6+b4DvKhFfsS2wbAjHrqXga6I3WpqMPo789OhxIHyWcc9tlh183wIfT8QHU9jR+caHwSnBsSJ8OBUedQ2dn4Xu10j9wvfDd6njm3Obj1JvA5WBz34hvnmy9xVx9G58GKH2FXwYdktxeuJoOzXoHQzfwrT5OPO3vw2+gX5E4LPaSSMQ05Kigq8tfDSGzypmBo+/C9+aJ+ITjhYfgUUxdhV8glOcnoUzZFrRckB8a46HQtVO5w/jb+OraRSNZdrsTccXnXVFGTASn1VZP4xHQy2AezVPvqjVrh27V9Ge4vHxoQvF42ffRxriw7hbKm7iEwHlg/EZ1sRRQkf+e50xjmLVqxi+6YpxhzN+ETVSAnytiYsnsdl9VCNa148FgdPrVKuPLlQ3j1gy1esPKj50ofgIxLFaVPD5k9wmPn9K/GB8NfhlM1nYzR0OVQgHgvAfK9RUfGvm2q4Dn3acMNJUoGg5NobcsaHuwTMfQ7Qn8M3ishXuBv0JIedRw3d+FB+BouQwFHznwssS8GEp8tH4Hrjt3gVOM8cSzqw+zOednmPbfKLgm8Mvt1edgg0GJh0T8U2P4RynftGpuqbtVFsSH5wv8NUe8Ydgc0LcDi/79oaPr5+LZ7945FzF1xSDedP9uqWMzO8g+AxjAb/rLBi7eYDhDPxQYD0ApqCXB/g6J8xkt4gmf8vAMAzxLf+3NN2lqG6HM9eWdCJ8xnQ4PF6Z9nI9FMr79sD7LGSgpR9YoHUVfCLB6yfgC9LBj8NnWAskVgiMl9w2B3n50UvHdiYBPnP15LqXliGI37q2WbcCfLb9aJvVU98yrZs2W8TxoVLyPp+SPnplISfxYWmSji8t9O6Gz2FnUix2XgK+8DtuYVQ59YCYN4h+PL59coNeTIfDxMVuDTlbwueCPgTig7F8Kk0LZrtB6xvwORG+YSq+fix+duX7EJ9wsk16b4jP+TSXSYO1GGgPvG3iG0P2kG+dPK/LDNyNh/5WOeOsrLRXgcVZJcRXroXtIriIc2eF+KIq0DAKMHyfX4QvmPvE6FWbfhgouhv4NvOWN8TnLFvKmf5cnYrPXt7c3AyqPZtDFOXLcZisWZfXIzVzq53Z7FjiA7cM7xvd1K5JfGa9Es0GmIN/k/jcl+ATozeawbAO8Zswh8MXRkJfi2x8ylpH7ypvpMsNEkLEZ6vNtu88GOWID0qWyJLvmWbP2glfX2sbdMMW4MHwuVxvOJ0s1X50Aj4X5PMrZLWqZmaIj3dUfEMXDwT42FQ1wej1y7gT+Cu9CJ/eNsDD/U187zn3uaYOodVTT93EVy78+LH68ZsxiBu27riafiv4FiqjllwGAnzmzFN+kjGGz853wic6BOHoxQ5g8U/GF0Zea1GGaoGl86tG+GZTLdde2uanlo/PmVgq2QWuRW3iO87A11faBsUoi9bwvWfisiO+iJc3gdBrp05/s2Du+8YRloqvClnw1MfHf2qWU0hdrq2d8GHLXhYe/SgLjNLmLHxvkDa/Gp/hrWAWuzXiag3nP3/dl50I3406Qi2jHMxwOHgXGr4KOPTA8/HZL8MnewQBs1z0Mqo63rNoez0+Ywru91Vzv8rVCoamwzmH2BLh05tcECBE3ea3DDR8mMnsiC9q+llKBby95sXVjhR6B8JnQJllKsvkrdsZg6DsIj4nwud+0fFdQEEn8emzYn6m4Msr35uBrxgumqnT4ME6Lvvgu4JI+V2+sdYMKhbOq0+T779+3crsDvBdb+Bz0/FVd/Q+Iyw8mtEwjvX7EvA1spYqd0mbd8r7uLZX6xm8L2yjj7BL9XVUqXki87VT8V07cu5LGryrXfE1goAhW306vqxu8+Yy3Svw6VtPjblW9Gbja2GTRBo59viwGvN7KxJfh7tPOr4fMvLOTHOo44N6+MLawPfMzNguAxVfPyg1ujkFyOHWOlxTXa85NbVNMNn4vCcozU78l5CO8Acjqv/PQu8zb/Q7r5t+3pd/NPlnDd+QBZOBnrhk4xMteyPYebCJLzn0+k75FvhMZ/lwnPc1HfX0E7PxGTjD+Vt5pgymrVpU/rdYgO8B8r68mhvXZNVRq5qQJKv4Rtx2ZNXxYu8T+Uo/2F2wiS95nTdz6tux3+e+qt+HWssyAdv22vahtQwdc2ZrM1xU82JPsKoVbVjzTgN8Me/Tl7Q1fF0xjRW11t+WXQaZNcf7dptVtcIO5x2EUyWMimEt8D27+gJJ1HHBHR68oiDHjkvd2BmfHzMaWuN5yx4XPD9jh9+h8FmYqIkE7QvkwlFtZiy4DB0QXszfCiOcJP1+n8h71LWTufTL3fD5GQv2Diz1kLrDSq/bRKWXscXlcPiwQSwSH8yFZQUGM6FtSnwGLgVHtRmOd2wUiLuE+fLGC6ON99u0HdltjuHr6bvgdHxietN3+23s7+sb0S2Igi11kfeA+IxfMnaM/CXLgF4P+4EBPgin5koGFeMEch0uQ/3Atc15iG8EM8GTXOtQ8Z2y+G4OHZ+V29hrquIrCmvf8gEaVr90lLy17fD4sL/ekT+RPQivat1jO7UXrhxVwUMn4ubhxurwRi7OGUNczzwJNvti2n0WUNK7zZWZXLZLxieafjntiIrPL9COSo1+t1jsNsSHs4buAfGdLIO6A9svtjsYX34rL7GR9Vw1Jb5j8ESnMK1ZXv7qEdcpo7WVW/DM2VXes2pTrEUc2b/R8WEc4uOKBxfIJ+ITe7+1RETD5/PLBfuh/f8a581mu1QqJTrhwfBZX8HPar4RBqzp91qQ3O8Qn3F5BmTs1d2XRzA6XHlcqDbAWqV+Nymb2GO4lkt1+kqbMYcL8NmXyZfeKhEfTma6Q+n4DH+8qgqe8UjeJvQ++KZnm+3lMZNVyxp3YIjtKGwAhH7zs3Dv0NzGbS+Oi3tfnrRnHbwJB390HWDOo90vRst0VHxYuuCnXLnHpR97pAhLC5UnPlikJyb9du7oKM7wsPi8TrkQ7y7nOwN5bFpegve5y09X6I7rwSqKltNJD9wObIN57FEba1heuuizS+0htvFAe9zNWlfxfM6r/vtiqaRNXt12u60Nw27sA3CJbv+8jcNVV2LD+X3wbdXJ4vPnxTQxHa0dz8F2knLWz8+LVpJJ+fV4/nzbp95IH4TvbxHh20vWV74dzQvk8q2P/P2VmvM3EXv6Vx41j+n4ovAGunzxs74kEolEIpFIJBKJRCKRSCQSiUQikUgkEolEIpFIJBKJRCKRSCQSiUQikUgkEolEIpFIJBKJRCKR/jr9B3eqPy+hoQeOAAAAAElFTkSuQmCC;" parent="1" vertex="1">
          <mxGeometry x="733" y="670" width="130" height="65" as="geometry" />
        </mxCell>
        <mxCell id="IxSBL8WH6zTKbicjn3LH-26" value="&lt;b&gt;&lt;font style=&quot;font-size: 18px;&quot;&gt;Python application&lt;/font&gt;&lt;/b&gt;" style="text;html=1;strokeColor=none;fillColor=none;align=center;verticalAlign=middle;whiteSpace=wrap;rounded=0;" parent="1" vertex="1">
          <mxGeometry x="755.5" y="880" width="60" height="30" as="geometry" />
        </mxCell>
        <mxCell id="IxSBL8WH6zTKbicjn3LH-29" value="&lt;b&gt;&lt;font style=&quot;font-size: 24px;&quot;&gt;App Server&lt;/font&gt;&lt;/b&gt;" style="text;html=1;strokeColor=none;fillColor=none;align=center;verticalAlign=middle;whiteSpace=wrap;rounded=0;" parent="1" vertex="1">
          <mxGeometry x="650" y="950" width="210" height="60" as="geometry" />
        </mxCell>
        <mxCell id="IxSBL8WH6zTKbicjn3LH-30" value="" style="shape=image;imageAspect=0;aspect=fixed;verticalLabelPosition=bottom;verticalAlign=top;image=data:image/png,iVBORw0KGgoAAAANSUhEUgAAAMYAAAD/CAMAAACdMFkKAAAA6lBMVEX////nikmTVC+PUS6ZWDG2ajnqi0rAcT3sjUqqYzZGRkXDcj7ehEaRUSqUVS/8+vikb1TphTr54tPz8/NAQD9lZWNcXFvLzMxKS0o4ODfmhkLT09O9vb1VVVTSuayQSx/g390yMTCcnJuKiomtravHxcLqkVL99vHs7OxvbmnvpHBhYWDyr4H41r/53cnp3daRkZB3d3fi0sm7k32dYDy0tLPz59+9d0bAm4WufF/wq3u3i3KRShvarI++ajHyt5HwoWyzdE/lwanzto6eY0TLq5rsupvkmWXsmV74yqrZwbUgIB+Vmpt9gYIh8wJrAAAJFElEQVR4nO2dDXebxhKGJcdxfUlUqgAL4iNeg+QgU8dCttykaW9867Q3uQ3//+/cmWER0qkkq7FAq555T06sjwXNs7szs+xylk6HxWKxWCwWi8Vi/T3dvdm3BU+XOf3w0+XbQwe5fnfbe+5f/Hi1b0OeIPP6fe/s6Nnzk67fv7w61BaZ3tz2jo4Io9v1L34+RBDwidseUigMADn98eBA7m6Oz45KVRgA0j00Z3/9S+/oLxjYtQ7L2V9XbbGMASD+ITn7WoyyRcx927elNmBgixxK1NqIgS2ir7NPf63r+BEMbbsW5Inv/92/+PiqJHkUA/OIfi2CY6dn3512/c/3V3edrTC0C78wdjqGjI0Y6L84fvp9Gwwo3NfH2afvbstRB2Ggcd3P/+lthUFjLU261vty7FRjdLun/3q2JQaAnOjh7D+omv9GDF2c/ckYejj7DjD25+zT3yiy7gqDWuRtyz5iXn+4fXF6evnHqzfmrjDav7CCEHv27AUkO//0/uG3T7vCaHeshRkbkt0Lsu7E94+PdoZRdq12MD5RhlYY3e7LnWLQhVUrLfK+1yhGW+G3cQxskeacffq2HIW3gNHcWAsc++XF/cPV3ZtWMBrJI+b1zfHZ8UsIS/1+Xw0Em8bY/VjL/B2H4oBBZn/fFga1yA45TErUe8DodvuvGIMxGIMxGIMxGIMxGIMxGIMxGIMxGIMxGIMxGIMxGIMxGIMxGIMxGIMxGIMxGIMxGIMxGIMxGIMxGIMxGIMxGIMxGIMxGIMxGIMxGIMxGIMxGIMxGIMxGIMxGIMxGIMxGOOfjPH+bD8bdHT90x1idK5vbns9wvB9v7XtUuA8u974BTeleun3u5cf//jUEkYju6CZ1x/+izvwtLSVUPN70rWB4V88NL1pWPMYrezX+EPTGCet7AxY7lTaFEZr2xuW+8YSxgnE353upNfuZpMYfl+c+qefH65emTvbnrH9rT/N6c1P9x/f3mHz7wpjPxuxvql68G4w9rDl57J2gaHBJsVPx2hyG8PWMHTY0xdUPaOixvD722Po8+yE63e4/3iFceJ3f/5ys+XO3e1tuLqNpje3ZyWG379/AGfdajt4/Z4rgtsV977zYWD6hQLxNhgnWj7lBRLi5ZfqkvNxjL3niXUyFx6X9RjGgTwBaTOGJiH2cW3C0GMT+620HsPv6vFIga30+pfVGBqMnf6O/ne86rlNOj1uYztdq4dyLGAcjGMvypx+KMdaCgMc+8BaotL0hp71ghiaPhhoS+Gz8gBD58c0bSUYax09P5iHZm3S9NcD7k4L+kdAsFgsFovFYrFYmstMQYc/+E7Oz8+9yb6teKrSxDYMOzn05nANlB3u246nyUoIw5gcdnOkETQFdKtIbnnAo7grCjRfRcPI8Ca5bUSx+sAKAtfqBGGRzAJ4G7hJMQwqO4IwyZM4DFK0LVhUWUIGcZJPXKmKS/oimBVJTIc0JySQ0jNsp7LU9qI0djzbtp2wM6MXKpClMZQDGV5uAW/u1RpbWGCWewMsPlZ1Enqe0QlyPMYrmmySEPpTYaWOYQxmCmNgCMfxPOxsY8cBKA++JLsKoECbDYK2yDzskFgSMWLqnRGAi4KwQvgKorkXwckGRYMYQzAB7J/Bn+EcA6ycBWGOgVhMAjeHv9gcAdSpGAUBHIOuZBVCiGycE0Zs0rkMkbtB4kB74QeEYXhhEEAFGJlsjEIKw86h147gZ6JgjuGMkBDrOYEXLnwpwIZhMslcLILQUMJEdeQAi8E5LLBeJFQ30LhRqjAEeZhoNKaH0E1yfAE50BvWGPTqHGygvgHtoqqy9FOFUX4CJnsOfjuEAxMq30m8sv1C1U5wCNRJcxhQgYOR+hk7qzDIhI4FGJmlGIWsDpHDeFxjpJh2xmTgsLY0iAy7UBhl5QybxKC2nkFYlDgiiUYKY+AqDDtfwrDkUDjRYGDPMSwHnNeg4ljKVmECI1+LGDH26yiy7UgYyo8JY6QwjPESRiwie2BkmeMpDCtGCmUe1oRqI9lqa8isHE/RP0M5+XqMGIrncVpaR0UgdxqRaoFFS9vFwBCUCSV01XAjRlG5SIWBx0fzwRhaqpCGKnK0gmGhq06slGTF8ENOugEDq5iimhmXGAH2KBWbOmUmpZDVsTK7dLRWMFJRGq7eQdV67gYMyNoUlM3QI+ukg38noxkJCubQBlEgpYuJszDbwviKP1u/jWyq7fWdajKADDGcxeRMQ0jq5FgDEmY710H/EhkOYyiBtoKBY6LIrd+7ELGgUwTnNYZdYdiIEThkthHlUDLGgnPZlLQDbA+oDMMryvMuYTSUxWcR+LWs30tHiAgqORIlnOUJofJGJMZYMCgEhOdEdmA0lUkZiQVR54SBmBC2EGE6/4lIYcCrWacJWagVH8B/5vz98gvTSqsiUMZaVH2OtD6ruXSKpR9jsVgsFovFYrFY3yLLXdKomjlIZTIGxXJhhjyV4WzoarkO6qrLU6U/1ZXQCC/9cKI/iueX8bM8wuvYbNjsGsY3CWdvFnROJqYxLQuUqwFOOXddzlnTR4Xco8GrRfPo0VwGYSQIEeVxIXDeoJyfHuG0uRPngqaL9mrzCrk4K57KucyOml8TqdWxUlyxoClbC5c/EvgIlwM8uWer/yLEiJc/oiX0an4N5zpsCRjgK+VcPK2/tWrjFlqBIb1qXhDfZCIPcXqhyIRDMerrgWDE0ADJ/F1qlgGW1pxQY10xJnPPoPXgrF4hXCEpNPUNow5UNNkOdg7kuvLWBBwn1i4DLucNWm7ONmCYcb0KqpMQo07kfz6GMcNp6PU9bm9C30jqmymUb6zBSKktEu2S38pIJep7GZYlC6LQcEi1CqNYCrjxpPKENNG1LVZi4CrZuKryIBsItVo+QYqZdkGKtCaLG5Ub42CkTBMjTb2btAIDV1iNiEaxKa6Ie+QodJdfXi6E6nflhAHXiWth/pM5LoTnYRjiCzuX8JmJ7m1E4wylX+Kg9GfPNaBbGGS+kBTp3hxaz62z5GjzSduXq25dqAwsb3CTX/GuLwT01KXeZLB4jagdxihzFpWpSGvJInPOPccZqZBVLJYT7voTslgsFovFYrFYLBZrZ/o/gheq85N8R0IAAAAASUVORK5CYII=;strokeWidth=0;" parent="1" vertex="1">
          <mxGeometry x="411" y="1120" width="83.88" height="108.02" as="geometry" />
        </mxCell>
        <mxCell id="IxSBL8WH6zTKbicjn3LH-37" value="&lt;b&gt;&lt;font style=&quot;font-size: 18px;&quot;&gt;Model Server&lt;/font&gt;&lt;/b&gt;" style="text;html=1;strokeColor=none;fillColor=none;align=center;verticalAlign=middle;whiteSpace=wrap;rounded=0;" parent="1" vertex="1">
          <mxGeometry x="384" y="1216" width="170" height="70" as="geometry" />
        </mxCell>
        <mxCell id="IxSBL8WH6zTKbicjn3LH-38" value="&lt;b&gt;&lt;font style=&quot;font-size: 18px;&quot;&gt;Graph Server&lt;/font&gt;&lt;/b&gt;" style="text;html=1;strokeColor=none;fillColor=none;align=center;verticalAlign=middle;whiteSpace=wrap;rounded=0;" parent="1" vertex="1">
          <mxGeometry x="630" y="1218" width="210" height="70" as="geometry" />
        </mxCell>
        <mxCell id="IxSBL8WH6zTKbicjn3LH-39" value="&lt;b&gt;&lt;font style=&quot;font-size: 18px;&quot;&gt;Vault/ELKServer&lt;/font&gt;&lt;/b&gt;" style="text;html=1;strokeColor=none;fillColor=none;align=center;verticalAlign=middle;whiteSpace=wrap;rounded=0;" parent="1" vertex="1">
          <mxGeometry x="954" y="1221" width="127" height="60" as="geometry" />
        </mxCell>
        <mxCell id="IxSBL8WH6zTKbicjn3LH-42" value="Public subnet" style="points=[[0,0],[0.25,0],[0.5,0],[0.75,0],[1,0],[1,0.25],[1,0.5],[1,0.75],[1,1],[0.75,1],[0.5,1],[0.25,1],[0,1],[0,0.75],[0,0.5],[0,0.25]];outlineConnect=0;gradientColor=none;html=1;whiteSpace=wrap;fontSize=12;fontStyle=0;container=1;pointerEvents=0;collapsible=0;recursiveResize=0;shape=mxgraph.aws4.group;grIcon=mxgraph.aws4.group_security_group;grStroke=0;strokeColor=#248814;fillColor=#E9F3E6;verticalAlign=top;align=left;spacingLeft=30;fontColor=#248814;dashed=0;" parent="1" vertex="1">
          <mxGeometry x="337.94" y="270" width="110" height="20" as="geometry" />
        </mxCell>
        <mxCell id="IxSBL8WH6zTKbicjn3LH-46" value="" style="outlineConnect=0;dashed=0;verticalLabelPosition=bottom;verticalAlign=top;align=center;html=1;shape=mxgraph.aws3.virtual_private_cloud;fillColor=#F58534;gradientColor=none;" parent="1" vertex="1">
          <mxGeometry x="340" y="240" width="60" height="30" as="geometry" />
        </mxCell>
        <mxCell id="IxSBL8WH6zTKbicjn3LH-47" value="" style="shape=image;imageAspect=0;aspect=fixed;verticalLabelPosition=bottom;verticalAlign=top;image=data:image/png,iVBORw0KGgoAAAANSUhEUgAAAZEAAAEBCAYAAAC5R5gUAAAACXBIWXMAAAsTAAALEwEAmpwYAAAgAElEQVR4nO3dfXAc52Hf8d+JJFgRgGSChESCEUHCJECKlC0RYCKPLJGy5ExtidZYEl3LaaKZJIbkttPptJ2RZtrGUj3TkTL5o9OZxhGTtEkztRyxTicWLasJHZF0nDhDgEorEiRBmSQoCwcSb5JwAC3QyvaPvd3bl+fugH32cC/8fmZOPOw9t/scDO/vnpd9VgIAAAAAAAAAAAAAAAAAAAAAAAAAAAAAAAAAAAAAAAAAAAAAAAAAAAAAAAAAAAAAAAAAAAAAAAAAAAAAAAAAAAAAAAAAAAAAAAAAAAAAAAAAAAAAAAAAAACApZCpdgVQ3778B73PSVLG8JcU3pYJ/FfGv7yMYSfx8pmi+wgfLmPYFi2XiRY37jBjqGy8fMa8D283kUqXrVdsW/zgpfdRvl55fyTpYskSQAmZf/Fn91W7DqhjE1M5xz8xEiT1GCT3SzpS9FWgjBuqXQE0Asf9r2N4xTGUC/8YKR/fGC/vFN1H+HCOYVu0nBMtbtyhY6hsvLxj3oe3m0ily9Yrti1+8NL7KF8vwBYhgpQQJH4pggTXEUIEVhzDTwQJQYLrByECawQJQYLrFyECO8aTFUHilyJI0OAIEdgjSEqUJ0jQ2JZXuwJoEI6kjP9PaKPjxKfDhrfly3nvDe8kX96JTf+Nl3fkeJNxI/sI/Zg/eHhbtP6BZ4b6F8r7Ryzy2fL1cszTbB1JmcgHKVsvJ2P4XS/ms4XrBdhYzrcRpIYgKfLZ8vWq0SABbCznjwg2YidQgqTIZ8vXqyaDBEiOMRFYi40NGPvh8/31hu8sjJEEdhOpdNl6GX/X4YOX3gdghxBBKgiS2BFLlCdI0DgYWIedQN8IXVte+frq2gJsLOePCNYIEsPnrZ8gAWzQEoEV0wmeIPHK10mQABaW80cEWwRJnQcJYIGBdaTCiT1xT6CmQo5hI4PtVR5sBxKiOwt2Qq0PWiT12CIBbDCwDnt1EiSdbd1qbmqVMtLG1d1a1dRaeOsC+nYykubmc7o0PSxlpIlcVpOzWdV7kAA2aInAin9irKEg6Wzrdh9retTZ1p0PjJY0Pq7R5OyYJmazujQ1rEvT5zQ5m9XZKyciH0C1GySAheX8EcFWtYPklpb12r6+V70b92r7ut6KBobJmuZ1WtO8Tj233BXa/s70OZ29ckKXps/p7OUTmpjN1maQABZoiSAVSx0k7S0d6u3cqz1b9mlj29ZF1fXMZbeVMJHLajw3mt9aqNWl6WFJ0sa2buP7t93aq4ykVU0tum118WPftnpr6PXJ2TG9+dOjOnPlhN786TGCBA0h87WDn652HVDHxqdyoaasf2LMBLdFnyh2AjW8zf8peBLt69yrPVv3qXfjnpL1mpvPaWRqWKfHBjUyNayr13I6PTZoOmToSbExktCP+Qp521Y1tWpj21ZtXN2ttc3rtbGtO9Yqibp6Lacfnf+eDp99xW2hxHcfOnqxoYuM4YNkYgWC2zLRbfdLOlKyskAJhAisRENEqkyQ7Onep8fv6tfalvXGelyaOqehsUFdmjqr09lBjUdOzJJig+3meiULElP9t93aq55bd2nbrbtKhsrfXHhN333rD0NhsoRBQojACiECK+OTOcfUN5JWkNy+vldfu+95Y3iMTA3r2NuHNDhyJN8tFTmBmuq1xEHiPVvV1KJdt+3RPV0PFQ2Uw2df0XdP/oHm5nPB3Yd2XoEgIURgJfM0IQILE5P5lkgFguTJu/+tPrfjidBLc/M5DYwc0XfePOCPZ2QMZ8taDBKv+Nrm9Xrkjt/UXbfdpxtXhCcBvPPe2/pvP/6G3pk+F9x9aOcpBwkhAiuECKyMT+ackifshEHytT3Pa8/Wh0PbvvPmAb128mVdvTYTP06dBYnktk4+2/NlfeGO3wjt++q1nH77B/98qYKEEIGVzNOvECJIzhsTSTNIHt/1lB7f1e9vPz02qG8efS7cZWUMhvBRy9arBoJEkjau3qpfv/s/xGZyPf/6ry1F1xYhAis3uBP+ePCweXj/DT4p8NeOcoLb4uUdOWpuag0FyMDIET3/vf7AVNz88UzHCW1bQL1qZK2tS9Pn9Nz3f01/c/41f9ua5nW6Z/NDxvJ+vQyfyT9KpNKl6wUkxwKMsBM4Y6URJH2b9vrPR6aG9c2jzxl22XhBIkl/+ONvaHJ2zP/5zl+4L1LXeE3TCBIePGwerJ0Fe47kXfnm/tfbFi1W/oLE9sAsrKHRQc3O58c/MtFd5o/nxLt66nnRxrn5Ga1pXqdiKnFBImCDlgisOKEnjmFbtLwTe61Y+T3d+3T7+t7Qa+Ei+eOZjuMYypWqVw20SO7peih2BfySLCPPg4fF44ZqV4BHnT8K/+SfOIZtYaWC5NRo4aryVU0t+q2HDujxXU+5q+/G31Y4nuk4jqFcqXpVKUhWNbXoy7v+lX797n8f2t9cvhVW8SABLLB2FlLhKNhr4v4U3hYtb+7aMnl8V78+v/MrOjr8ql479S2N50Yju8wfz6mvrq3O1d26p+shffrjD8WuF5HcBRwL5Su8aCOQECGC1KQRJKeyA8Z9r2pq0ed2PqHP7XxCQ9lBHT33qgZGjvjf1uslSDau7tanP/6Qdt22p+TYh1RYCLLSQQLYYGAdqUojSIKGsoOFcZG829f3+tuGxgY1cPGIhsYGNTJ5VrUWJGtb1mvbrb3atm6Xem/bY2xxeK5ey4Ven7uWi+2wEkEC2KAlAivGE7bsgiQYHL/zF/9a7Td16PM7v6I9W/fFjn/7ul7dvq4QMqfHBjU+4y7xPjI1rLn5GV2cdP+tdJBsu3WX2ls68sGxS2tbOrS2TGtDks5eeVN//v9+Xz237tIjd/xmYfvlpbqxFZDccv6IYCv1IAnoXNOjoeyAfvfo1/XHf/s72tO9T3u7v6DOIvf62L6uV9uLnLdPj3n3ERn1L16cnc9pZHI4eoF3iBcknW2FOyR6YSG54bFYV6/ldOKdo/qL03+qS++53VaPfOKr/uuTs2NLeKtdIDlaIrBUYixCyYLk1OiA3xJZtbLV39ns/IxeO/ktvXbyW7qldYN2d+5VX+feWHdXMdvXeSf7xZ/00zA5O6bTY4M68dNjOvHO0fDHj/wuvGXhlyRIAAvLaYjAXrpBErRpTbeOX3wjVv7KzLt+oEjuOMmmNT1qb+3QpjXd6mzrWfLb5AZdmj6nS1PD/r3XR6aHNZkL3OPEMGsruET8palh/3mlgwSwwcA6UpJekJzKDmi/npIk9/qQ2D68/RZOoEPZQQ1lB/3XvF26rZSM31ppb+lQe2uHpGDLZHHm5nP+zKnxXFYTuVF/23huVBO5saLdYyWn/wa4LZHCq5UMEsAG3VmwYhystgyS2Q8LS71vWtNTZB/ettL3bB/Kuhcvev+WW/3XbcG0+nucmB3VeC56+9r4TqKhsdjpv9sj4yr+9F6CBDWOEIG1tIPk4uRZ/z3+leoZ0z68baWDpGy9AttGps767yrWmqjUdSRBE7lsMD5EkKBWsXYWUmFcYsTQV+qEnjiGbS7vPhqda7pjr5nKx5YGcWJFStfLVH/DcQrl4xvj5Re+REp0htdEvvXjGN5hXN7E/7yGesU2FV8iBVgsQgSpSTNIgq2Rta3rI29swCAJ8JeDj9WfIEHtoTsLqUqra+vKzKg/GH5La4fGZ0YVvbK9El1ba5s7tKfbvS3vUHZQp8dOFB27cT9vOl1bwZZIaAwmVv/0u7YAG8v5NgIb5U9WyYJkfGbUL9fe0hE+VoWC5L6t+/T0vV/3Szx6p/TSXz+vY+cOVTxIgi5ND0fGTaL1TzdIABvcHpeH5UMq333iGLYFX/GeOP7TixOF7qxb8lNyQ8cK7MuJPTHUKf62UL0627pDAeL51V/8N/71Jqbj+Jssu7aCLZHCEvCl6h94ZqhPoXy5/20AO4yJwM6CT1aLC5LcfGGab3sgRELHSjFI+jr3xium/OrBO54o1N9wHH+TZZB4zowN+r8oggS1jhCBvQoESbGWSKFY+kFSzKN39uvpe5/zb92bdpAUXXuLIEEdYGAd6XC0wH54t2C5MZLZ+Q/87ZvW9AReDJZPb4xkKDugx+7qL/rx7t3ysO7d8rB++PYhHT13SKfHBtMbI4k4ffmE8TqSSo2RADYYWEd6Ug4Sb0l4fw2sCgbJUHZQx84d0n1bHy75Eb0wOT12QsfeflU/PHfIOki231pYQPJq/h4i4dCobJAANmiJwErs/JlikASXP7m9o09DowMVDZJvHvu6hrIDam/t0OyHOZ0eG1Dzylbdt2VfLFy2r9ul7et26bE7+/X60Ms6du6Q5q7NhMosPEgKxnNZrWpqde9/IoIEtW/Zrsduq3YdUMfm5uafUyZ2Xvc3mE5W4ZNbxrDNteFjm7Sjo0+SdPziEb373sXC3gzlM4WDRqsR2RZ5c+BtI1PDGsoO6u3xk3rv6qQmclkNXDrihsT8jDat6dGKZU3+W1c1teoTGz6lB7Y9po6bN2kil9X7Vycjn9fwOwg8efTOr/r3Jrn5xjX6xIZP6a3Rv/Wv2g//ujKGbdGPmIkWL/J5M5L0x5IuGkoBC0KIwMrc1fnnJKkSQbJ5bY/uuu0eSdK771/QqdHB4G4rFiSmes3Nz+j02KAOn/mOrn00r1taO7Qqv8KwJK1Y1qTOtm490POYtq/r8wOp8HmLB8m9Wx72Q0Ryg+S+LQ8r+/6Ish+MxOuVbpAQIrBCiMDK3NUPnwuewdIMkhXLVur+ni9IcpdB+ft3flQoF9l/eE+VCRJJuvbRvE6PDer7p17WxGxWt7R06OYb14Te0d6yXr0b9+of3/4VfezGtXr/6qTeuzpZNEi+es9vxbavWNakX9r0WXW29eit0R/r2kfzlQoSQgRWlt312C9Uuw6oY35LpAJBkpH08Cd+RZL084+u6Y2z380XqW6QeEYmh/WDs99xZ2plMrFb9q5Y1qQt7Tv1QM9j6tt4v1Ysa1L2gxFd+2g+VO7ROwu3xT3xzlHdfONav8ts/c2dunvzL+vM5RN6/+pkJYKEEIEVQgRWCiEipR0ks/Mz+id9T/vbv/fW/wwUqY0gkdwbSA1cOqLXh17Wz//hmtpbwl1dUmGsY98dT2rTmm6tWLZSE7mstrTfoXu3FAbtn//+b+iHPzmkzrYev4trVVOLPrX5l/VXw/+7Ei0SQgRWlt31KCGC5MIhIqUdJJ/peUTNK1vVvLJVfzrwe5EQqJ0gyWQKXV2vD31bl6bO6ef/MB9rnUjS+ps3qXfjHu2740l1tvWEusNeGfyvmruW0w9/ckhSxr/74oplTfrYjWt04p2j8XrZBQkhAiu0RGBl9ur8c+aefqUSJL+0+TP+FevHL76h6bnJmg4Sz+j7Ixq4dFT/Z+jbyn5wUe0tG2JjJ5Li2zLuvVTe/9mkzlweVHtLhzbmg6i9tUOHTv6P+GcIHDxBkBAisMJ1IrDjSE4sLAoXMMReW+R1JBcmzmhHh3sx3irj/dbz15uEtkWrWNnVf0vVf3Z+RsfOHdKxc4fU3uoOuN+3ZZ82tm2VyRc/+VV98ZPuGMncfK5woaWkG1e0hMqmfh0JkAAhAnsVDJLZwEKMOzv6dGp0ILiLuggS773jM1m9PvSyXh96OTCD64nQ9N6gYIBI0pnLJ2KfjSBBtREiSEeFgiS4EKPhkHUXJN6T8ZwbKL0b9/ohcubyCUnmBRlPvHNUB370jUilDT8mCBLABmtnIT0VCJLZDwsLMe7o2C3p90x7r8sgkeSvDCxJp8cG9Wd///uS3K67zrZuzc3P6NLUcGgQx/TZbIIEsEFLBFZip6KUg+RC4F7rzStbE91qt5aDJNiVFVwrzLtCXrF6lb/VbvDgBAkqjRCBHceRk8nEgiGtIMn9rHBi3bSm2ztkQwTJqhXha0lGpoZTu2d78ODlgwRIjtvj8rB8SHIMtzxyFN/mlze85r8Uf1f4BlXrvUMW23v+iWPYFi3vxF4zlV/srXZjx3EM5aTYNST+bXEt75AYPpxj2GZ8G5AILRGko4ItkuAMrVtaO3RlZlRFv/mrvlokQcEFG5eyRQLYuKHa32N51PcjpEItkgvBlshNG0IF67lFcvv6ws2ovGXfw+WL/uZCT4p9tvDhHMO2eB2BxaIlAiuOoq2J9FskwQHn9paOWMH6bpG4RqaGzfVaihYJYOGGqn+V5VHfj8I/BSm3SE6OHvc3b17bYx5jiO+8sE8nUC72YrB8/AOZyqfVIuls6/G3TeRGi9er0i0SwMIN1a4AGkMlgyQXaIk0r2z1dh8rWG9BElzpdzyXLV0vggQ1iu4s2HEU7/7xX0una+vCxBn/x81rtwV3v6h7trtP8uVU/a6t4Oyskfz1MCXrVaGuLcDGcv6IYG0JgmR8ZlTtrR2x9aTqNUhWNbWGPos7A20B9apAkAA2aInASsmTrV/IPkiu5ENEcsdFgjO26jFIvAsnPd7V6VUJEsDCcv6IYGspguTyB6PakZ+YtWpl+Erv/O7rKkiCg+pz87kFr7VV+LwpBglggYF1pKLkgLS/Iflg+5WZd/1Xd3b0ybCnuhpsD66Z5V1kWOzK9qL1SnOwHUiI7iykppItkguGJeEXemOrWmyRbFoTbIkUZp9Vo0UC2OCKdR5Wj6hKtUiC03zv2LA78JLhXaFNjmFbpF5OoFzRSpf5bI6hXOS14NbgzKyLk+GAXOoWCWCD7ixYMZ+c0w+Skz89HnulXoMkOjNrfCa7sPqXqhdBgiohRGBtqYLEs6OjL/ZSPQVJZ2Rm1nhudFGr/xatF0GCKiBEkIqlCJKT7w4UOXjkeEXrVRtBsikwM0sqdGdVLUh48LB4sHYWD7tHQKWDJLgk/I4Nu2PlQ8crWi+nRF2DTxzDtmj5Ep/NMZTLCy8i6Q2sl6iXqf6l6rXYIAEs0BJBqioZJBfGzxR9LbjTWg+SYHdW8B4i1QoSHjxsHix7AivGKaaOaUqt/fTf4LUid3d9RiffPb7oe7bXwvTf4PTe2fmZyC5L1MtU/1L1WuD0X8DGcv6IYGupguStdwsztPZ98ld0YeKMfnD6z+sqSL6257nQzKyBi0cMv4elDhIgObqzkApj94nh+4lN19blD0ZDg+v/8oFv6D9/+aAe2PaIsXzoeEXr5ZSoa/CJY9gWLV/8s+3uvF+//ei3tWfrPv+1ufmcjg6/KsPbStfLVP9S9SrXtcWDh8Uj86t/FBmgBBZhfCrnBH+Ofut1t8Xf57cQMsFt8TdGtzX/o1b9py/+d21eG57hdGVmVH93/g29+n//JH8P9vBO43uK1itToq7BJxnDtmj5jJqbWrV78/3asb5XuzfdH1t9eG4+p//4vf7whYbxX0npepnqX6pepv9tpPslHYmXBhaGEIGVaIhISxMk/+7z/0U7N/RFS7t1mhnVj8+/oZOjx3Xy3eP+rK5KBklzU6t2dPRpR0efbl/fF1ulN2hkali/e/Trujh5Nl6npQ8SQgRWMv+UEIGFCUOISJUPEmXc5U+e+MV/VjRMPHPzOf/GVhcmzmr2wxnNzs/42zKSTo563WTmE/aOjj6/Drfc1KH21g1qbmrV5rU9am/pUHvrepUznsvqfw2+pCPD34183qoGCSECK4QIrIxP5ZxiY7NLESQZSTs37NYD2x/R3V0PxLqNqm08l9Xxi2/o+MUjOpV1g8p0gq9ikBAisEKIwMr4ZM7xTuYmSxUknp0bduuODbu1c8Pusi2UtM3N53Rx8qxOjQ7o4uRZXZg8q/GZ0dKfrfpBQojACkvBw54jw1Lu+ZeW8DoSSTr5rjsO4m3Z3L5Nt97Uoc1re9TcdJO62t0B+c1rtyVqtYzPZHVlZlRz+e6wufkZXZgc1sWJs4Ul3Rfz2ULb7O7Znsb0X2CxCBFYKpzpaiVIgu+8MH5GFybO6O/O/1X4YP63/IyaV7aGZntFv/mfHB1Y3GC76YRdw0EC2FjOHxHs1XaQGF/zX3I0++FMbHHHaNdQLd7YKq0gAWxwsSFS4vj/FPtashQXJBqOUPw1/6Vy9XJK1DX4xDFsi5Yv8dkcQ7lYXRdYL1P9S9QLSIoQQYoIEoIE1xtCBFbiJy+ChCDB9YSBdViL98sXOvHrcYyk1hZtrPgYCWBhOX9ESANBEqlXPQUJYIGWCFJDkETqVSdBAtjgplRIFUESqVcdBAlgg5YIrJhOQwRJpF41HyRActzZEHZMJ2wRJJFd1HiQAMkxxRf2TNNs3c3RLf4/xb66MP23zGdzDOVidV1gvfj+iBTQnYV00CLxC9ZbiwSwsZw/IqSGIFE9Bglgg+4sWFlQF5Lo2orVq8a6toCkCBFYI0hM9SJIcH0gRGDHeKISQRIoSJCgkTGwDnvGPniJMZJCwVoeIwFsMLAOW0clEST1GyTvCbBASwRW1ra17K12HQBUD2MiAIDECBEAQGKECAAgMUIEAJAYIQIASIwQAQAkRogAABLjOhGk7tw31SWpK7DpcLXqAqCyMr29vdWuAxrPX0p6MPDzlyQdrFJdAFQQ3VlIW5fCASLDzwAaBCGCtO03bOuXtHqpKwKg8ggRpK0//++0pBcD203hAqDOESJIU68KA+oHFR4HIUSABsTsLKSpP/D8sKRBSedVGCfpyv9cSq8KXV+HI9sfDLw+mH89OvOrS25geTPEpvNlD+SflzquN3YTHMM5nK9zsYkB0ZloC1FqtppXd68O5wPHL/W7K/Z7K/b7KLc/YEGYnYU0Tck9kU1Lastve0HSM/nnzyrcxWUSnNnVJ/fE94KKn6gPSHpK7kn0BRUfxD8v6bOKnzj3l9m/ZzB/nMHI9mfy718M0+1SHpT0Upl6HJD7OzSFYfT3tjpft2K/j2m5n4dZc7BCdxbSsl+Fb8LBE9OBwPNgS2UhXpL0igonVu9beVB/vtyA4i2IoK58uahoS2Ja5hZOb5H3p6FfbghE6xENLK9cuUkKLyg+zTr6eVbL/TxMeIAVQgRpCY55BEPkvAonwy65J+OF6pV78vuS3G/vHw88gmHSn//52fxrGbmtjozCIeZ1qQVN59/nlW/LP/d+fjZSn+jYzsFA+WKPwUj5IK+l5Tmc/wxtclsUGbktBq/1sZAwe1DFfx/BluBqMf0alhgTQRpWq3ByPa/4t96DKoRHv9yT4kK8qPBJ3HNebjgET759MnfzPKtwCyg6LnNApb2ocHhEQ8jUOgp6QYXP7nWJBT2jQmtgUO7JPupA/hh/mf95f36f0ZaK56Dc4DV5VoUxEmnx4zlACC0RpCF4kjb1sSedpVVqIDx6Ai1WttQ+FqrYybqcfhXGg6blntiD9Vmt8O+u1HhRtIut1O+xXH0ZUEdqCBGkoVhXlifYpRU9cTaqaLeTaVA/2rVXbpA7GCJ0Q6Em0J0FW8FxjmBYRAW7tB5U+W6kavCmEHsGlawls1qFrifJPKtLhmOVEyzDtErUBEIEtoKtikGVnlLq8frka6Vb5RmFxyZseAHi7etFLSww0+h2A5YcIQJb+yPPFzrmsV/lrxlZCsHrWKT4QHnwIr6F7s9rJRyUeWIA0DAYE4GN4CyfJO+ttl6FA+QpuVNig9Nz27TwIHhGhZaZaSZWVLD1wSwp1CVCBDaCXVcvyr0OodSjLVC+V9Xv1w/W/4Dsxmn6VZhybJqJZRJs8XSpfIsn+PviRl+oCYQIkorOslrI8hnTqq1FGYMhYjM+4y254jHNxDI5rPhYUSnB1wkR1ARCBEkFT2ilZmVFBU9+1Z7qG6xzse6k1SrdYlotd2kWrxVRbCZWMcFxoVKD+89E6sGaV6gJDKwjqXLXhhRzUIXrJ7wr3at1QjQtneKd1L3Vb8vN2goumnhehYUPSwkGx4HAMbrkrgH2ogqrBz+Yr0cwcJ9V7cxsw3WOEEES0VvgLiYEvC4tL4QeXOT703RA7snZ+4b/gswr8nrlTIIBE10Hq5hgiEzL7f7ypgUXWygyWJdamNUGSKI7C8kk7cryRLu0qrmS7GdVfHzhoNw1uSp9YeTgAo7jLai40HXHgCXB/UQAl9e68m54lfRqdVveyrrBMRrvBlxAzSFEAACJ0Z0FAEiMEAEAJEaIAAASI0QAAIkRIgCAxAgRAEBihAgAIDFCBACQGCECAEiMBRhxPfHuxBi9j4i3/leppU4We5tc5fe12HXFgLpCiOB68IzKL+nueVHm2+G+oHD4LMRhuQs8Ag2LEEGje0mLu/kVi8kBi8CYCBrZM6r+3ROBhkZLBI1qtYrfYOqg3PGKaRWWXO9V6VbIQZVejn2/4f2Mh6DhsRQ8GtV+ufc+DzqgytzUqVfubW2X4lhATaE7C42qy7CtErfh7ZV7a9sgAgTXDUIE15P95YssihcgwVlfBAiuK4QIGpVpPKJf7mwtUytlsbpEgACECBrWYZkvHOyX9BO5AdCvxV9AqPx7XhEBAmhZR0dHtesAVMq0pH1FXuvKv9affz6k4lerR/214jOxvCvhOyRlF7EvoK4xOwuNzuvCWogDcq9WLxcAzgL29azcq9+BhkZ3FhrdAUl9Kn2Nh6df8XGOpF6Qe7Ej0NDozsL1ICvpT/KPn8ntcioWFN5rh0rs72dyQ+mw3GnDP8q/J/p/pgfzx6RrCw2L7ixcr/YHHiZtWvzJ37ROF91aaGh0Z+F6dVDSl+SusmsKiyTfrkyr//ItDQ2NEMH1zuuSSoMpjNIYXwFqFiECpDdmYbqI8XxK+wZqEiGCRrVaC7syvUvm5eKjV7wvZMkU06rBrOSLhsZS8GhU3rpW3i1qvSm+3kl9db6M6ar1A4q3Tl7Jbzuc38f5QJleuTOxonc+nFZlFn0Eagazs9CoHlR8dd2FmJZ7XUm0G2ohFxhGfUmECBoc3VlAwbTc2Vq24xjTctfRIkDQ8LjYEI1qWm43lfcoV/Z5SU+qeIBkJd2o0uMs03IvLnxSC7tCHqh7dGfhetCVf5j+2IPjJQvhjaWYboVLcOC6Q4gAABJjTAQAkBghAkOFN9cAAAC9SURBVABIjBABACRGiAAAEiNEAACJESIAgMQIEQBAYoQIACAxQgQAkBghAgBIjBABACRGiAAAEiNEAACJESIAgMQIEQBAYoQIACAxQgQAkBghAgBIjBABACRGiAAAEiNEAACJESIAgMQIEQBAYoQIACAxQgQAkBghAgBIjBABACRGiAAAEiNEAACJESIAgMQIEQBAYoQIACAxQgQAkBghAgBIjBABACRGiAAAEiNEAACJESIAgMQIEQBAYv8fxYO4X5Xvj20AAAAASUVORK5CYII=;" parent="1" vertex="1">
          <mxGeometry x="1150" y="488" width="220" height="140.98" as="geometry" />
        </mxCell>
        <mxCell id="IxSBL8WH6zTKbicjn3LH-50" value="" style="shape=image;imageAspect=0;aspect=fixed;verticalLabelPosition=bottom;verticalAlign=top;image=data:image/png,iVBORw0KGgoAAAANSUhEUgAAAUAAAACWCAMAAACYXqEeAAAAq1BMVEX////3hCYgHB0AAAD3giH3gBqeTx3//fv4iTD9uof8+vj+4c75mVD+9vD91bb8wpSioaH18/L+59bCwcHf3t5nZmbV1dX9zqv+7+SysbJ3dXb3kUH8yKD+28KpVyH7s3+bSRFZV1iHhYbt6Ob6q2+WlJX5omDNzMxPTE02MzPtfSQtKyzm0cTgdiM9OzvOayC8YB6pYzXHl3jSq5Ozckjew7K9hmQRERG3fFZ7xeHkAAANI0lEQVR4nO2dCXuiOhSGxYIgggJ1xaUC7lpb7Tb//5fdrBAkQTrVK1PzPTMMYlB5PSdnAZxKRUpKSkpKSkpKSkpKSkpKSkpKSkpKSkpKSkpKSkpKSkqqzNJtuw9l26Z+68/yj8n0xqOnhWUNh4ZhDIeWtZi1mg371h/r35Du9Z4sQwNSgRQFLlX4UBkuWhLiOXmjhQHRKRwBjIpVH5u3/ozlld2cQXo8eAlExRr1b/1Byyl7ZKkZemrWGFVt+OTd+sOWTwAf8NBTVCoIIUaWqmZIhGnpTSvruqrx1PT6/cYo+xxAWJeOnMibqafWpyjaglqZPTJ4jtyT2SGWPjKy+BTtKUlZ9HGWIJgeZ9IIofozXtaiLVIpXy87AowZNm/1oUukhsUxPzD/paOEPuOOUlp3nxX2eO4LHRg/3Rg1sSWOeaPATDi779pEbyn8vFlDzqmPFE1doJnOtgQDF/ec0Oh1ftFGPdiDeLU6Gsv1YUjQul+C+pMAiqIOEZWehgihdEUEEISSeyWo10VMqAWOEcBZPkBFvVcbbOW0DdQxHGEvNE0z0Kq5EAPUrLtMCHuC+Q/7ZQuNseuLGeJX8TipdDJ6cYexmFdcMFY1JEhoudYSGiAi+HR3ZV1/mEuEmiBVrgHC4aMbHcetZIpjAjFBpccM73PLFVZG42bHchONzgEBBEexW/LLvbQJWnc1DZ7zSAhwaC2atg5P0dWHgjIkRbB+64P6H8VvDZwC9EaWNZvNFsOZlx9C8Ph7cuLmeYMCs5pXsRu90WgMkjxhycKa4OJcZ8YddPbb6rozoAMHjuN0K5VHP+jMXbihGwadsJ3s0Q1X++p2H2+KHFYu3mgO/CDw6SPwEAg8gFvnbuUaEjUGTpRYlC7OohmpvZz3BJpvq0TrR7ShDddXuo+2bQHJED/tkB3aK7pD1cck5lVWA7RtsK6mdnPg+twM8Dt1L0qOqIBDQh5Jt9QsRPxMHPHZY0fHhQESatWtG+PBZLpbZocO2sQB6CSPfQZgh35XV7DB/rCQATKZoF1wj7xk0Ekd+yoGuE8YxWt7+Ky5T+3xyAf4yG4I4zdKXssRfqK/VjEDZMNqgaANpeaZIHK0oOsuMZeIAuTKjYk7UTRPzGsZIOGX2LqU8mowwMTamW+KmO4lVXAGVLRZvEuj0A60DctVF1mWSdeQQRGATvuRTGP+comnPejhndh+kPOvktfSV7EBOvG3EVDKBKATYePcXxxgrxg/Nqo2i9ks2EVYEked1Zq405oefbuaPuhOjBcCdIChrdFHcE5AzBPTCtKeC43Sod6sh2jTpfkVi6gK008oUrdQ5eaC5AvZpwEu4zW4zY23JXsM4KZ1/DKYMYoOZrxfYthO/BVgE7wUOKpGsfkMyIi7fOLO64nOlSPuoxP61TRA6H8JNjMFEIwZzP1VCqC+j+eAyjKGRXacU1OEA7tXAVgwhChsf6BA4YLFWG1WUZjkdQzAxJIQCBbgwF/HO8QAw9jxiW1WcZpNNycOfxWA5vm+QCwaEgp7Pe1kc5WOjjyA7TTAKGB3oAAxlb3LvCYGiLLGDtm2uhrAogFVYdK6onFbSc4nC/kFIS5IzgN0savuw7nPACTZ4ZJ9UQxw/f8ALB4Pkky6YOYNpVqCghjDCtxKJgqLACZzpcMAxA4ckldlXXjLuvDVABbpw2SsqWAejWQIztAhHCgPrBSzwAitoMSHAYijxop+S/ghrqwp2esCLFiUYWuiWd24+D6KJugo7Il90IjrnAOIcxAYorHVoXyOuLWzjPCrJq+VZELXBfiNKTBxx6J5NAIomAQTz8Nu558D6MRPYvjo2aQhscVNsVX8vQzo+OsCLFqGIIA0J/nGvCksRtb0sEycy8A8OBfgIPZO0i+Y02FUsCmGihJYf+DKD1Yn1wVYOCVW0OUJ3qjVatpF2qkJdf5JdpySzN0l7ZP4LEA3C5CkK113QLta7dPuQwB2xMlLRFphy2sD/E4MAcItfesb8yYQP4qkG1FVlOrmWqC5Pt3DIURYgOnsEvnyVQF+I6NTVdVoQWsyxyD3/kbo4afSTHfPgU68b59LYwYJa7QaYiLrTjh35n5AALJ92iBpPVwNYMGERNU0Y2jQSsReKMPsLSQCicJwlxBcDyrtdXWf9AOFlQg12k4EV8EUWInWnUc6xUbzPS7nwtj+cMy7KsBiGR2gtxh5i6S/3B82x7PhmZuY6M6ifoLu+EHQgad7Ku0QRVc99H1/jp6cg7VQx2sdn5wBaYedVRAimM5AfFDtcL/d7n169qMNXspHw83k9S+lhnEWALyZq9UwKw3UXu43UUehNYOrhRiKi7nfIP6Vzml69QZyBcgMXdIBXRLTrPR7i3M307GN7F+oXIBgmrPqY9qPqkNXBBmgBtPpfpyc4Ns57xZgM4/f8GnMdPMQwKamoszYY7I7HTDMico5bf1foJxLEtRWuhc6WoCF+WRYcBIcp686MBs5qeHwOlcDlENigORK6EQevna8j8jNTkNrU2iD6n0CVLOX2j8lSMecZ0Xz4OZXA/zYiAwwm/7aVp347XjIe1bwXfxqC9R3AoAZBwZjdc9aNPum7dWNVvZ3T3RRQN+cvUjrX5YAYOLApt33Gs1eq/40s4aGpgyHaGktZk+tUXPs9ePfkBHdpaMtbnZ0/4MEAKkDe5CaAWs5jfx0B/3pE7xFMQzAkgy2+bd5akf+W7c7rOiJ38cwqG6DsHs6yneWpZwJds98B8Ze51nkt2KEQr8ho5AiecyNxCKAjw+s8EUeZoc+DvXMqGpO+XsztV94VMiJIK/gKWNVJafreN1ZdfPGf2sOwPYarn59weWKMyq4Oo9vK3rhGI2KLco7c+dIiiAyGK4TP+cA7HaX5A8+1wFND/YFA7AyYEZ1l4OwGm8rk+z3LEDiwI3C/BKCPCd++eC/NUST3jJIEAFXrprpUe6ebiuTzM9MFCER+Dv8YKioI4IcJ37d8d86CxA4ML36sQ2efDwZtYTGeHkEP9QxMwliB0b81MKiBLNOrL1H/HfOAHxkAQGY89NR1TL68Nvr6QEjBx7DX04wigvuiAhmLpZ7fhe4XQag8/CQXPMXEGtkRwEfDitl027CM0B456Zq9BqFBU/uaU8mp6J7+RS8cwagz4bZQRCEp6MAQP/yBH6o6HCaCYI6Dd35evpDJ7lCVQgg6GUq4ldBEM4CDJIpkD+qSty6VNL/nE6CqrpAbggB2r2eDRv3TeCd/dE4XnojeK6SLhu0F6MuMpFnMxHEkCxArocyo+DqMjPg5no79WGIUKEAW7Cr2q/D+zS9ei9eNurwDCdejuGS1MHZ0yMvB1EFBnnElRycJ7c8A0sARuD5i18gfgHtatxqTsH3xmGAraIAs9/FRFDIndQYuQDbQMt5ORNpkJ8eTuMwPfZLAHyeCtLo7wCMVb4YDHWcCnqClwD4ehBkgXGRhgU3nANYymZCBfowr6FwGQvcTIUenA0iaxFAeDPXupwTIJT5XuOb4AUAvk5FMZgDcMVL8+iodklnQKi3KdcEL2CBm+m7uAuaAdhh80C33Y5SowDey9/ldhlFB74J/hzg61SURVc4AOdxE7CCypJValRJs0Ck45QXiH9ugc9TcQjhABw8PHzFdTPNqpNR21I2VJGiCTcX/DHASZ4BZgG6X7SzDwqkLzLlJaMcmBFe/Ngvo+N0knXiH1vgS64BcvqBIZjmiAlCWuk5sGJWy9hLwIoOvDjyQ4DPtVwD5ACMgNnhW2aWMSxmFOD7VcozcxUYiLNO/EML3EzyQnAFo9nHQhngHKbLwdxfwX/deBTZISptLQKmn3eOE/8M4GutJqzikNJn5cjdql/0Mf15EtZOO2U8KUK0q2Ui8c8s8KWWU4Qg8QBWuiuEsEpPC6cAdh+SKFM6Hae1U4I/AQgmwNwIkqP2oJzXIJwRcOKTmvgnFvg8OefAv0+7wynBvwe4mZx14F+oj1otRfBvOtIJv8+yzvbXkw5ymRRBAFD3PPSDgfD0ku31xUsWIPDfqehk8K+WeUwRVI2Gaeq6CYQWuUsGIOR3KGvNdV25n4AgE4uHVmEZKX7CM3G/XZhgklEXv7QjPhv3UrtjfoTgRHSa7rw2oP6YHu6XHyAI50HWCL8lmP7dNz8QSd6mf2uE0PzuNP6y0j8myAi/jfBlAvl9/otl2IW1e4cEJ9/zY4xv8nZ/+TNH7rEGERa3wg3CB9z3vqc/RsAICcICZvhM8E3epPvGct8OiCDw5HyGm5dXNG5a+9zF/1WGFIgl0XEypQxf+BA3z4RebTr98yHpnap9PBCECOLL8/MGc9xsNs+A3WRCnpzW/nzI4MFT9PZeixlCjFTJJvD84biT1ieSuzseUgxTmk6nk8+Pe8+cz8ndvf2BEFMY4cPp5P34EUnjOytdr9i7t+Pn++EAvRf8PRwOf45vEJ4u+RWWbkfRbrf7AH/bkSuDxt9Ip0tpeFJSUlJSUlJSUlJSUlJSUlJSUlJSUiL9BxBgMvo9shF1AAAAAElFTkSuQmCC;" parent="1" vertex="1">
          <mxGeometry x="1246" y="824" width="162.67" height="76.25" as="geometry" />
        </mxCell>
        <mxCell id="IxSBL8WH6zTKbicjn3LH-57" value="&lt;b&gt;&lt;font color=&quot;#ff8000&quot; style=&quot;font-size: 36px;&quot;&gt;XLRT SAAS ARCHITECTURE&lt;/font&gt;&lt;/b&gt;" style="text;html=1;strokeColor=none;fillColor=none;align=center;verticalAlign=middle;whiteSpace=wrap;rounded=0;" parent="1" vertex="1">
          <mxGeometry x="590" y="20" width="650" height="30" as="geometry" />
        </mxCell>
        <mxCell id="IxSBL8WH6zTKbicjn3LH-66" value="" style="endArrow=classic;startArrow=classic;html=1;rounded=0;" parent="1" edge="1">
          <mxGeometry width="50" height="50" relative="1" as="geometry">
            <mxPoint x="580" y="530" as="sourcePoint" />
            <mxPoint x="690" y="530" as="targetPoint" />
            <Array as="points">
              <mxPoint x="640" y="530" />
            </Array>
          </mxGeometry>
        </mxCell>
        <mxCell id="IxSBL8WH6zTKbicjn3LH-67" value="" style="endArrow=classic;startArrow=classic;html=1;rounded=0;" parent="1" edge="1">
          <mxGeometry width="50" height="50" relative="1" as="geometry">
            <mxPoint x="788" y="670" as="sourcePoint" />
            <mxPoint x="788" y="620" as="targetPoint" />
          </mxGeometry>
        </mxCell>
        <mxCell id="IxSBL8WH6zTKbicjn3LH-68" value="" style="endArrow=classic;startArrow=classic;html=1;rounded=0;" parent="1" edge="1">
          <mxGeometry width="50" height="50" relative="1" as="geometry">
            <mxPoint x="790" y="800" as="sourcePoint" />
            <mxPoint x="790" y="740" as="targetPoint" />
          </mxGeometry>
        </mxCell>
        <mxCell id="IxSBL8WH6zTKbicjn3LH-100" value="" style="shape=image;imageAspect=0;aspect=fixed;verticalLabelPosition=bottom;verticalAlign=top;image=data:image/png,iVBORw0KGgoAAAANSUhEUgAAAMYAAAD/CAMAAACdMFkKAAAA6lBMVEX////nikmTVC+PUS6ZWDG2ajnqi0rAcT3sjUqqYzZGRkXDcj7ehEaRUSqUVS/8+vikb1TphTr54tPz8/NAQD9lZWNcXFvLzMxKS0o4ODfmhkLT09O9vb1VVVTSuayQSx/g390yMTCcnJuKiomtravHxcLqkVL99vHs7OxvbmnvpHBhYWDyr4H41r/53cnp3daRkZB3d3fi0sm7k32dYDy0tLPz59+9d0bAm4WufF/wq3u3i3KRShvarI++ajHyt5HwoWyzdE/lwanzto6eY0TLq5rsupvkmWXsmV74yqrZwbUgIB+Vmpt9gYIh8wJrAAAJFElEQVR4nO2dDXebxhKGJcdxfUlUqgAL4iNeg+QgU8dCttykaW9867Q3uQ3//+/cmWER0qkkq7FAq555T06sjwXNs7szs+xylk6HxWKxWCwWi8Vi/T3dvdm3BU+XOf3w0+XbQwe5fnfbe+5f/Hi1b0OeIPP6fe/s6Nnzk67fv7w61BaZ3tz2jo4Io9v1L34+RBDwidseUigMADn98eBA7m6Oz45KVRgA0j00Z3/9S+/oLxjYtQ7L2V9XbbGMASD+ITn7WoyyRcx927elNmBgixxK1NqIgS2ir7NPf63r+BEMbbsW5Inv/92/+PiqJHkUA/OIfi2CY6dn3512/c/3V3edrTC0C78wdjqGjI0Y6L84fvp9Gwwo3NfH2afvbstRB2Ggcd3P/+lthUFjLU261vty7FRjdLun/3q2JQaAnOjh7D+omv9GDF2c/ckYejj7DjD25+zT3yiy7gqDWuRtyz5iXn+4fXF6evnHqzfmrjDav7CCEHv27AUkO//0/uG3T7vCaHeshRkbkt0Lsu7E94+PdoZRdq12MD5RhlYY3e7LnWLQhVUrLfK+1yhGW+G3cQxskeacffq2HIW3gNHcWAsc++XF/cPV3ZtWMBrJI+b1zfHZ8UsIS/1+Xw0Em8bY/VjL/B2H4oBBZn/fFga1yA45TErUe8DodvuvGIMxGIMxGIMxGIMxGIMxGIMxGIMxGIMxGIMxGIMxGIMxGIMxGIMxGIMxGIMxGIMxGIMxGIMxGIMxGIMxGIMxGIMxGIMxGIMxGIMxGIMxGIMxGIMxGIMxGIMxGIMxGIMxGOOfjPH+bD8bdHT90x1idK5vbns9wvB9v7XtUuA8u974BTeleun3u5cf//jUEkYju6CZ1x/+izvwtLSVUPN70rWB4V88NL1pWPMYrezX+EPTGCet7AxY7lTaFEZr2xuW+8YSxgnE353upNfuZpMYfl+c+qefH65emTvbnrH9rT/N6c1P9x/f3mHz7wpjPxuxvql68G4w9rDl57J2gaHBJsVPx2hyG8PWMHTY0xdUPaOixvD722Po8+yE63e4/3iFceJ3f/5ys+XO3e1tuLqNpje3ZyWG379/AGfdajt4/Z4rgtsV977zYWD6hQLxNhgnWj7lBRLi5ZfqkvNxjL3niXUyFx6X9RjGgTwBaTOGJiH2cW3C0GMT+620HsPv6vFIga30+pfVGBqMnf6O/ne86rlNOj1uYztdq4dyLGAcjGMvypx+KMdaCgMc+8BaotL0hp71ghiaPhhoS+Gz8gBD58c0bSUYax09P5iHZm3S9NcD7k4L+kdAsFgsFovFYrFYmstMQYc/+E7Oz8+9yb6teKrSxDYMOzn05nANlB3u246nyUoIw5gcdnOkETQFdKtIbnnAo7grCjRfRcPI8Ca5bUSx+sAKAtfqBGGRzAJ4G7hJMQwqO4IwyZM4DFK0LVhUWUIGcZJPXKmKS/oimBVJTIc0JySQ0jNsp7LU9qI0djzbtp2wM6MXKpClMZQDGV5uAW/u1RpbWGCWewMsPlZ1Enqe0QlyPMYrmmySEPpTYaWOYQxmCmNgCMfxPOxsY8cBKA++JLsKoECbDYK2yDzskFgSMWLqnRGAi4KwQvgKorkXwckGRYMYQzAB7J/Bn+EcA6ycBWGOgVhMAjeHv9gcAdSpGAUBHIOuZBVCiGycE0Zs0rkMkbtB4kB74QeEYXhhEEAFGJlsjEIKw86h147gZ6JgjuGMkBDrOYEXLnwpwIZhMslcLILQUMJEdeQAi8E5LLBeJFQ30LhRqjAEeZhoNKaH0E1yfAE50BvWGPTqHGygvgHtoqqy9FOFUX4CJnsOfjuEAxMq30m8sv1C1U5wCNRJcxhQgYOR+hk7qzDIhI4FGJmlGIWsDpHDeFxjpJh2xmTgsLY0iAy7UBhl5QybxKC2nkFYlDgiiUYKY+AqDDtfwrDkUDjRYGDPMSwHnNeg4ljKVmECI1+LGDH26yiy7UgYyo8JY6QwjPESRiwie2BkmeMpDCtGCmUe1oRqI9lqa8isHE/RP0M5+XqMGIrncVpaR0UgdxqRaoFFS9vFwBCUCSV01XAjRlG5SIWBx0fzwRhaqpCGKnK0gmGhq06slGTF8ENOugEDq5iimhmXGAH2KBWbOmUmpZDVsTK7dLRWMFJRGq7eQdV67gYMyNoUlM3QI+ukg38noxkJCubQBlEgpYuJszDbwviKP1u/jWyq7fWdajKADDGcxeRMQ0jq5FgDEmY710H/EhkOYyiBtoKBY6LIrd+7ELGgUwTnNYZdYdiIEThkthHlUDLGgnPZlLQDbA+oDMMryvMuYTSUxWcR+LWs30tHiAgqORIlnOUJofJGJMZYMCgEhOdEdmA0lUkZiQVR54SBmBC2EGE6/4lIYcCrWacJWagVH8B/5vz98gvTSqsiUMZaVH2OtD6ruXSKpR9jsVgsFovFYrFY3yLLXdKomjlIZTIGxXJhhjyV4WzoarkO6qrLU6U/1ZXQCC/9cKI/iueX8bM8wuvYbNjsGsY3CWdvFnROJqYxLQuUqwFOOXddzlnTR4Xco8GrRfPo0VwGYSQIEeVxIXDeoJyfHuG0uRPngqaL9mrzCrk4K57KucyOml8TqdWxUlyxoClbC5c/EvgIlwM8uWer/yLEiJc/oiX0an4N5zpsCRjgK+VcPK2/tWrjFlqBIb1qXhDfZCIPcXqhyIRDMerrgWDE0ADJ/F1qlgGW1pxQY10xJnPPoPXgrF4hXCEpNPUNow5UNNkOdg7kuvLWBBwn1i4DLucNWm7ONmCYcb0KqpMQo07kfz6GMcNp6PU9bm9C30jqmymUb6zBSKktEu2S38pIJep7GZYlC6LQcEi1CqNYCrjxpPKENNG1LVZi4CrZuKryIBsItVo+QYqZdkGKtCaLG5Ub42CkTBMjTb2btAIDV1iNiEaxKa6Ie+QodJdfXi6E6nflhAHXiWth/pM5LoTnYRjiCzuX8JmJ7m1E4wylX+Kg9GfPNaBbGGS+kBTp3hxaz62z5GjzSduXq25dqAwsb3CTX/GuLwT01KXeZLB4jagdxihzFpWpSGvJInPOPccZqZBVLJYT7voTslgsFovFYrFYLBZrZ/o/gheq85N8R0IAAAAASUVORK5CYII=;strokeWidth=0;" parent="1" vertex="1">
          <mxGeometry x="994.12" y="1120" width="85.88" height="110.6" as="geometry" />
        </mxCell>
        <mxCell id="IxSBL8WH6zTKbicjn3LH-101" value="" style="shape=image;imageAspect=0;aspect=fixed;verticalLabelPosition=bottom;verticalAlign=top;image=data:image/png,iVBORw0KGgoAAAANSUhEUgAAAMYAAAD/CAMAAACdMFkKAAAA6lBMVEX////nikmTVC+PUS6ZWDG2ajnqi0rAcT3sjUqqYzZGRkXDcj7ehEaRUSqUVS/8+vikb1TphTr54tPz8/NAQD9lZWNcXFvLzMxKS0o4ODfmhkLT09O9vb1VVVTSuayQSx/g390yMTCcnJuKiomtravHxcLqkVL99vHs7OxvbmnvpHBhYWDyr4H41r/53cnp3daRkZB3d3fi0sm7k32dYDy0tLPz59+9d0bAm4WufF/wq3u3i3KRShvarI++ajHyt5HwoWyzdE/lwanzto6eY0TLq5rsupvkmWXsmV74yqrZwbUgIB+Vmpt9gYIh8wJrAAAJFElEQVR4nO2dDXebxhKGJcdxfUlUqgAL4iNeg+QgU8dCttykaW9867Q3uQ3//+/cmWER0qkkq7FAq555T06sjwXNs7szs+xylk6HxWKxWCwWi8Vi/T3dvdm3BU+XOf3w0+XbQwe5fnfbe+5f/Hi1b0OeIPP6fe/s6Nnzk67fv7w61BaZ3tz2jo4Io9v1L34+RBDwidseUigMADn98eBA7m6Oz45KVRgA0j00Z3/9S+/oLxjYtQ7L2V9XbbGMASD+ITn7WoyyRcx927elNmBgixxK1NqIgS2ir7NPf63r+BEMbbsW5Inv/92/+PiqJHkUA/OIfi2CY6dn3512/c/3V3edrTC0C78wdjqGjI0Y6L84fvp9Gwwo3NfH2afvbstRB2Ggcd3P/+lthUFjLU261vty7FRjdLun/3q2JQaAnOjh7D+omv9GDF2c/ckYejj7DjD25+zT3yiy7gqDWuRtyz5iXn+4fXF6evnHqzfmrjDav7CCEHv27AUkO//0/uG3T7vCaHeshRkbkt0Lsu7E94+PdoZRdq12MD5RhlYY3e7LnWLQhVUrLfK+1yhGW+G3cQxskeacffq2HIW3gNHcWAsc++XF/cPV3ZtWMBrJI+b1zfHZ8UsIS/1+Xw0Em8bY/VjL/B2H4oBBZn/fFga1yA45TErUe8DodvuvGIMxGIMxGIMxGIMxGIMxGIMxGIMxGIMxGIMxGIMxGIMxGIMxGIMxGIMxGIMxGIMxGIMxGIMxGIMxGIMxGIMxGIMxGIMxGIMxGIMxGIMxGIMxGIMxGIMxGIMxGIMxGIMxGOOfjPH+bD8bdHT90x1idK5vbns9wvB9v7XtUuA8u974BTeleun3u5cf//jUEkYju6CZ1x/+izvwtLSVUPN70rWB4V88NL1pWPMYrezX+EPTGCet7AxY7lTaFEZr2xuW+8YSxgnE353upNfuZpMYfl+c+qefH65emTvbnrH9rT/N6c1P9x/f3mHz7wpjPxuxvql68G4w9rDl57J2gaHBJsVPx2hyG8PWMHTY0xdUPaOixvD722Po8+yE63e4/3iFceJ3f/5ys+XO3e1tuLqNpje3ZyWG379/AGfdajt4/Z4rgtsV977zYWD6hQLxNhgnWj7lBRLi5ZfqkvNxjL3niXUyFx6X9RjGgTwBaTOGJiH2cW3C0GMT+620HsPv6vFIga30+pfVGBqMnf6O/ne86rlNOj1uYztdq4dyLGAcjGMvypx+KMdaCgMc+8BaotL0hp71ghiaPhhoS+Gz8gBD58c0bSUYax09P5iHZm3S9NcD7k4L+kdAsFgsFovFYrFYmstMQYc/+E7Oz8+9yb6teKrSxDYMOzn05nANlB3u246nyUoIw5gcdnOkETQFdKtIbnnAo7grCjRfRcPI8Ca5bUSx+sAKAtfqBGGRzAJ4G7hJMQwqO4IwyZM4DFK0LVhUWUIGcZJPXKmKS/oimBVJTIc0JySQ0jNsp7LU9qI0djzbtp2wM6MXKpClMZQDGV5uAW/u1RpbWGCWewMsPlZ1Enqe0QlyPMYrmmySEPpTYaWOYQxmCmNgCMfxPOxsY8cBKA++JLsKoECbDYK2yDzskFgSMWLqnRGAi4KwQvgKorkXwckGRYMYQzAB7J/Bn+EcA6ycBWGOgVhMAjeHv9gcAdSpGAUBHIOuZBVCiGycE0Zs0rkMkbtB4kB74QeEYXhhEEAFGJlsjEIKw86h147gZ6JgjuGMkBDrOYEXLnwpwIZhMslcLILQUMJEdeQAi8E5LLBeJFQ30LhRqjAEeZhoNKaH0E1yfAE50BvWGPTqHGygvgHtoqqy9FOFUX4CJnsOfjuEAxMq30m8sv1C1U5wCNRJcxhQgYOR+hk7qzDIhI4FGJmlGIWsDpHDeFxjpJh2xmTgsLY0iAy7UBhl5QybxKC2nkFYlDgiiUYKY+AqDDtfwrDkUDjRYGDPMSwHnNeg4ljKVmECI1+LGDH26yiy7UgYyo8JY6QwjPESRiwie2BkmeMpDCtGCmUe1oRqI9lqa8isHE/RP0M5+XqMGIrncVpaR0UgdxqRaoFFS9vFwBCUCSV01XAjRlG5SIWBx0fzwRhaqpCGKnK0gmGhq06slGTF8ENOugEDq5iimhmXGAH2KBWbOmUmpZDVsTK7dLRWMFJRGq7eQdV67gYMyNoUlM3QI+ukg38noxkJCubQBlEgpYuJszDbwviKP1u/jWyq7fWdajKADDGcxeRMQ0jq5FgDEmY710H/EhkOYyiBtoKBY6LIrd+7ELGgUwTnNYZdYdiIEThkthHlUDLGgnPZlLQDbA+oDMMryvMuYTSUxWcR+LWs30tHiAgqORIlnOUJofJGJMZYMCgEhOdEdmA0lUkZiQVR54SBmBC2EGE6/4lIYcCrWacJWagVH8B/5vz98gvTSqsiUMZaVH2OtD6ruXSKpR9jsVgsFovFYrFY3yLLXdKomjlIZTIGxXJhhjyV4WzoarkO6qrLU6U/1ZXQCC/9cKI/iueX8bM8wuvYbNjsGsY3CWdvFnROJqYxLQuUqwFOOXddzlnTR4Xco8GrRfPo0VwGYSQIEeVxIXDeoJyfHuG0uRPngqaL9mrzCrk4K57KucyOml8TqdWxUlyxoClbC5c/EvgIlwM8uWer/yLEiJc/oiX0an4N5zpsCRjgK+VcPK2/tWrjFlqBIb1qXhDfZCIPcXqhyIRDMerrgWDE0ADJ/F1qlgGW1pxQY10xJnPPoPXgrF4hXCEpNPUNow5UNNkOdg7kuvLWBBwn1i4DLucNWm7ONmCYcb0KqpMQo07kfz6GMcNp6PU9bm9C30jqmymUb6zBSKktEu2S38pIJep7GZYlC6LQcEi1CqNYCrjxpPKENNG1LVZi4CrZuKryIBsItVo+QYqZdkGKtCaLG5Ub42CkTBMjTb2btAIDV1iNiEaxKa6Ie+QodJdfXi6E6nflhAHXiWth/pM5LoTnYRjiCzuX8JmJ7m1E4wylX+Kg9GfPNaBbGGS+kBTp3hxaz62z5GjzSduXq25dqAwsb3CTX/GuLwT01KXeZLB4jagdxihzFpWpSGvJInPOPccZqZBVLJYT7voTslgsFovFYrFYLBZrZ/o/gheq85N8R0IAAAAASUVORK5CYII=;strokeWidth=0;" parent="1" vertex="1">
          <mxGeometry x="702" y="1120" width="85.88" height="110.6" as="geometry" />
        </mxCell>
        <mxCell id="IxSBL8WH6zTKbicjn3LH-103" value="" style="strokeWidth=2;html=1;shape=mxgraph.flowchart.annotation_2;align=left;labelPosition=right;pointerEvents=1;direction=south;" parent="1" vertex="1">
          <mxGeometry x="447.94" y="1010" width="590" height="110" as="geometry" />
        </mxCell>
        <mxCell id="IxSBL8WH6zTKbicjn3LH-105" value="" style="strokeWidth=2;html=1;shape=mxgraph.flowchart.annotation_2;align=left;labelPosition=right;pointerEvents=1;direction=south;" parent="1" vertex="1">
          <mxGeometry x="731.5" y="434" width="100" height="50" as="geometry" />
        </mxCell>
        <mxCell id="IxSBL8WH6zTKbicjn3LH-106" value="" style="shape=image;imageAspect=0;aspect=fixed;verticalLabelPosition=bottom;verticalAlign=top;image=data:image/png,iVBORw0KGgoAAAANSUhEUgAAAOEAAADhCAMAAAAJbSJIAAAAyVBMVEX///8gwu8No8Y5TVQOrNEMlrdj1fQfxfM7REg7QkUJmbs6SlAgO0Q6RUjt7u/o6uomQEgit+EpnsAxfZQmqc4sk7ErmLgqa30mc4gyYG4je5Qui6hl2/s6SE02QEQwRk40x/BX0fPKztA4UlvAxcezubtKzfI0WWQvhJ5PYGbV2NmnrrGMlZl5hIhndHkwxvAzcISbo6Zbwd1Cc4JfzOpLkKRZaG1Qn7WssrVavdhzf4NJiZtGWF5Wr8g2VF5Eeoo7OjlEbHgwX22MRMweAAAL3UlEQVR4nO2da1ubShSFG0CHhKCJJs3NSWqjReOlai/ao6bq//9Rh2uA2cNlYIAZnq6P54k9vBL2XmsPznz69E//9E9RbW4uL282TV9Fddr87q9UddX//bXpK6lGX10+R6v+5VnTV8NfZ5cBn6vWMZ69DFRCA/W86avip3PI5zE+NX1lfPS0ovK5jIOrpq+uvK7URD6XcXXf9BWW0sH9gOAzlksj/l9W/fuDpq+zqA6uByuS78efhx+AcXAtJePBdR/w/X042d8/efgL7+P1YdPXy6rDG5IPe3yOTn7+XWKS8UYqRhrfc8DnMT5Dxv+kMaybW8CHn396fN86nW8BIwaMt1IwUviWET5HAeMvEzIKb8pDe73jM37tx/gijPu/VJNkvBSaEfKZNL4o46P9kfiPCGzKz14IPkNfP/p8XzpAX059xrVOMr4IacrPX/pqAt8phS/GuF3Gf1TE4PEE7Ody+3qSeP8IxpNXizQBggUPYK+NpeXzJd2/HIwrYYLHPRmPjOUsJ5+j7wHjDDKKEDxo8eH91ft6nn7P5gsZ90/+vItnymnx4f0PG5/IjIeU+PDjD7X9ZctnpISrxoIHtNfGLj6csvI58k3AgyDBIy0eMd8/glGE4LH5L9Nel2SkmPIaGTPiUTntgkdz4YoaH3jxRRj3fxmAsY4Vj5zxiA8jCB7Vr3gQqw+2dPWRN5+jLwEjJXhUyHgG44OaEo94MYLgUVW4Oof2evuYHR9KMKaY8goYQTzKHx8qYVQ5B4+rcvGhuHbBAxjWwYBj8KDEo/eAj8Fel2GkmXI7XHEx5XY84hIfODBWsuJBX13x20MtfK6C4EFb8SjFSItHpeJDcVUSPKjxgac9K8RIWw0oxnhYVXzgwMgjXFUaH0oz0kw5W/Cg8XGND5Uw5g8elNUHlXt8KM/4qOogeORi3JB8hllNfCiuiCkHqzrZ39WvgC9r9aEJBYYVrnj0s7LVQdyfVR0fisu/j9CU9zMcwPUqxld9fCiuhOCxukknjPHVEx+K6ws1eKzyfkmN+uJDcYWmPERM/5pGH0OvwIjM58hltG/jOiRMtXBRQqw+nojO5+j76clrtKTmJ1RVff0ZoaYBsoSQYsVaRk5Cy/NEpqWIzYjQaOZZm6XFRGgoi63LaHRnI4EZ0XDS9fjWjycGG6GiXKx9xokmKCIa3nn3DxtOWWQmVJS54TPeDQVkRJ1j3b0+bHq5oAChokwN73fUPRaNEXUuTJ/v2fPN33ARQpvR/x7gi45AjAgt/O9XMFex+1pBQqU38RnNhSiMCH323vgzlj9+hr6rKKEy2vMZTXUsQllF6Gire3zvD9HcU5hQUbQ9v+eY66OmGe0GaPkN0J9L73JBCUJbY0v3LUCj7THS4LevZG4tR6hoIlgAuwEGDd4PPtG5SknCiAXQJ820DjQMCrv6CPl4ENqManMWwG7wfgPE/uCPnIvxIFSUY68N1W4BUGcR8D3T+XgR2hbArN8CIDT2vz3BwgItuPIiVJQJ9hlrsgCRBv83mY8n4c7mmGoNCdlu8JZJa/BVEjoWwPuu6lVbANjgkwe3PAmV0ALoVVoAhLRdggcNvmpCZbTw3WF1FiC9wVdOqESnAFW0jqwG3yHrXAWEijIPLMCUN2N2g0edUQ2Eu0mHbQF4to4wwQcN/pT8BDpavx3F/pcVEVZhAXI0eDdjmJ/rIYxYgDEPxhwN3ilBWLXqIwwtQPkheWKCj3zEeUTxpDfp1kcYTgH0bSkLkJLgw4+MsWnOxr16Ce326FsAQy/eHvM0eOcWY2vR6+3VTchhCpCnwaOjN7ye23x7DRAq5SxAdoN3PzXWZy5fQ4SRhQBGCxBpgAkNPiDsTmzAnqI0RRi1APkZwwRvJjT4GGFP0bQGCdkXAiINPmiA8FcQEk41R40Ssk0BEkb0sY8Mx0PBCPNPAaIJPrEBLnB3gQQjDKcAqQsBuRr8kWoaWDxCJcdCgDOi76Y3ePdXgLczU0hCZbSw0qYAORq8s0yPjWlvqotJqKQtBOwavJnY4N1lbDzZ64lMmLQQEK7B48ekBm87bGx+jB0HKjThbtIRsQDQwJwCvg5Susb2wnOgghOGFsB0LUBkDT5lRG977O6HxycBoaLc4fBdgHwjeofQdaAOiwSEtgUI2mPOEb1H2PNYZCAMpwDpBiZOGLBIQWhr/OH/3XLaiH7XOGUkVLSF5SAG7xhQEiAaHgcv0UlJaDPaJsf8mZRwnSFa91huQsUlTOBDY8P22O0gPKXxHa11bE1M2QntVqE/UBqgEzOwOu/NdckJNZvQHJJ43pTezhA96Qk1t9IAQnRhuhnCdjCSE2p0QjR6M9wMIT2hlkgYemypCbVUQt9jy0yopRP6HltiQi2dMLhqeQm1dMKZ9IRa2wm1thNqLSfUtJYTjtpOqGktJ9TaTkgCto4QALaNEAK2jJAC2C5CGmCrCKmAbSKkA7aIMAGwNYRJfK0hTAZsCWEKYDsI0wBbQZgK2AbCdMAWEGYAyk+YBSg9YSag7ITZgJIT5gCUmzAPoNSEuQAlJszHJzFhXkBpCXMDykqYH1BSQgZAOQlZAKUkZAKUkZANUEJCRkD5CFkBpSNkBpSMkJ1PMsJRIkZLCIvwSUVYDFAiwoKA8hAWBeRLqFdHWBiQI+H4w6juHhYH5EaoTHTnzxlj4kdYApAX4RxjuP8mN8IygFwIhwtVd/48nPhXEBvhbK8SQA6E+uRDp2xjgIZ3TDuWq4Y5qQKQAyE2KPtuo85xN/j7zYyDZsJjZgxjzp2Py7dUB9vCOFtH4d2FD1IBP91GTtLB6wstDljIinIl7AwX5DkGzu5gZnjVq9t0wk3stFhsjUc87yAHwg54AEez2Nld/axzu65jiIY56/EE5EBI/GywucYOMOMwJFv38UO7DH3KEZAzIepcdHH0alf9PMevbn7HzzU21Dk3wIKEEyqh82e1MT61/zvnEYFfX+Jnk+H1gg9fIUJtYeHuGBAipHjbD4ZFlOU866dV/Hw5+3FsitB2oCaGtxAN4wVGXQ0Yz0C+Jh/HSTOVZqrTtkZFw+N4gSlypuwBcQ6pgY/rJ7wwdMou/rvt3cIH8L9CZ61uLuMlB6sXtRKalqU7W02DB9DfHSXky3GuY4LOiOPG9e24TkKDcmiYszdWnG+gljpo/Yo40lKf1Zee3nS4od3uCKvwASx9ADlZcrqlSk5+wk7nM+TrcCgwUIe3hAPA83oI4QO4II5z7t8WPrA6LlhyCjsAFkKS72hNPID5DsfNJ7LkmNZezYR2hCD4VqUKDNT9gIsDKEgIIgSHAgN0QJy0bphT7oS9Xrh7S/QDwf5uId8NhwIDRZYcbLA7gFRCbb4O9/GMPICFIwS7YOhgdQBphHsWdvY7JflAgWGJEOw6HxAO4IMtdCQTKjMdwxaPtBnxAA6equRzVK7kJBLaGUIHGYJSYK6r5vtEKTmYoeTQCfW1im1KMAQFBaZYhGAXOedgKDl0QpNyaK0dIeorMFCg5OQNHdRdlLQ3cLKiu71uvMColRYYKHLOoedzOfR9oobwASQjBOuMgocKzTmohJD4WK8gQrDrEMw5sktODsIKIwS72EtOJqG7f3ecr/iMgofI0JFVcjIIKTMK3hGCXVdMLiedEA2Bg+EfIdh1wFJy0gidzT2JAlNNhGAXmHOYiaPVZELKELS5AgO1uSQex6TRahIhHIIOXjjOKHjonHQA9JJDJ4QFZtV8gYG6J0vO7Cgnoe1gyFUWEQoMFJxz3OXZY8jZY1/QAgO1yRytAkK7wJAOps4Iwa6sxVWCkDKjqDtCsIssOfHRapyQEpEqn1HwEPmugxlxAFFCNLwjH0AxCwwUKDn6FBJSVlnELTBQiaEjIKx1CFqNzuglxyMkXtRSKx+CViPwPofV8wl3xxzuvqCrBmYUPEQJHfadw9q0iSFoNYKjVfcLy+U9ClFElhyghmcUPESWnHiBEd/B5NETETrCB1DQCFFARMmRv8BAkaNVVbAZBQ8R73NwfY9CFEVGqyVf1BJX/itk8kQIdh3cr/r9VTOrLLXpsPb68j9kmcfHWbANEQAAAABJRU5ErkJggg==;" parent="1" vertex="1">
          <mxGeometry x="703" y="799.38" width="55" height="55" as="geometry" />
        </mxCell>
        <mxCell id="IxSBL8WH6zTKbicjn3LH-107" value="" style="shape=image;imageAspect=0;aspect=fixed;verticalLabelPosition=bottom;verticalAlign=top;image=data:image/png,iVBORw0KGgoAAAANSUhEUgAAAOEAAADhCAMAAAAJbSJIAAAAyVBMVEX///8gwu8No8Y5TVQOrNEMlrdj1fQfxfM7REg7QkUJmbs6SlAgO0Q6RUjt7u/o6uomQEgit+EpnsAxfZQmqc4sk7ErmLgqa30mc4gyYG4je5Qui6hl2/s6SE02QEQwRk40x/BX0fPKztA4UlvAxcezubtKzfI0WWQvhJ5PYGbV2NmnrrGMlZl5hIhndHkwxvAzcISbo6Zbwd1Cc4JfzOpLkKRZaG1Qn7WssrVavdhzf4NJiZtGWF5Wr8g2VF5Eeoo7OjlEbHgwX22MRMweAAAL3UlEQVR4nO2da1ubShSFG0CHhKCJJs3NSWqjReOlai/ao6bq//9Rh2uA2cNlYIAZnq6P54k9vBL2XmsPznz69E//9E9RbW4uL282TV9Fddr87q9UddX//bXpK6lGX10+R6v+5VnTV8NfZ5cBn6vWMZ69DFRCA/W86avip3PI5zE+NX1lfPS0ovK5jIOrpq+uvK7URD6XcXXf9BWW0sH9gOAzlksj/l9W/fuDpq+zqA6uByuS78efhx+AcXAtJePBdR/w/X042d8/efgL7+P1YdPXy6rDG5IPe3yOTn7+XWKS8UYqRhrfc8DnMT5Dxv+kMaybW8CHn396fN86nW8BIwaMt1IwUviWET5HAeMvEzIKb8pDe73jM37tx/gijPu/VJNkvBSaEfKZNL4o46P9kfiPCGzKz14IPkNfP/p8XzpAX059xrVOMr4IacrPX/pqAt8phS/GuF3Gf1TE4PEE7Ody+3qSeP8IxpNXizQBggUPYK+NpeXzJd2/HIwrYYLHPRmPjOUsJ5+j7wHjDDKKEDxo8eH91ft6nn7P5gsZ90/+vItnymnx4f0PG5/IjIeU+PDjD7X9ZctnpISrxoIHtNfGLj6csvI58k3AgyDBIy0eMd8/glGE4LH5L9Nel2SkmPIaGTPiUTntgkdz4YoaH3jxRRj3fxmAsY4Vj5zxiA8jCB7Vr3gQqw+2dPWRN5+jLwEjJXhUyHgG44OaEo94MYLgUVW4Oof2evuYHR9KMKaY8goYQTzKHx8qYVQ5B4+rcvGhuHbBAxjWwYBj8KDEo/eAj8Fel2GkmXI7XHEx5XY84hIfODBWsuJBX13x20MtfK6C4EFb8SjFSItHpeJDcVUSPKjxgac9K8RIWw0oxnhYVXzgwMgjXFUaH0oz0kw5W/Cg8XGND5Uw5g8elNUHlXt8KM/4qOogeORi3JB8hllNfCiuiCkHqzrZ39WvgC9r9aEJBYYVrnj0s7LVQdyfVR0fisu/j9CU9zMcwPUqxld9fCiuhOCxukknjPHVEx+K6ws1eKzyfkmN+uJDcYWmPERM/5pGH0OvwIjM58hltG/jOiRMtXBRQqw+nojO5+j76clrtKTmJ1RVff0ZoaYBsoSQYsVaRk5Cy/NEpqWIzYjQaOZZm6XFRGgoi63LaHRnI4EZ0XDS9fjWjycGG6GiXKx9xokmKCIa3nn3DxtOWWQmVJS54TPeDQVkRJ1j3b0+bHq5oAChokwN73fUPRaNEXUuTJ/v2fPN33ARQpvR/x7gi45AjAgt/O9XMFex+1pBQqU38RnNhSiMCH323vgzlj9+hr6rKKEy2vMZTXUsQllF6Gire3zvD9HcU5hQUbQ9v+eY66OmGe0GaPkN0J9L73JBCUJbY0v3LUCj7THS4LevZG4tR6hoIlgAuwEGDd4PPtG5SknCiAXQJ820DjQMCrv6CPl4ENqManMWwG7wfgPE/uCPnIvxIFSUY68N1W4BUGcR8D3T+XgR2hbArN8CIDT2vz3BwgItuPIiVJQJ9hlrsgCRBv83mY8n4c7mmGoNCdlu8JZJa/BVEjoWwPuu6lVbANjgkwe3PAmV0ALoVVoAhLRdggcNvmpCZbTw3WF1FiC9wVdOqESnAFW0jqwG3yHrXAWEijIPLMCUN2N2g0edUQ2Eu0mHbQF4to4wwQcN/pT8BDpavx3F/pcVEVZhAXI0eDdjmJ/rIYxYgDEPxhwN3ilBWLXqIwwtQPkheWKCj3zEeUTxpDfp1kcYTgH0bSkLkJLgw4+MsWnOxr16Ce326FsAQy/eHvM0eOcWY2vR6+3VTchhCpCnwaOjN7ye23x7DRAq5SxAdoN3PzXWZy5fQ4SRhQBGCxBpgAkNPiDsTmzAnqI0RRi1APkZwwRvJjT4GGFP0bQGCdkXAiINPmiA8FcQEk41R40Ssk0BEkb0sY8Mx0PBCPNPAaIJPrEBLnB3gQQjDKcAqQsBuRr8kWoaWDxCJcdCgDOi76Y3ePdXgLczU0hCZbSw0qYAORq8s0yPjWlvqotJqKQtBOwavJnY4N1lbDzZ64lMmLQQEK7B48ekBm87bGx+jB0HKjThbtIRsQDQwJwCvg5Susb2wnOgghOGFsB0LUBkDT5lRG977O6HxycBoaLc4fBdgHwjeofQdaAOiwSEtgUI2mPOEb1H2PNYZCAMpwDpBiZOGLBIQWhr/OH/3XLaiH7XOGUkVLSF5SAG7xhQEiAaHgcv0UlJaDPaJsf8mZRwnSFa91huQsUlTOBDY8P22O0gPKXxHa11bE1M2QntVqE/UBqgEzOwOu/NdckJNZvQHJJ43pTezhA96Qk1t9IAQnRhuhnCdjCSE2p0QjR6M9wMIT2hlkgYemypCbVUQt9jy0yopRP6HltiQi2dMLhqeQm1dMKZ9IRa2wm1thNqLSfUtJYTjtpOqGktJ9TaTkgCto4QALaNEAK2jJAC2C5CGmCrCKmAbSKkA7aIMAGwNYRJfK0hTAZsCWEKYDsI0wBbQZgK2AbCdMAWEGYAyk+YBSg9YSag7ITZgJIT5gCUmzAPoNSEuQAlJszHJzFhXkBpCXMDykqYH1BSQgZAOQlZAKUkZAKUkZANUEJCRkD5CFkBpSNkBpSMkJ1PMsJRIkZLCIvwSUVYDFAiwoKA8hAWBeRLqFdHWBiQI+H4w6juHhYH5EaoTHTnzxlj4kdYApAX4RxjuP8mN8IygFwIhwtVd/48nPhXEBvhbK8SQA6E+uRDp2xjgIZ3TDuWq4Y5qQKQAyE2KPtuo85xN/j7zYyDZsJjZgxjzp2Py7dUB9vCOFtH4d2FD1IBP91GTtLB6wstDljIinIl7AwX5DkGzu5gZnjVq9t0wk3stFhsjUc87yAHwg54AEez2Nld/axzu65jiIY56/EE5EBI/GywucYOMOMwJFv38UO7DH3KEZAzIepcdHH0alf9PMevbn7HzzU21Dk3wIKEEyqh82e1MT61/zvnEYFfX+Jnk+H1gg9fIUJtYeHuGBAipHjbD4ZFlOU866dV/Hw5+3FsitB2oCaGtxAN4wVGXQ0Yz0C+Jh/HSTOVZqrTtkZFw+N4gSlypuwBcQ6pgY/rJ7wwdMou/rvt3cIH8L9CZ61uLuMlB6sXtRKalqU7W02DB9DfHSXky3GuY4LOiOPG9e24TkKDcmiYszdWnG+gljpo/Yo40lKf1Zee3nS4od3uCKvwASx9ADlZcrqlSk5+wk7nM+TrcCgwUIe3hAPA83oI4QO4II5z7t8WPrA6LlhyCjsAFkKS72hNPID5DsfNJ7LkmNZezYR2hCD4VqUKDNT9gIsDKEgIIgSHAgN0QJy0bphT7oS9Xrh7S/QDwf5uId8NhwIDRZYcbLA7gFRCbb4O9/GMPICFIwS7YOhgdQBphHsWdvY7JflAgWGJEOw6HxAO4IMtdCQTKjMdwxaPtBnxAA6equRzVK7kJBLaGUIHGYJSYK6r5vtEKTmYoeTQCfW1im1KMAQFBaZYhGAXOedgKDl0QpNyaK0dIeorMFCg5OQNHdRdlLQ3cLKiu71uvMColRYYKHLOoedzOfR9oobwASQjBOuMgocKzTmohJD4WK8gQrDrEMw5sktODsIKIwS72EtOJqG7f3ecr/iMgofI0JFVcjIIKTMK3hGCXVdMLiedEA2Bg+EfIdh1wFJy0gidzT2JAlNNhGAXmHOYiaPVZELKELS5AgO1uSQex6TRahIhHIIOXjjOKHjonHQA9JJDJ4QFZtV8gYG6J0vO7Cgnoe1gyFUWEQoMFJxz3OXZY8jZY1/QAgO1yRytAkK7wJAOps4Iwa6sxVWCkDKjqDtCsIssOfHRapyQEpEqn1HwEPmugxlxAFFCNLwjH0AxCwwUKDn6FBJSVlnELTBQiaEjIKx1CFqNzuglxyMkXtRSKx+CViPwPofV8wl3xxzuvqCrBmYUPEQJHfadw9q0iSFoNYKjVfcLy+U9ClFElhyghmcUPESWnHiBEd/B5NETETrCB1DQCFFARMmRv8BAkaNVVbAZBQ8R73NwfY9CFEVGqyVf1BJX/itk8kQIdh3cr/r9VTOrLLXpsPb68j9kmcfHWbANEQAAAABJRU5ErkJggg==;" parent="1" vertex="1">
          <mxGeometry x="813" y="799.38" width="55" height="55" as="geometry" />
        </mxCell>
        <mxCell id="IxSBL8WH6zTKbicjn3LH-108" style="edgeStyle=orthogonalEdgeStyle;rounded=0;orthogonalLoop=1;jettySize=auto;html=1;exitX=0.5;exitY=1;exitDx=0;exitDy=0;" parent="1" source="IxSBL8WH6zTKbicjn3LH-13" target="IxSBL8WH6zTKbicjn3LH-13" edge="1">
          <mxGeometry relative="1" as="geometry" />
        </mxCell>
        <mxCell id="IxSBL8WH6zTKbicjn3LH-109" value="" style="endArrow=none;html=1;rounded=0;exitX=0.73;exitY=0.813;exitDx=0;exitDy=0;exitPerimeter=0;" parent="1" source="IxSBL8WH6zTKbicjn3LH-71" edge="1">
          <mxGeometry width="50" height="50" relative="1" as="geometry">
            <mxPoint x="960" y="700" as="sourcePoint" />
            <mxPoint x="1170" y="820" as="targetPoint" />
          </mxGeometry>
        </mxCell>
        <mxCell id="IxSBL8WH6zTKbicjn3LH-79" value="" style="endArrow=classic;html=1;rounded=0;" parent="1" edge="1">
          <mxGeometry width="50" height="50" relative="1" as="geometry">
            <mxPoint x="890" y="535" as="sourcePoint" />
            <mxPoint x="1205" y="543" as="targetPoint" />
          </mxGeometry>
        </mxCell>
        <mxCell id="IxSBL8WH6zTKbicjn3LH-116" value="" style="endArrow=classic;html=1;rounded=0;" parent="1" edge="1">
          <mxGeometry width="50" height="50" relative="1" as="geometry">
            <mxPoint x="1060" y="860" as="sourcePoint" />
            <mxPoint x="1243" y="860" as="targetPoint" />
          </mxGeometry>
        </mxCell>
        <mxCell id="IxSBL8WH6zTKbicjn3LH-118" value="" style="endArrow=none;html=1;rounded=0;" parent="1" edge="1">
          <mxGeometry width="50" height="50" relative="1" as="geometry">
            <mxPoint x="1068" y="1160" as="sourcePoint" />
            <mxPoint x="1170" y="821" as="targetPoint" />
            <Array as="points">
              <mxPoint x="1170" y="1160" />
            </Array>
          </mxGeometry>
        </mxCell>
        <mxCell id="IxSBL8WH6zTKbicjn3LH-119" value="" style="endArrow=none;html=1;rounded=0;" parent="1" edge="1">
          <mxGeometry width="50" height="50" relative="1" as="geometry">
            <mxPoint x="1170" y="820" as="sourcePoint" />
            <mxPoint x="1170" y="540" as="targetPoint" />
          </mxGeometry>
        </mxCell>
        <mxCell id="IxSBL8WH6zTKbicjn3LH-122" value="" style="endArrow=classic;html=1;rounded=0;" parent="1" target="IxSBL8WH6zTKbicjn3LH-1" edge="1">
          <mxGeometry width="50" height="50" relative="1" as="geometry">
            <mxPoint x="330" y="120" as="sourcePoint" />
            <mxPoint x="690" y="120" as="targetPoint" />
          </mxGeometry>
        </mxCell>
        <mxCell id="IxSBL8WH6zTKbicjn3LH-1" value="" style="shape=image;imageAspect=0;aspect=fixed;verticalLabelPosition=bottom;verticalAlign=top;image=data:image/jpeg,/9j/4AAQSkZJRgABAQAAAQABAAD/2wCEAAoHCBUWFRgWFhUYGBgaGhocHRwaGhocHBoeHhoZGRwYHBwcIS4lHB4rHxwcJjgnKy8xNTU1HCQ7QDs0Py40NTEBDAwMEA8QHxISHjYrISUxMTY0NDE/NDQ0ND00NDQ0NDQ0NDQ/NDQ1MTY0NDQ0NDQ0NjQ0NDQ0NDE0NDQ0NDQ0NP/AABEIAPkAygMBIgACEQEDEQH/xAAbAAEAAgMBAQAAAAAAAAAAAAAAAQYCBQcDBP/EAEIQAAECAgUKAwYEBQMFAQAAAAEAAhEhAwQSMUEFIjJRYXGBkaHwBkLRE1JikrHBFXKC4QeissLSI0PxMzRTg5MU/8QAGQEBAAMBAQAAAAAAAAAAAAAAAAIDBAEF/8QAJxEAAgIBAwMEAgMAAAAAAAAAAAECEQMSITEEE2EiQVFSFDJxkaH/2gAMAwEAAhEDEQA/AOvONqQSMrOKGB0b+SSu83eKADNzdaDNvnFBDzXoJaXDFAAIZ2HqhEc7D0QRx0e4IY4aPcUAcLV0oITakMEM9Hjghh5b0AjKzijXWZFYve1rSXENIESSYAbSTIKr5S8c1ajiGRp3fBAN+Y3ja0FcckuSSi5cFqAszM0uzsPVcxrX8QKw7QZRsG0FxHEkDota/wAW153++6GprKMDo1VvNEsWGR2CEZ9yQ510oLjrfE9eH++/i1p+rV9tT8d1tukWUgxiwNJ4tgOhRZoh4ZHVSbWb3JIwFnH1VWyP43oKaDXj2Lz7xBaTsfKH6gFaRCE7+4TViknwVuLjyAbN84oG2ZlBLS4YqRHzXLpEiE7WCFtqYScY+XvBSY+W5AQTaulBLURZx9EM9HjghhCWl3FAAYZvc0GbfOKCGOl3BBLS4YoBCE+5rL241FYiPm0e4KbTdnJAQRZ0ZpCVrFLNmd6WYZ3RAAIzN6NztKUOCQtZ10E0tkEABjmm70QyzRd63pGOb13Jahm9d6AOMNGfVafxB4goqo2JNqkcM1gMztPutjjyip8SZbbU6IuMC50mN1u1n4ReeAxXJXufT0jnvcXOcYucfoNWwYKrJk07Lkux49W74PpyrlmsVt0XuiIxDGya3hidpiV5UVQHmPAeq+qjow0QAWayOTZrjFI82ULRc0d7V6Ii4SCxfRtdeAVkiA+CsVHFnI/Zb7wj4qdQObRUziaK5rjfRnD9GsYYal8C+DKFD5xx9VOE3FkJwUlTO3tzpngkbUjILlWTPG1PRUbKMtY9rBZBdaDoYAkGEhISuAVkyf4/oKSDaVrqE69NmqZABHKC1rJFmOWKSLjGdnDvFCbMhcsKGma9osuDmuEnNIIIviCL1nasyvUysEQ0Z9UIgLQv9UhZ2xSEM7pvQACMzejc7SlDgkI52rDchztkEABjI3LL2TdfVYxtZt0PsnsNvRAAIaV3NITj5e8EBjpXckjOHl7xQAiM23ckM9GWvBCYSbdzR0tHjCaAExkNLuM0JABjfrOG2KGF40u4yVb8dV/2dUcIwfSkUY1wMS6X5QRxC5J0rOxVujn3iHKjq1WC8ElmiwHBgx3nSO+GCyomBoAHe1fHk6jvdwH3X3rBJ2z0IRSQREXCQREQBERAFDgDIzUqIoDA0DPdbyC+emqIOjI6sP2X2IlijDw9l+lqj4TcwnPZ/czU7bcccCOu1KtMpGNe1wc1wDmm+R+h2YLjdeobTYi8fTEK1fw0ynN9WcZQL2TunB7eMQ6H5lowz3pmbNDbUjoDZaU+qQxOj3CSNnpeiRwOj3Ca0mUERmLu4yQz0Za8EJhIXdxmhlo8cUAJjIX8uqiw7X1UkATF/PfJRbdqPJATatSuSPl6o42pCSRlZxQAmzm60ObtigNmRvQZt84oBCGd3Nc6/idWbVJQ0epjnEfmdZB/lPNdFEpm71XKv4i0ka4dlGwf1H7qvK/SW4V6jXVVkGN3R5zXssWCQ3BZLEbgiIgCIiAIi+WmrjW3Zx6c0B7U1KGiJ/5WrL3kl4jK8iMGxkI6hhNfXUKhS1l8GCOtx0WDb6XldByZkqjoaOw0Wo6ZcBnm4xGrYuSko/yRbsoFWrdqTpHof3X1r28TZA9j/qUY/wBMmY/8ZN36T0WvqVYtCBvHUImmrR1M+peHh6m9lXKE4e0DDuefZno6K91rS6FO0jB7D1aVODpkZq0dyBtbIJGOb13KTnXSgoJiLOPot554tQzdf3Q5u2KAwzTf6oM2+cUAIhna/un/AOjYgEJm5Ze2Go9EBiYeW9JfqRwszE0hK1igAh5r0HxcEAtTN6Nzr5Q1IAI46PcFyv8AiKyFcMLjR0ZHNzfsuqAxzcPRc4/idVrNLQvGLHNj+V0f7yq8q9JbhfqNIwyG4LJeNVdFjd0OUl8ldrJJstuuO3YsVG2z6aStsbjE7F4OyhqbzK3uSfCJcA+ncWA3MbC1+onR3Q5KwUPh2rMuomna4l31Ki8kUctnP/xB3ujqsHV9+wcPVdKGR6t/4KL/AObfRe9FVKNmhRsb+VjR9Ao95fBy2c1q9QrNNose4ayIN5mDVYcm+DbnU7/0M+7/AE5q4Ioyyt8bHTyq1XYxoYxoa0XACA/52r1RFUDGkYHNLXAFpBBBuIMiFzLK1SNWpywXDOYdbTdHqDuK6eqt45qkaNlIL2Osn8rh6gcyrMUqlXyDRsdEAjFfHVmW6yxvvUtG3m9rVnUH5m4nlevq8H0JfXaKUYOc8/pBcD81laoL1Ucm6jZ2E/DxQww0u4oRZunHWhEBax9VuPPA26XcEb8XBAI5xv8ARG518oakAEfNo9wU5mxQDakbll7AaygMbNmd6Q83RBLSu5pjHy94IARaztSHO2QS/Ru5I6ejxhJACY5vclU/4jVS1VQ7Gje10fhdFhHNzTwVsMLhpdxmqT47rziRVwYCzad8RJNkHYAI8diryySi7J471Io1UpYMdsmOP7rY+DakH09twiKMWv1Ewbymd4C0TXFtoaxA8x6K2+AB/wBb/wBf96wz2i2bi4oiLKAiIgCIiAIiIAtP4sbGq0mywf52LcLUeKf+1pdzf62Lsf2QOf1d8GP4DnEK3/wxq2fS0pGi0MB2uNp3INbzVHtShu6R9VafCldfV3sM7Ly2203FroQdDWAQQfVboSUZJsryW40jqgFnbFLMM7uaNlpcMUEYxOj3CS2mIERztX2Q52yCbRo9xkjp6PGEkAJjm6vso9gdakwMhf3FRZdt5oCWmOlLokZw8veKWrUruqWo5vX9kAJhIXIZaM+qRs5t8U0dseCAEQmL+4yXP/G9GRWA4+ZjTxBc0joOa6BCGd03rQeMMmmmofaNGdRxdDEt8w6A8FVmjqi6JwdSOZ5doIPDxo0jQ8b7njnPit74B/3v/X/etbWQH0Vg6TXWmHfJzd2PBbjwPQFntown7O79awSfoo2JlrREWckEREAREQBERAFqPFP/AGtLub/WxbdavxKwuq1IBeQ3+tq7H9kDnVSq5pHsYPM4DcMTwESrKGW6y1rbjSMYNwIbygFrMlM9kXvMLdmyyGBdpO4AQ/UrX4JyYXPNMdFkm7XET5A/zBa0tUkkVZJUi8ielLogMZG7uE0ja2Q4pajm8I7l6BjBMJC7uM0MtGevFIwzdeO9NHbHhcgBEJi9PaO1dEhZzr4/dPb7OqAEx0ZdEjKz5u8UMBo380lCPm7wQAGEjeglpT6oIea9BPS4YIABCZu7ghEZi7uMk2HR7hNDG4aPcZoCk+JPDdm3TUMLAi57LrOJLPhxhhhqHyeE351INYaeRcPur5W6EPY9gue1zTjeCPuubZDpDR1gNdKMWO2GN3zABYOpgo7r3NGKV8lxREWI0hERAEREAREQBa3xC+FA/bZH8wP2WyVf8VU+axms2juEh9TyXY8nHwfFkHIbqySY2WNIDnY64NGvaZDbcuiVWqtYxraMWWtEAOpO0nWtP4OqxbV2kiAe5zzuk0dGg8VvjEaN3Nerhgoxv3ZinJt0CY6MuiExEBf3GaGWjxxQwhEX9xkriABhI3oJaU+qCGOl3CSNnpcIyQACEzcsvaN1dFjvu7gsrLdnNAYuFmYmkPMgFmZ6JCdrBAALWdqQZ18oIRazgjs67DWgAMc3uSF0M3uaExzcfRAYCzj6oA42bpxVA8Y5ONFTe0bo0mdHU4aQ+juJ1K/g2b8dS+LKuTW0tG5jsdEi9rrw7vAlV5Yao0SjLSzR5LropWB3mucNR9DfxX2KmUFJSVWlLXNmJObg4YEHqCrbVqwx7Q9hiD02EYFeTOLizbF2j2REUSQREQBEUEwmUBD3hoLnGAAiTqAVPDXVqsBoiLboD4WC88BE7175cyt7Q2GaAMz75whs+qs/hXIvsmF7xCkeMfI33d5kTwGC0YMTlIpyTpG+omBoFG0Qa0Bo2ACSzLrMkjKzijXWZFeoZARZunFLMM7uaNFm/HUgEDaw9UAAjndyQZ18oIRHOw9EdnXShrQAOjm6vsp9gNahxjIX+ij2B1hASI+a5TOPwqAbUjJIzs4a0AMfLd3FD8PFCbMhchzdGcUAMMNLuKCGOl3BCIZwv9UAiLRv9EAb8XBSI+a5QBavkgNqRuQGqy7kdlYbE5paDZcBdjAjFscFzupV19GbTDDWLwd4XV6UyLcIH6LlmR2BzwHAEFpkdyxdUkmmX4W+Df1LxBRvk/Mdtm3nhxW3Y9rhFpBGsEEdFWaxkRpmx1nYZjneOq+CzS1d9oZp1ibXbNu4rFSfBotrku6EqtM8TOhOjBOsOIHKB+q+CuV+lrBDYSwY27ede8oosakWSt5ZoWea0dTJ9bhzVcyjld9LLRZ7ox/McfovagyIfO4DY2Z5m7qmV6sxjGBjYZ0ziZYlSSimcdm68HZHY5opznOtENGDYGFradWpXAw8t60Pg5xFVZDFz/6lvnCzMTK9TFFKKoxzdyYl+pBDzXpDzY6kaLUzIqwiG/FwQRx0e4IDavkgMc3D0QAxw0e4ofh4/ZCYZou9UObozigBh5dLuKQdt6IRCYvT2ztXQoATalckfL1QwOjfySUIebvFAI2c2+KDN2xQQEnX8+qCWlPVigEIZ2vDelmOd03L5K9XmUIi90jGDby7cOwFUsoZepaU2WRY0yDWxtHeR9B1VkMcpccEJTUS01/KtCzTeAR5RnO5C7itPW/FoIgyj4vP9o9VrapkF7pvIYNV7uVwWwfkOjDHBoJfZMCTjCUhJXLFCPO5TLLJ8HwU3iWsEERY0Qwb/kStDkqlaykBcYCBEd4W88N00KQt95st4n9Ir2y14eD4vogA68suDt3unpuWXrcGpLSuC7p8yi2pPk9gVDmgiBAI1GYVdqVffRGw8GyDAtMi3dG7crBQ0rXgOaYg9w2FeLKLR6Sdng7J1EZ2B1HQFe9FRNaINaG7hBZoSuWdC0uXqZpssBi4GJGqWO1MoZXvbRne7/H1XpkbIDqSD6SLWXgeZ/oNuPVXYsUpypIqyZIxVsjJGWqahYGNc2zEmBaDeZzvW4q3it7TnUbXflJb0MVOXi1lC1jWhoJAAAuAmYcYc14ZFyax9GXPbGLoCZEAN22PJe/DFBQSaPLllk5No31Uy/QPMbVh3uvEP5ruq2sLUx3iqbWvDxvY+Ox3+Q9F8VXrtYq7rMXNHuum07vULksKf6slHN8l/wBLZBLUc3hHctVkvLbKeDdB/uk37jjuvW1JEIC/uM1nacXTLk01aEYZvc0GbtiglI6XcJoJaXDFcOizDO1/dT7fYohCbrufRTabqHJAQ4Q0ZnmkMfN3ghFmd6Q83RAAIzdfyWqyzlhtC2BFp5Ga26G12z69V65Yyi2iZbOkZNGs6zsGP7qn1KqvrFIXOcYRi532G36BXYser1PgqyTrZcigq9LWHlxJPvPNw2AfYKx1GoMohmieLjefQbAvooaJrGhrRAC4LNXt3sZgpUIuAqFP/o1gnBr4/pM4cjBW9VvxNQwex+sFp3iY6Hottkush1CxxIEBAk4WZRJ3QPFSlukweOWMkNp2x0XgScOgdrH0VIq1afRPMJEGDmnZIgq3ZQy8BFtFP4jd+kY7yqplGgfH2jgYPJzji68971GPT45XqS3JrLOPDNmzxAyE2OB1CBHOX0Wvr+VX0kgLLdUYx3n7LXL2qtWc94YxpJmYC+AmSi6DBF6q/sk+qytVZaPDORmlraakFombGm4DBxGJOCtCq2TssOo4McLTBIe80CUBrhqKsdBWWPbaa4EY7N4wXO2ot0qsg5Sly7K74jpo0gbgxvUzPSCsFRobFGxmpojvvPWKrFVHtawCbnPLjuGdDkIK4KctkkRIXnT0LXtsvaHDUfqNRXoiidKvlPJDqPPYS5gn8Tdu0bVtMg5fjBlKc65rjj8Ltu3H67RVvLWSrMXsGb5m+7tGz6fTrSkqkdjJxdouwEZnS7hJBPSlqwVe8N5Wt/6b3ZzRmk+YCcD8Q6jcVYRnbILJKLi6ZqjJSVoRjJ13LqpsN19VFqObq+yn2G1RJEAWZmahxhFxMAJnYFIj5rlofFldLaMMB0zD9IgTzMBzUox1SSIylpVlfyhWX1mnzbibLRqbrPUn9lZqpVm0bAxtwx1nElanw3VYNNIbzmt3C88TLgt4tcqWy4Rkbt2ERFw4EREBrcvUNqhccWkO5SPQlVqgY9+Yy04RjZF0ZC0cBdeVdqRgcCDcQQdxkvKrVZjG2WNAHU7ScV1SpA1mT8htbBz4Pdq8o/yXt4hoGuq77UrLbQOotu53cVs1XfGVas0TWC97on8rZ/1FvJdjbkg+Clq2+CqBsKR/niG7mwj1P9KqS33hGtWKewbntI/UM5vS0OKvyK4sguS1V/JjKWZzXe8PuMVXKzVKWgJvAIItNuIOB9Crioe0EEEAg3gzBWdSaJle8M0Oc9+oBo4zP0HNWJeNWqrWAhggCSYbTD0XsjdsBERcAQhEQFSynVHUFIHMJAjaYdRGHD6K6ZNrop6Nr2wBucNTsR99xC1uVKr7Sjc3zCbd49buK1PhSullIWRk+78wiRzERyUckdUb90WYpU6+S5kxkL09i7X1KGHl0u4pF23ospqANqR6Ki+I6Y0lYIE7MGN34/zEjgr051rZCa5/kvPrDXHFznnq76wV+Bbt/BTmeyRaqCiDGtYLmgDlivREVpnCIiAIiIAiIgCoHiitW6w4C5kGDeJu/mJHBXiuVgUbHvPlaTvgJDiZLmT3EkkmJJJJ1kzJVuJb2RkYr0oKUsc17b2kOG8GK80V5E6nQ0oe1rm3OAcNxEQs1ovCVatUFg3sJbwOc36kcFvVkap0WIIiLgCIiAIiIAqjlNhoqwXNlnB7ecf6gVblX/E9HNjvzNPQj7qUeQXCieC1r2zDgCNxEVPtjqC1vhukjV2OOALeTiB0AW09sNRWNqnRtjujxrrwKN5GDXHV5SucVWtOY60wgGEMDfvXTCIaM+qWRCOPeCnjyaU9iE4avcoH47Te+35W+ifjtN77flb6K/hoMzejZ3y6KffX1K+z5KB+O03vt+Vvon47Te+35W+iv4nI3dwUEQkLvW+ad9fUdnyUH8dpvfb8rfRPx2m99vyt9Ff3Sun1RzQJi9O+vqOz5KB+O03vt+Vvon47Te+35W+iv8BCOPeCNaDMyPJO+vqOz5OY5WyxSPZYc4QcREQAuMcNsFpLY1hdpbPSl0UQnDy94qceqpVpDwX7nF7Y1hLY1hdoMpC5SRC6fVd/L8f6c/H8nJsj5RfRPNhwFoQNxumL+PNbn8dpvfb8rfRdALQJi9A0ERN/cJKMuoTd6SSwV7lA/Hab32/K30T8dpvfb8rfRX9ojpS6JfIyHJR76+pzs+SgfjtN77flb6J+O03vt+Vvor/CcMO8UIhIXc076+o7PkoH47Te+35W+ifjtN77flb6K/uENGfVC0ARF/cZJ319R2fJz/8AHKb32/K30XhW8ovpAA9wIBiJAbMF0cNBmb0AjpS6LvfX1O9nyaLwe+NAY3B7h0afut9abs5KAYyNyy9m3X1WeT1SbLo7KjGzZnf0SzDO6fuppEOiuHSLMc66H2TS2Q4qWXJRoCIxzeu5LUM3rvUtvR16AiNnbHgkLM74/wDKmkR9yAiHm6dL0s2p3YKfKlHcgIjaldDikY5vXcpo1A0kAjDNvjjvTR2x4XKXXpSYICIQzteG9IRzum5S+5S3RQGMLWyHFLVqV2KmjSjvQER8vX9kjZlfFT5kpL0BELO2PBIQzum9TSKXaKAxhHO1Ybk0tkON6llyUaAiNrNuh9k9ht6KW3rNAf/Z;" parent="1" vertex="1">
          <mxGeometry x="320" y="80.63" width="62" height="76.43" as="geometry" />
        </mxCell>
        <mxCell id="iykx99o-PIE_VzaGS4na-5" value="" style="line;strokeWidth=2;direction=south;html=1;" vertex="1" parent="1">
          <mxGeometry x="737.94" y="1062" width="10" height="58" as="geometry" />
        </mxCell>
        <mxCell id="iykx99o-PIE_VzaGS4na-8" value="" style="endArrow=none;html=1;rounded=0;" edge="1" parent="1">
          <mxGeometry width="50" height="50" relative="1" as="geometry">
            <mxPoint x="1092" y="1209" as="sourcePoint" />
            <mxPoint x="1208" y="1209" as="targetPoint" />
          </mxGeometry>
        </mxCell>
        <mxCell id="iykx99o-PIE_VzaGS4na-9" value="" style="endArrow=none;html=1;rounded=0;" edge="1" parent="1">
          <mxGeometry width="50" height="50" relative="1" as="geometry">
            <mxPoint x="1206" y="1211" as="sourcePoint" />
            <mxPoint x="1206" y="861" as="targetPoint" />
          </mxGeometry>
        </mxCell>
      </root>
    </mxGraphModel>
  </diagram>
</mxfile>
